<svg width="281" height="394" viewBox="0 0 281 394" fill="none" xmlns="http://www.w3.org/2000/svg">
<g clip-path="url(#clip0_146_3121)">
<path d="M104.075 12.5824C85.6203 13.9008 58.9084 11.5712 40.6835 14.6944C28.9739 16.704 15.8031 20.9537 8.43711 50.0099C3.49306 69.4789 2.36214 95.8727 1.88174 120.858C0.840892 174.632 1.92178 228.802 5.07436 281.73C7.35622 319.964 11.7999 361.91 22.7688 379.024C28.4735 387.933 35.0689 388.496 41.4241 388.816C110.651 392.361 181.319 395.677 250.445 383.593C257.971 382.275 265.498 379.28 271.302 363.932C278.238 345.59 278.969 307.33 279.349 278.645C280.26 210.766 277.217 142.375 270.432 77.9653C268.5 59.5844 266.058 40.6402 261.304 28.5185C256.41 16.0256 249.855 12.8128 243.63 10.3552C197.152 -7.93617 159.211 8.63997 104.075 12.5824Z" fill="#FCE8C5" stroke="#473218" stroke-width="2.5" stroke-linecap="round" stroke-linejoin="round"/>
</g>
<defs>
<clipPath id="clip0_146_3121">
<rect width="281" height="394" fill="white"/>
</clipPath>
</defs>
</svg>
