<svg width="269" height="384" viewBox="0 0 269 384" fill="none" xmlns="http://www.w3.org/2000/svg">
<path d="M21.3467 16.4914C10.1307 22.9731 2.47575 43.1005 2.46364 65.8236L2.3304 265.021C2.30618 297.133 2.00337 329.482 7.59926 348.438C11.8265 362.751 16.4776 369.618 23.6117 374.914C32.0177 381.143 66.6952 383.057 92.9426 381.469L131.387 379.141L224.882 373.46C238.278 372.644 255.962 363.552 258.772 348.497C268.559 296.08 268.85 239.984 263.654 185.209C258.469 130.433 262.273 133.325 258.578 78.0899C258.239 72.9431 257.186 42.789 246.636 29.9591C229.303 8.89724 211.316 3.76527 184.948 2.54902C137.77 0.353842 88.3278 5.07051 41.3563 10.8551C34.852 11.656 28.3113 12.4718 21.3467 16.4914Z" fill="#FCE8C5" stroke="#473218" stroke-width="2.5" stroke-linecap="round" stroke-linejoin="round"/>
<path d="M39 11.6896C35.1061 11.5455 31.1878 11.9417 27.4403 13.0464C4.01588 19.9865 -0.329668 41.1072 2.97832 62.7322C3.13701 63.7528 3.23466 64.3051 3.27128 64.2571C10.1436 54.5433 24.4497 48.4196 35.9728 50.6409C31.554 38.5257 33.385 23.2525 39 11.6776V11.6896Z" fill="#E5C9A1" stroke="#473218" stroke-width="2.5" stroke-linecap="round" stroke-linejoin="round"/>
</svg>
