<?xml version="1.0" encoding="UTF-8"?><svg xmlns="http://www.w3.org/2000/svg" viewBox="0 0 160.3 300.48"><defs><style>.d{fill:#fce8c5;stroke:#473218;stroke-linecap:round;stroke-linejoin:round;stroke-width:3px;}</style></defs><g id="a"/><g id="b"><g id="c"><path class="d" d="M101.27,296.83c10.22-.26,28.64,1.75,39.14-.69,6.75-1.57,14.79-14.98,15.96-28.56,1.34-15.55,2.59-32.22,2.41-51.75-.33-35.53-1.09-93.41-2.19-125.52-1.02-29.88,.78-54.24-4.99-70.17-2.68-7.39-12.43-14.5-14.24-15.25C126.47,.39,57.04-.32,16.94,6.99c-4.37,.8-10.1,1.92-12.02,15.36-2.14,14.99-2.11,35.36-2.75,57.76-1.56,55.16-.42,116.59,3.25,165.66,1.08,14.39,2.52,29.16,5.26,38.63,2.82,9.76,8.54,12.47,12.39,13.04,23.01,3.42,46.35,.2,78.2-.6Z"/></g></g></svg>