<svg width="85" height="49" viewBox="0 0 85 49" fill="none" xmlns="http://www.w3.org/2000/svg">
<path d="M41.7039 3.06554C40.1578 3.0833 38.6177 3.2135 37.0836 3.40879C29.4012 4.36162 22.2903 3.11289 15.3117 5.4979C12.6587 6.40338 9.94548 7.64027 8.33921 9.91284C7.05179 11.7297 6.63067 13.9964 6.37198 16.192C5.72827 21.7018 5.92078 27.3063 6.9435 32.7569C7.31649 34.7335 7.81582 36.7457 9.013 38.3791C10.0538 39.8054 11.5578 40.8411 13.158 41.6163C17.9828 43.9422 23.5777 43.9363 28.944 43.883C41.2467 43.7587 53.5494 43.6344 65.8521 43.5161C69.9971 43.4746 74.6354 43.232 77.4749 40.2611C80.5732 37.0239 80.2122 31.9579 79.5204 27.5607C78.7142 22.4534 77.7216 17.3756 76.5485 12.3393C76.1153 10.4751 75.5919 8.50432 74.1902 7.17273C73.0351 6.07788 71.4469 5.58075 69.9008 5.16057C60.8167 2.68678 51.6062 2.95902 41.7039 3.06554Z" fill="white" fill-opacity="0.76" stroke="#473218" stroke-width="2" stroke-miterlimit="10"/>
<path d="M31.1484 17.375H31.3477C31.6055 17.375 31.7344 17.5703 31.7344 17.9609C31.4766 18.3828 31.3477 18.707 31.3477 18.9336C31.8633 22.5195 32.1211 24.6016 32.1211 25.1797H31.3477C30.8242 21.7422 30.5625 19.5938 30.5625 18.7344V18.5352C30.6484 17.7617 30.8438 17.375 31.1484 17.375ZM23.7305 18.3477C25.4258 18.3477 26.4688 19.1914 26.8594 20.8789C26.8594 21.207 26.9258 21.7266 27.0586 22.4375C26.6602 23.4844 25.8789 24.0078 24.7148 24.0078H23.9297C22.7266 24.0078 22.0117 23.0312 21.7852 21.0781V20.8789C21.9492 19.1914 22.5977 18.3477 23.7305 18.3477ZM22.5703 20.8789C22.7812 22.4414 23.4297 23.2227 24.5156 23.2227C25.5547 23.0898 26.0742 22.8281 26.0742 22.4375V20.8789C25.9258 20.4336 25.3398 19.9141 24.3164 19.3203H23.543C22.8945 19.6562 22.5703 20.1758 22.5703 20.8789ZM43.3242 16.9766L43.7227 17.5508V18.3359C43.7227 19.9531 43.918 21.5156 44.3086 23.0234C44.1758 23.2734 44.1094 23.4688 44.1094 23.6094H43.7227C43.457 23.6094 43.2617 22.7617 43.1367 21.0664L42.1523 20.8789H39.6211C39.3633 20.8789 39.2344 20.7461 39.2344 20.4805V20.0938C39.3672 20.0938 39.5586 20.0273 39.8086 19.8945C40.5273 20.0273 41.0508 20.0938 41.3789 20.0938C41.4414 20.0938 41.6992 20.0273 42.1523 19.8945C42.3867 20.0273 42.6484 20.0938 42.9375 20.0938V19.8945C42.8047 18.793 42.7383 17.9492 42.7383 17.3633L43.3242 16.9766ZM34.1484 17.9492H38.8359C39.1016 17.9883 39.2344 18.1172 39.2344 18.3359V18.7227C38.7109 20.0273 38.4492 20.7461 38.4492 20.8789V21.0664C39.6211 22.7148 40.207 23.7578 40.207 24.1953L39.8086 24.3945C39.4336 24.332 38.8516 23.4844 38.0625 21.8516H37.6641C36.8906 22.4531 36.3711 23.2344 36.1055 24.1953C35.9648 24.1953 35.7695 24.2617 35.5195 24.3945L35.1328 23.8086C37.0859 21.2461 38.0625 19.6172 38.0625 18.9219H33.7617V18.3359C33.8008 18.0781 33.9297 17.9492 34.1484 17.9492ZM38.8359 25.9531C39.1016 25.9922 39.2344 26.1211 39.2344 26.3398V28.2969C39.3594 28.6875 39.7461 28.8828 40.3945 28.8828H40.9805C41.5898 28.8828 42.6328 28.7539 44.1094 28.4961V29.0703C44.1094 29.5234 42.6758 29.7852 39.8086 29.8555C38.7695 29.8555 38.25 28.8164 38.25 26.7383C38.4453 26.2148 38.6406 25.9531 38.8359 25.9531ZM50.4375 16.9766C51.4766 16.9766 52.0625 17.6914 52.1953 19.1211C52.1953 21.207 51.2188 22.25 49.2656 22.25C47.9688 21.9844 47.3203 21.332 47.3203 20.293V19.3203C47.3203 18.0312 48.3594 17.25 50.4375 16.9766ZM48.0938 19.5195V19.707C48.0938 20.7539 48.5508 21.2773 49.4648 21.2773H49.6523C50.6992 21.2773 51.2227 20.8203 51.2227 19.9062V19.1211C51.2227 18.3477 50.832 17.9609 50.0508 17.9609C49.2148 17.9609 48.5625 18.4805 48.0938 19.5195ZM46.3359 26.3398C47.9453 26.7305 49.7031 26.9258 51.6094 26.9258H53.9531C54.1406 26.9258 54.3359 27.1211 54.5391 27.5117C54.5391 27.7773 54.4062 27.9102 54.1406 27.9102C48.6797 27.9102 45.9492 27.582 45.9492 26.9258V26.7383C45.9883 26.4727 46.1172 26.3398 46.3359 26.3398ZM61.6641 16.9648L61.8516 17.9375V19.8945C61.8516 20.1055 60.875 20.4961 58.9219 21.0664C58.6641 21.4883 58.5352 21.8789 58.5352 22.2383C58.5352 22.7539 59.1211 23.0117 60.293 23.0117C61.9102 22.8867 62.7578 22.8242 62.8359 22.8242L63.0234 23.2109C63.0234 23.3984 62.8281 23.5938 62.4375 23.7969H58.3359C58.1484 23.7969 57.9531 23.6016 57.75 23.2109V23.0117C57.75 22.8867 57.8164 22.8242 57.9492 22.8242L57.75 22.4258V20.8672C57.9609 20.5547 59.0703 20.0352 61.0781 19.3086V18.3242C61.0781 18.0664 60.9453 17.9375 60.6797 17.9375C58.6094 18.0703 57.375 18.1367 56.9766 18.1367L56.7773 17.7383V17.1523H58.7344C59.3828 17.1523 60.3594 17.0898 61.6641 16.9648ZM60.0938 25.3555H60.4922C60.3594 26.6602 60.293 27.6367 60.293 28.2852V28.4844H64.5938C64.8516 28.5234 64.9805 28.6523 64.9805 28.8711V29.0703C64.9805 29.3281 64.8516 29.457 64.5938 29.457C63.0547 29.457 60.3203 29.3281 56.3906 29.0703C56.3906 28.9297 56.3242 28.7344 56.1914 28.4844L56.7773 28.0977C57.1133 28.0977 57.8945 28.2266 59.1211 28.4844C59.4727 26.3984 59.7969 25.3555 60.0938 25.3555Z" fill="#473218"/>
</svg>
