<?xml version="1.0" encoding="UTF-8"?><svg xmlns="http://www.w3.org/2000/svg" viewBox="0 0 255.57 119.87"><defs><style>.d{stroke:#473218;stroke-dasharray:0 0 0 0 0 0 0 0 0 0 0 0;stroke-linecap:round;stroke-linejoin:round;stroke-width:3px;}.d,.e{fill:#fff;}</style></defs><g id="a"/><g id="b"><g id="c"><g><path class="e" d="M83.28,21.53c4.37-1.04,15.57-15.39,18.43-18.55,.85-.94,2.12-1.81,3.31-1.36,.77,.29,1.24,1.04,1.67,1.75,1.9,3.18,14.51,18.58,23.26,20.66"/><path class="d" d="M96.76,14.62c1-4.15,2.09-8.48,4.95-11.64,.85-.94,2.12-1.81,3.31-1.36,.77,.29,1.24,1.04,1.67,1.75l5.69,9.55"/><path class="d" d="M89.18,18.44l-58.23,3.56c-6.35,.39-13.12,.93-18.16,4.81-5.3,4.09-7.5,10.98-8.85,17.54C.37,61.69,.72,79.82,4.97,97.01c.53,2.15,1.16,4.35,2.56,6.06,2.46,3,6.66,3.78,10.5,4.34,66.69,9.8,134.5,14.69,201.52,7.59,7.49-.79,15.05-1.75,22.14-4.31,4.27-1.54,8.57-3.88,10.73-7.87,2.16-4,1.74-8.85,1.27-13.37l-4.29-40.9c-.68-6.48-1.6-13.49-6.17-18.13-3.71-3.76-9.12-5.21-14.31-6.17-11.66-2.16-23.56-2.66-35.41-3.15l-76.29-3.16"/></g></g></g></svg>