<?xml version="1.0" encoding="UTF-8"?><svg xmlns="http://www.w3.org/2000/svg" viewBox="0 0 264.86 131.83"><defs><style>.d{fill:#fff;stroke:#473218;stroke-miterlimit:10;stroke-width:3px;}</style></defs><g id="a"/><g id="b"><g id="c"><path class="d" d="M62,2.12c-10.28-.66-20.73-1.3-30.79,.95S11.37,10.91,6.44,19.96c-3.13,5.76-4.08,12.45-4.55,18.99-.72,9.95-.45,19.95,.76,29.84,1.12,9.13,3.07,19.05,9.6,25.69,6.43,6.53,16.01,8.64,25.07,10.08,19.74,3.14,39.75,4.57,59.73,4.25,11.98-.19,25.93-.15,33.31,9.29,2.65,3.39,5.6,8.69,9.74,10.86,13.54,7.11,6.54-16.27,20.69-16.17,27.85,.19,52.47-2.99,80.31-5.75,3.92-.39,8.04-.88,11.23-3.2,4.1-2.97,5.72-8.24,6.85-13.17,4.34-18.84,5.31-38.45,2.85-57.63-.54-4.2-1.32-8.57-3.84-11.97-3.81-5.13-10.6-6.88-16.89-8.02C185.3,3,127.94,6.32,62,2.12Z"/></g></g></svg>