<?xml version="1.0" encoding="UTF-8"?><svg xmlns="http://www.w3.org/2000/svg" viewBox="0 0 162.19 103.99"><defs><style>.d{stroke-linecap:round;stroke-linejoin:round;}.d,.e{fill:#fff;stroke:#473218;stroke-width:3px;}.e{stroke-miterlimit:10;}</style></defs><g id="a"/><g id="b"><g id="c"><g><path class="d" d="M153.34,30.02c-10.58-14.41-27.93-22.54-45.45-26.12C85.81-.63,62.44,1.29,41.39,9.36,22.5,16.6,4.03,31.13,1.73,51.23c-1.77,15.42,6.93,30.9,19.73,39.68,12.8,8.78,29.03,11.5,44.5,10.2,15.47-1.3,30.36-6.34,44.83-11.97l.37,.6c4.06,7.05,11.71,11.82,19.76,12.72,2.97,.33,5.55-2.06,5.44-5.05l-.45-12.24c-.07-1.85-.1-3.84,.9-5.4,1.04-1.62,2.93-2.41,4.67-3.23,9.83-4.61,18.2-13.71,19.13-24.52,.68-7.86-2.59-15.63-7.27-21.99Z"/><path class="e" d="M79.21,46.12c-1.99,.36-3.5,2.44-3.24,4.44,.14,1.08,.73,2.07,1.46,2.88,.61,.67,1.33,1.26,2.17,1.6,2.01,.84,4.55,.08,5.79-1.7s1.1-4.4-.32-6.05-3.74-1.56-5.86-1.17Z"/><path class="e" d="M116.78,42.8c-2.23,.35-3.88,2.8-3.37,4.99,.29,1.25,1.15,2.3,2.16,3.1,.82,.65,1.79,1.18,2.83,1.31,2.14,.28,4.23-1.19,5.19-3.13,.86-1.73,.9-3.94-.25-5.5s-3.31-1.28-6.56-.77Z"/><path class="e" d="M39.24,53.13c-1.26,.83-2.61,1.8-2.97,3.27-.45,1.85,.97,3.72,2.7,4.5,1.64,.74,3.78,.68,5.05-.6,.69-.69,1.05-1.66,1.2-2.63,.26-1.71-.17-3.61-1.48-4.75s-3.09-.74-4.51,.2Z"/></g></g></g></svg>