<?xml version="1.0" encoding="UTF-8"?><svg xmlns="http://www.w3.org/2000/svg" viewBox="0 0 157.39 169.6"><defs><style>.d{fill:#f46023;}.e{fill:#f2d49e;}.f{fill:#473218;}.g{fill:#fdfce9;stroke:#473218;stroke-linecap:round;stroke-linejoin:round;stroke-width:3px;}</style></defs><g id="a"/><g id="b"><g id="c"><g><path class="g" d="M69.22,159.93s8.5-29.35,31.82-47.17l1.92-3.29s24.41-30.72,52.93-35.11c0,0-5.49-26.88-28.52-38.4-23.04-11.52-86.4,90.51-86.4,90.51l28.25,33.46Z"/><path class="g" d="M52.9,131.06S105.52,38.46,144.97,35.1c0,0-6.27-3.39-10.85-9.7S118.44,6.09,96.27,1.5c0,0-1.26,31.14-40.47,58.5,0,0-21.62,23.45-48.83,33.45l45.94,37.61Z"/><g><path class="d" d="M106.97,108.37c-.33-.62-13.29-27.12-23.07-38.19-3.84-4.35-7.57-7.95-12.25-11.38-2.68-1.97-6.63-4.61-9.31-5.3-3.94-1.02-8.18-1.51-11.2,.62-1.85,1.3-3.11,3.35-3.29,5.6-.28,3.39,1.35,5.13,4.75,6.27,.17,.06,3.78,.78,3.78,.78,3.38,.23,7.38,2.89,8.39,3.72,1.05,.86,5.63,4.19,6.96,5.41,2.05,1.89,6.31,6.08,8.06,8.41,4.62,6.17,7.49,11.58,10.83,18.53,2.3,4.79,6.74,11.9,9.13,12.96,3.23,1.44,5.71,.62,7.07-1.33,.98-1.4,.95-4.59,.15-6.1Z"/><path class="f" d="M108.26,107.61c-4.19-8.08-8.34-16.15-13.07-23.93-3.15-5.18-6.48-10.35-10.53-14.89-2.84-3.19-5.87-6.21-9.18-8.91-3.07-2.5-6.36-4.96-9.93-6.71-6.29-3.08-17.15-3.4-19.01,5.23-.7,3.24,.34,6.35,3.28,8.02,1.87,1.06,4.05,1.45,6.15,1.79,2.93,.48,5.79,1.82,7.96,3.51s4.42,3.21,6.47,5c5.43,4.72,9.84,10.25,13.47,16.44,3.87,6.59,6.57,13.84,11.17,19.99,1.92,2.57,3.87,4.56,7.25,4.85s6.28-2.12,6.69-5.51c.2-1.66,0-3.36-.72-4.88-.83-1.74-3.42-.22-2.59,1.51,1.18,2.49,.09,6.01-3.02,5.9-2.85-.1-4.44-2.5-5.91-4.63-4.07-5.88-6.66-12.59-10.28-18.75-1.85-3.16-3.87-6.3-6.2-9.13-1.98-2.41-4.25-4.62-6.51-6.78-1.86-1.77-3.93-3.29-5.98-4.83-1.86-1.4-3.63-2.83-5.72-3.89-2.42-1.22-4.79-1.6-7.35-2.12-1.97-.4-4.52-.96-5.22-3.13-1.04-3.23,1.56-6.58,4.6-7.37,3.25-.84,7.33,.01,10.27,1.52,6.72,3.44,12.56,8.77,17.58,14.33,3.78,4.18,6.91,8.88,9.87,13.67,4.93,7.97,9.37,16.25,13.57,24.63,.1,.19,.19,.39,.29,.58,.89,1.71,3.48,.2,2.59-1.51Z"/></g><ellipse class="g" cx="35.09" cy="130.66" rx="16.71" ry="47.43" transform="translate(-77.14 55.1) rotate(-41.02)"/><path class="e" d="M101.76,9.35c.17,0,.34,.01,.5,.03,.1,0,.19,.02,.29,.03,.24,.02-.24-.04-.01,0,.34,.06,.69,.13,1.02,.22,.16,.05,.32,.1,.48,.15,.08,.03,.16,.06,.24,.09,.05,.02,.09,.03,.13,.05,.09,.04,.09,.04,0,0-.09-.04-.09-.04,0,0,.04,.02,.09,.04,.13,.06,.08,.04,.15,.07,.23,.11,.16,.08,.32,.17,.48,.26,.51,.29,1.25,.14,1.54-.4s.14-1.23-.4-1.54c-1.41-.81-3-1.25-4.63-1.29-.59-.02-1.15,.53-1.12,1.12s.49,1.11,1.12,1.12h0Z"/><path class="e" d="M111.18,13.17c.14,.05,.28,.11,.41,.17l-.27-.11c1.12,.48,2.18,1.08,3.15,1.81,.22,.16,.62,.18,.87,.11s.54-.27,.67-.52c.14-.26,.21-.58,.11-.87s-.27-.49-.52-.67c-1.18-.88-2.47-1.56-3.84-2.09-.26-.1-.64-.02-.87,.11s-.46,.4-.52,.67c-.07,.29-.05,.61,.11,.87s.38,.4,.67,.52h0Z"/><path class="e" d="M119.53,18.61c.4,.26,.78,.55,1.16,.84l-.23-.18c.85,.66,1.71,1.33,2.47,2.09,.42,.41,1.18,.45,1.59,0s.45-1.15,0-1.59c-.56-.55-1.17-1.05-1.78-1.54-.67-.54-1.35-1.09-2.07-1.56-.49-.32-1.26-.12-1.54,.4-.3,.56-.12,1.2,.4,1.54h0Z"/><path class="e" d="M127.56,26.39l3.09,3.08c.42,.42,1.18,.45,1.59,0s.45-1.15,0-1.59l-3.09-3.08c-.42-.42-1.18-.45-1.59,0s-.45,1.15,0,1.59h0Z"/><path class="e" d="M124.25,38.5c.82-.36,1.65-.73,2.48-1.08-.12,.05,.2-.08,.19-.08,.09-.04,.18-.08,.28-.11,.17-.07,.34-.14,.51-.21,.27-.11,.53-.24,.79-.38,.56-.31,1.1-.65,1.66-.96,.26-.14,.51-.29,.78-.41,.05-.03,.11-.05,.16-.08,.21-.11-.22,.07-.03,.01,.09-.03,.18-.06,.28-.08,.6-.11,.94-.83,.79-1.38-.17-.63-.79-.9-1.38-.79-.56,.11-1.11,.45-1.61,.72-.57,.32-1.13,.67-1.71,.99-.11,.06-.22,.12-.33,.18s-.42,.15-.03,.03c-.46,.15-.91,.37-1.36,.56-.87,.37-1.73,.75-2.59,1.13-.56,.24-.69,1.06-.4,1.54,.34,.57,.98,.65,1.54,.4h0Z"/><path class="e" d="M118.5,40.27c-1.98,.67-3.66,1.95-4.82,3.68-.33,.49-.11,1.27,.4,1.54,.57,.3,1.19,.12,1.54-.4,.06-.09,.12-.18,.19-.27,.02-.03,.15-.19,.03-.04s.02-.02,.03-.04c.13-.16,.27-.32,.41-.47s.29-.3,.45-.44c.08-.07,.16-.15,.25-.22,.07-.06,.37-.26,.08-.07,.35-.23,.68-.47,1.05-.67,.19-.1,.39-.2,.59-.29,.14-.06-.05,.02-.09,.04,.05-.02,.1-.04,.15-.06,.11-.04,.23-.08,.34-.12,.56-.19,.98-.78,.79-1.38-.18-.55-.79-.99-1.38-.79h0Z"/><path class="e" d="M109.4,47.49c-1.01,.63-1.95,1.36-2.82,2.17s-1.68,1.67-2.53,2.5c-.42,.41-.44,1.18,0,1.59s1.14,.44,1.59,0c.83-.81,1.63-1.66,2.48-2.45,.37-.34,.75-.67,1.14-.99,.2-.16-.2,.15,0,0,.05-.04,.1-.08,.15-.11,.12-.09,.23-.17,.35-.25,.25-.18,.51-.35,.77-.51,.5-.31,.74-1.02,.4-1.54s-1.01-.74-1.54-.4h0Z"/><path class="e" d="M100.3,56.32c-1.48,1.06-2.84,2.27-4.01,3.67-.2,.23-.33,.48-.33,.8,0,.28,.12,.61,.33,.8,.42,.38,1.19,.48,1.59,0,.55-.65,1.13-1.27,1.76-1.85,.3-.28,.62-.55,.94-.81,.09-.07,.17-.14,.26-.21,.04-.03,.09-.07,.13-.1-.04,.03-.19,.14-.07,.05,.18-.13,.36-.27,.54-.4,.24-.17,.43-.37,.52-.67,.07-.27,.04-.63-.11-.87-.31-.47-1.03-.77-1.54-.4h0Z"/><path class="e" d="M92.34,64.82l-3.46,3.43c-.42,.41-.45,1.18,0,1.59s1.14,.44,1.59,0l3.46-3.43c.42-.41,.45-1.18,0-1.59s-1.14-.44-1.59,0h0Z"/><path class="e" d="M54.47,120c.23-.39,.46-.77,.71-1.14,.13-.19,.26-.38,.4-.57,.07-.09,.14-.19,.21-.28,.03-.04,.07-.08,.09-.12-.06,.1-.11,.14-.01,.01,.56-.72,1.18-1.39,1.83-2.02,.42-.41,.44-1.18,0-1.59s-1.14-.44-1.59,0c-1.4,1.35-2.61,2.9-3.58,4.58-.3,.51-.13,1.25,.4,1.54s1.22,.14,1.54-.4h0Z"/><path class="e" d="M60.28,111.86c.58-1,1.13-2.03,1.71-3.03,.27-.48,.56-.95,.86-1.41,.14-.22,.28-.43,.43-.64,.06-.09,.13-.2,.21-.28-.18,.17-.04,.05,0,0s.09-.1,.13-.16c.38-.45,.47-1.16,0-1.59-.42-.38-1.19-.48-1.59,0-1.51,1.79-2.52,3.96-3.69,5.97-.3,.51-.13,1.25,.4,1.54s1.22,.14,1.54-.4h0Z"/><path class="e" d="M66.03,101.7c1.14-1.11,1.95-2.51,3.1-3.61,.42-.41,.44-1.18,0-1.59s-1.14-.44-1.59,0c-1.14,1.11-1.95,2.51-3.1,3.61-.42,.41-.44,1.18,0,1.59s1.14,.44,1.59,0h0Z"/><path class="e" d="M73.12,92.93c.49-.89,1.09-1.73,1.7-2.54,.07-.09-.16,.21,0,0,.04-.05,.08-.11,.13-.16,.08-.11,.17-.21,.26-.31,.16-.2,.33-.39,.51-.58,.16-.17,.32-.34,.48-.5,.07-.07,.15-.14,.23-.21s.39-.3,.04-.04c.24-.18,.43-.37,.52-.67,.07-.27,.04-.63-.11-.87-.3-.46-1.04-.78-1.54-.4-.89,.67-1.6,1.53-2.28,2.41s-1.32,1.77-1.85,2.73c-.28,.51-.14,1.25,.4,1.54s1.23,.15,1.54-.4h0Z"/><path class="e" d="M19.35,93.7c-.31-.04,.08,.01,.14,.02,.09,.01,.17,.03,.26,.04,.2,.04,.4,.08,.6,.12,.4,.09,.8,.2,1.19,.32s.78,.26,1.16,.42c.28,.11-.22-.1,.06,.02,.11,.05,.21,.1,.32,.15,.19,.09,.37,.18,.55,.27,.52,.27,1.25,.15,1.54-.4,.27-.52,.15-1.25-.4-1.54-1.71-.88-3.51-1.43-5.42-1.67-.26-.03-.62,.15-.8,.33-.2,.2-.34,.52-.33,.8s.11,.59,.33,.8c.24,.22,.48,.29,.8,.33h0Z"/><path class="e" d="M28.56,97.79c1.74,.86,3.42,1.84,5.03,2.93,.49,.33,1.27,.11,1.54-.4,.3-.57,.12-1.19-.4-1.54-1.61-1.09-3.29-2.07-5.03-2.93-.53-.26-1.24-.16-1.54,.4-.27,.51-.16,1.26,.4,1.54h0Z"/><path class="e" d="M37.27,103.72c.08,.16,.19,.3,.3,.44,.3,.39,.61,.77,.95,1.12,1.08,1.1,2.35,2.02,3.68,2.79,.51,.3,1.25,.13,1.54-.4s.14-1.22-.4-1.54c-.39-.23-.77-.46-1.15-.72-.17-.11-.34-.23-.5-.35-.06-.04-.12-.09-.18-.13-.04-.03-.08-.06-.11-.09,.13,.1,.16,.12,.06,.05-.47-.38-.93-.77-1.35-1.21-.15-.16-.3-.32-.44-.48-.06-.07-.12-.15-.18-.22-.03-.03-.05-.07-.08-.1,.27,.33,.15,.19,.09,.11-.1-.13-.2-.27-.28-.42-.27-.53-1.05-.72-1.54-.4-.54,.35-.69,.98-.4,1.54h0Z"/><path class="e" d="M45.11,110.9c1.03,1.34,2.18,2.55,3.51,3.59,.25,.19,.47,.33,.8,.33,.28,0,.61-.12,.8-.33s.34-.5,.33-.8c-.01-.28-.1-.62-.33-.8-1.22-.95-2.32-2.05-3.26-3.27l.18,.23-.07-.09c-.19-.24-.36-.43-.67-.52-.27-.07-.63-.04-.87,.11s-.45,.39-.52,.67-.07,.63,.11,.87h0Z"/><path class="e" d="M59.91,129.29c.14,.16,.27,.32,.4,.49,.03,.04,.07,.08,.1,.12,.16,.21-.1-.13,0,0,.06,.08,.13,.17,.19,.25,.26,.35,.51,.71,.75,1.08,.47,.73,.9,1.5,1.28,2.29,.26,.53,1.06,.71,1.54,.4,.55-.35,.68-.97,.4-1.54-.81-1.69-1.85-3.25-3.06-4.68-.38-.45-1.2-.42-1.59,0-.44,.48-.41,1.11,0,1.59h0Z"/><path class="e" d="M66.2,139.7c.44,1.56,1.08,3.06,1.9,4.46,.3,.51,1.03,.73,1.54,.4s.72-1,.4-1.54c-.38-.65-.71-1.32-1.01-2-.03-.08-.02-.05,.04,.09-.02-.05-.04-.09-.06-.14-.04-.09-.08-.19-.11-.28-.06-.17-.13-.33-.18-.5-.13-.36-.24-.72-.34-1.09-.16-.57-.8-.97-1.38-.79s-.96,.78-.79,1.38h0Z"/><path class="e" d="M130.81,44.89c.6,.32,1.18,.7,1.72,1.11l-.23-.18c.31,.24,.6,.49,.89,.75,.22,.2,.5,.33,.8,.33,.28,0,.61-.12,.8-.33s.34-.5,.33-.8-.11-.59-.33-.8c-.85-.79-1.81-1.49-2.84-2.04-.26-.14-.57-.19-.87-.11-.26,.07-.54,.27-.67,.52-.28,.52-.15,1.24,.4,1.54h0Z"/><path class="e" d="M137.11,50.33c.13,.08,.25,.16,.37,.25l-.23-.18c.65,.51,1.19,1.15,1.69,1.8l-.18-.23c.36,.47,.7,.94,1.04,1.42,.18,.24,.37,.43,.67,.52,.27,.07,.63,.04,.87-.11s.45-.39,.52-.67,.06-.63-.11-.87c-1.01-1.4-2.01-2.94-3.5-3.88-.5-.31-1.26-.12-1.54,.4-.29,.55-.13,1.21,.4,1.54h0Z"/><path class="e" d="M142.89,58.04l1.94,3.59c.28,.52,1.04,.73,1.54,.4,.53-.34,.7-.98,.4-1.54l-1.94-3.59c-.28-.52-1.04-.73-1.54-.4-.53,.34-.7,.98-.4,1.54h0Z"/><path class="e" d="M147.23,66.51c.33,1.14,.74,2.26,1.07,3.4,.16,.57,.8,.97,1.38,.79s.96-.78,.79-1.38c-.33-1.14-.74-2.26-1.07-3.4-.16-.57-.8-.97-1.38-.79s-.96,.78-.79,1.38h0Z"/></g></g></g></svg>