<?xml version="1.0" encoding="UTF-8"?><svg xmlns="http://www.w3.org/2000/svg" viewBox="0 0 93.9 100.62"><defs><style>.d{fill:#473218;}</style></defs><g id="a"/><g id="b"><g id="c"><path class="d" d="M85.77,59.76c2.55-5.75,2.73-12.26,.52-18.12l6.25-7.15c1.54-1.76,1.79-4.3,.62-6.33l-5.64-9.77c-1.17-2.02-3.5-3.08-5.79-2.63l-10.04,1.98h-.02c-2.81-2.5-6.17-4.31-9.82-5.27l-2.99-8.77c-.75-2.21-2.83-3.7-5.17-3.7h-11.28c-2.34,0-4.42,1.49-5.17,3.7l-2.99,8.77c-3.28,.86-6.32,2.42-8.94,4.53-.18-.07-.36-.15-.56-.21l-9.86-2.74c-2.25-.63-4.65,.25-5.97,2.18L2.55,25.54c-1.32,1.93-1.27,4.49,.13,6.36l6.13,8.2c.33,.44,.72,.81,1.14,1.12-1.84,4.61-2.17,9.66-1.03,14.43-.3,.23-.59,.47-.84,.76l-6.74,7.71c-1.54,1.76-1.79,4.3-.62,6.33l5.64,9.77c1.17,2.02,3.5,3.08,5.79,2.63l10.04-1.98c.19-.04,.36-.1,.54-.15,3.05,3.32,6.98,5.72,11.32,6.9l3.17,9.3c.75,2.21,2.83,3.7,5.17,3.7h11.28c2.34,0,4.42-1.49,5.17-3.7l3.17-9.3c3.06-.83,5.92-2.27,8.42-4.21,.22,.07,.44,.15,.67,.19l10.04,1.98c2.29,.45,4.62-.6,5.79-2.63l5.64-9.77c1.17-2.02,.92-4.57-.62-6.33l-6.2-7.1Zm-38.03,5.18c-8.22,0-14.88-6.66-14.88-14.88s6.66-14.88,14.88-14.88,14.88,6.66,14.88,14.88-6.66,14.88-14.88,14.88Z"/></g></g></svg>