<?xml version="1.0" encoding="UTF-8"?><svg xmlns="http://www.w3.org/2000/svg" xmlns:xlink="http://www.w3.org/1999/xlink" viewBox="0 0 316.27 355.77"><defs><style>.ae{fill:url(#ad);}.af{fill:url(#ac);}.ag{fill:url(#y);}.ag,.ah,.ai,.aj,.ak,.al,.am,.an,.ao,.ap,.aq,.ar,.as,.at,.au,.av,.aw,.ax,.ay,.b`,.ba,.bb,.bc,.bd,.be,.bf,.bg,.bh{mix-blend-mode:soft-light;}.ag,.ah,.ai,.aj,.ak,.al,.am,.an,.ao,.ap,.aq,.ar,.bg{opacity:.55;}.ah{fill:url(#w);}.ai{fill:url(#t);}.aj{fill:url(#i);}.ak{fill:url(#h);}.al{fill:url(#q);}.am{fill:url(#r);}.an{fill:url(#f);}.ao{fill:url(#d);}.ap{fill:url(#e);}.aq{fill:url(#g);}.ar{fill:url(#p);}.as{fill:url(#a`);}.as,.at,.au,.av,.aw,.ax,.ay,.b`{opacity:.77;}.at{fill:url(#x);}.au{fill:url(#s);}.av{fill:url(#k);}.aw{fill:url(#m);}.ax{fill:url(#n);}.ay{fill:url(#l);}.b`{fill:url(#o);}.ba{fill:url(#aa);opacity:.66;}.bi{mix-blend-mode:overlay;opacity:.14;}.bj{fill:#687f2e;}.bk{fill:#66a2a7;}.bl{fill:#e9cdb3;}.bm{fill:#edbb98;}.bn{fill:#82381a;}.bo{fill:#66310b;}.bp{fill:#80c4bd;}.bq{fill:#824c36;}.br{fill:#739e9d;}.bs{fill:#997676;}.bt{fill:#935022;}.bu{fill:#8bad4c;}.bv{fill:#8fb052;}.bw{fill:#915846;}.bx{fill:#ad6636;}.by{fill:#a6d8d0;}.c`{fill:#a7c167;}.ca{fill:#bc7444;}.cb{fill:#a6c167;}.cc{fill:#bf9e97;}.cd{fill:#c0d881;}.ce{fill:#c0d880;}.cf{fill:#c6a8a1;}.cg{fill:#c69675;}.ch{fill:#dbab8a;}.ci{fill:#d6b4ae;}.cj{fill:#a88b86;}.ck{fill:#0a815b;}.cl{fill:#08654b;}.cm{fill:#356c76;}.cn{fill:#35593e;}.co{fill:#3f2818;}.cp{fill:#94d3cc;}.cq{fill:#6e8836;}.cr{fill:#538892;}.cs{fill:#465c20;}.ct{fill:#885e49;}.cu{fill:#885d49;}.cv{fill:#6f8836;}.cw{fill:#628131;}.cx{fill:#5c7c60;}.cy{fill:#589369;}.d`{fill:#638131;}.da{fill:#295149;}.db{fill:#2b433b;}.dc{fill:#2b150b;}.dd{fill:#566e29;}.de{fill:#476778;}.df{fill:#2c6752;}.dg{fill:#344c5f;}.dh{fill:#315f70;}.di{fill:#334c5e;}.dj{fill:#569668;}.dk{fill:#71432f;}.dl{fill:#497556;}.dm{fill:#467587;}.dn{fill:#472515;}.do{fill:#5ca06c;}.dp{fill:#74aa85;}.dq{fill:#5f3620;}.dr{fill:#5d8c9b;}.ds{fill:#4e825e;}.dt{fill:#4f8065;}.du{fill:#82a143;}.dv{fill:#265165;}.bc{fill:url(#v);}.bd{fill:url(#u);}.be{fill:url(#j);}.bf{fill:url(#ab);}.dw{isolation:isolate;}.bh{opacity:.72;}</style><linearGradient id="d" x1="311.27" y1="196.42" x2="0" y2="196.42" gradientTransform="matrix(1, 0, 0, 1, 0, 0)" gradientUnits="userSpaceOnUse"><stop offset="0" stop-color="#e1dbe5"/><stop offset="1" stop-color="#000"/></linearGradient><linearGradient id="e" x1="179.3" y1="306.35" x2="115.81" y2="306.35" xlink:href="#d"/><linearGradient id="f" x1="220.99" y1="295.42" x2="182.37" y2="295.42" xlink:href="#d"/><linearGradient id="g" x1="196.5" y1="346.11" x2="184.26" y2="346.11" xlink:href="#d"/><linearGradient id="h" x2="59.62" xlink:href="#d"/><linearGradient id="i" y1="124.7" y2="124.7" xlink:href="#d"/><linearGradient id="j" y1="154.8" x2="59.62" y2="154.8" xlink:href="#d"/><linearGradient id="k" x1="11977.26" y1="117.7" x2="11899.84" y2="117.7" gradientTransform="translate(11982.63) rotate(-180) scale(1 -1)" gradientUnits="userSpaceOnUse"><stop offset="0" stop-color="#80768a"/><stop offset="1" stop-color="#000"/></linearGradient><linearGradient id="l" x1="11808.79" y1="124.27" x2="11755.77" y2="124.27" xlink:href="#k"/><linearGradient id="m" x1="11982.63" y1="142.68" x2="11919.55" y2="142.68" xlink:href="#k"/><linearGradient id="n" x1="11842.6" y1="100.91" x2="11765.19" y2="100.91" xlink:href="#k"/><linearGradient id="o" x1="11814" y1="112.77" x2="11716.98" y2="112.77" xlink:href="#k"/><linearGradient id="p" x1="90.91" y1="72.35" x2="43.98" y2="72.35" gradientTransform="matrix(1, 0, 0, 1, 0, 0)" gradientUnits="userSpaceOnUse"><stop offset="0" stop-color="#dfe6e7"/><stop offset="1" stop-color="#000"/></linearGradient><linearGradient id="q" x1="248.44" y1="51.2" x2="173.84" y2="51.2" gradientTransform="matrix(1, 0, 0, 1, 0, 0)" gradientUnits="userSpaceOnUse"><stop offset="0" stop-color="#e0e4e4"/><stop offset="1" stop-color="#000"/></linearGradient><linearGradient id="r" x1="248.45" y1="52.5" y2="52.5" xlink:href="#q"/><linearGradient id="s" x1="11893.42" y1="104.78" x2="11818.43" y2="104.78" xlink:href="#k"/><linearGradient id="t" x1="183.72" y1="72.54" x2="132.74" y2="72.54" gradientTransform="matrix(1, 0, 0, 1, 0, 0)" gradientUnits="userSpaceOnUse"><stop offset="0" stop-color="#e0e3e4"/><stop offset="1" stop-color="#000"/></linearGradient><linearGradient id="u" x1="63.08" y1="133.83" x2="16.63" y2="133.83" xlink:href="#d"/><linearGradient id="v" x1="226.65" y1="119.83" x2="197.4" y2="119.83" xlink:href="#d"/><linearGradient id="w" x1="316.27" y1="57.68" x2="213.31" y2="57.68" xlink:href="#p"/><linearGradient id="x" x1="11873.16" y1="154.16" x2="11838.74" y2="154.16" xlink:href="#k"/><linearGradient id="y" x1="143.89" y1="153.64" x2="120.65" y2="153.64" xlink:href="#d"/><linearGradient id="a`" x1="11844.81" y1="168.24" x2="11816.73" y2="168.24" xlink:href="#k"/><linearGradient id="aa" x1="171.94" y1="167.16" x2="151.51" y2="167.16" xlink:href="#d"/><linearGradient id="ab" x1="311.27" y1="147.32" x2="38.22" y2="147.32" gradientTransform="matrix(1, 0, 0, 1, 0, 0)" gradientUnits="userSpaceOnUse"><stop offset="0" stop-color="#e1dbe5"/><stop offset="1" stop-color="gray"/></linearGradient><radialGradient id="ac" cx="319.42" cy="255.4" fx="319.42" fy="255.4" r="93.48" gradientTransform="matrix(1, 0, 0, 1, 0, 0)" gradientUnits="userSpaceOnUse"><stop offset="0" stop-color="#fff"/><stop offset=".14" stop-color="#f6f6f6"/><stop offset=".37" stop-color="#dedede"/><stop offset=".65" stop-color="#b8b8b8"/><stop offset=".98" stop-color="#838383"/><stop offset="1" stop-color="gray"/></radialGradient><radialGradient id="ad" cx="16.76" cy="275.16" fx="16.76" fy="275.16" r="157.46" gradientTransform="matrix(1, 0, 0, 1, 0, 0)" gradientUnits="userSpaceOnUse"><stop offset="0" stop-color="#fff"/><stop offset="1" stop-color="gray"/></radialGradient></defs><g class="dw"><g id="a"/><g id="b"><g id="c"><g><g><polygon class="bo" points="0 136.99 26.41 195.91 45.27 203.77 50.93 215.78 65.46 215.47 79.99 249.43 107.53 258.48 136.2 255.29 152.43 264.14 224.87 258.48 231.28 247.16 254.3 239.74 275.05 191.7 288.63 187.93 311.27 128.7 0 136.99"/><polygon class="bo" points="115.81 279.12 148.7 270.43 179.3 285.13 171.01 324.9 164.43 342.28 150.7 339.6 139.55 319.22 121.81 308.52 115.81 279.12"/><polygon class="bo" points="210.4 300.23 182.37 321.18 191.58 281.25 198.69 269.67 220.99 271.13 212.28 285.66 210.4 300.23"/><polygon class="bn" points="193.6 336.45 184.26 341.6 184.26 350.62 188.93 355.77 196.5 346.11 193.6 336.45"/><polygon class="bn" points="66.03 203.6 50.93 215.78 45.27 203.77 26.41 195.91 38.22 168.24 59.62 172.69 66.03 203.6"/><polygon class="ca" points="152.43 264.14 135.07 243.01 107.53 258.48 136.2 255.29 152.43 264.14"/><polygon class="bt" points="50.93 215.78 65.46 215.47 79.99 249.43 92.21 238.11 75.91 204.92 66.03 203.6 50.93 215.78"/><polygon class="bx" points="79.99 249.43 92.21 238.11 135.07 243.01 107.53 258.48 79.99 249.43"/><polygon class="ao" points="0 136.99 26.41 195.91 45.27 203.77 50.93 215.78 65.46 215.47 79.99 249.43 107.53 258.48 136.2 255.29 152.43 264.14 224.87 258.48 231.28 247.16 254.3 239.74 275.05 191.7 288.63 187.93 311.27 128.7 0 136.99"/><polygon class="ca" points="150.7 339.6 179.3 285.13 171.01 324.9 164.43 342.28 150.7 339.6"/><polygon class="bt" points="139.55 319.22 148.7 270.43 179.3 285.13 150.7 339.6 139.55 319.22"/><polygon class="bn" points="121.81 308.52 148.7 270.43 139.55 319.22 121.81 308.52"/><polygon class="ap" points="148.7 270.43 115.81 279.12 121.81 308.52 139.55 319.22 150.7 339.6 164.43 342.28 171.01 324.9 179.3 285.13 148.7 270.43"/><polygon class="ca" points="182.37 321.18 212.28 285.66 210.4 300.23 182.37 321.18"/><polygon class="bn" points="220.99 271.13 191.58 281.25 182.37 321.18 212.28 285.66 220.99 271.13"/><polygon class="an" points="198.69 269.67 191.58 281.25 182.37 321.18 210.4 300.23 212.28 285.66 220.99 271.13 198.69 269.67"/><polygon class="bt" points="193.6 336.45 188.93 355.77 196.5 346.11 193.6 336.45"/><polygon class="aq" points="193.6 336.45 184.26 341.6 184.26 350.62 188.93 355.77 196.5 346.11 193.6 336.45"/><polygon class="br" points="61.49 171.39 59.62 172.69 66.03 203.6 75.91 204.92 92.21 238.11 135.07 243.01 152.43 264.14 224.87 258.48 231.28 247.16 254.3 239.74 275.05 191.7 288.63 187.93 308.91 131.83 61.49 171.39"/><polygon class="cm" points="106.44 181.99 135.07 243.01 92.21 238.11 75.91 204.92 106.44 181.99"/><polygon class="dv" points="106.44 181.99 59.62 172.69 66.03 203.6 75.91 204.92 106.44 181.99"/><polygon class="bk" points="231.28 247.16 275.05 191.7 254.3 239.74 231.28 247.16"/><polygon class="cr" points="275.05 191.7 243.74 175.6 289.2 158.07 288.63 187.93 275.05 191.7"/><polygon class="bk" points="288.63 187.93 311.27 128.7 289.2 158.07 288.63 187.93"/><polygon class="dm" points="135.07 243.01 182.37 227.78 224.87 258.48 152.43 264.14 135.07 243.01"/><polygon class="dh" points="182.37 227.78 106.44 181.99 135.07 243.01 182.37 227.78"/><polygon class="cm" points="182.37 227.78 275.05 191.7 224.87 258.48 182.37 227.78"/><polygon class="dm" points="275.05 191.7 243.74 175.6 176.72 184.59 275.05 191.7"/><polygon class="dm" points="182.37 227.78 176.72 184.59 106.44 181.99 182.37 227.78"/><polygon class="dr" points="275.05 191.7 176.72 184.59 182.37 227.78 275.05 191.7"/><polygon class="ak" points="289.2 158.07 243.74 175.6 176.72 184.59 106.44 181.99 59.62 172.69 66.03 203.6 75.91 204.93 92.21 238.11 135.07 243.01 152.43 264.14 224.87 258.48 234.04 246.27 254.3 239.74 275.05 191.7 288.63 187.93 311.27 128.7 289.2 158.07"/><polygon class="cx" points="274.02 97.58 233.99 86.21 160.35 81.15 85.72 86.29 47.75 93.81 7.95 113.49 0 136.99 38.22 168.24 106.44 181.99 176.72 184.59 243.74 175.6 289.2 158.07 311.27 128.7 274.02 97.58"/><polygon class="cp" points="104.13 181.99 182.33 140.67 209.78 135.75 243.74 175.6 176.72 184.59 104.13 181.99"/><polygon class="by" points="209.78 135.75 235.81 136.23 281.48 125.01 311.27 128.7 289.2 158.07 243.74 175.6 209.78 135.75"/><polygon class="df" points="184.26 132.87 120.97 115.36 85.72 86.29 160.35 81.15 233.99 86.21 208.49 130 184.26 132.87"/><polygon class="da" points="184.26 132.87 120.97 115.36 85.72 86.29 47.75 93.81 7.95 113.49 0 136.99 104.13 131.83 184.26 132.87"/><polygon class="db" points="38.22 168.24 104.13 131.83 0 136.99 38.22 168.24"/><polygon class="dt" points="208.49 130 233.99 86.21 274.02 97.58 311.27 128.7 283.11 121.95 235.57 131.83 208.49 130"/><polygon class="aj" points="274.02 97.58 233.99 86.21 160.35 81.15 85.72 86.29 47.75 93.81 7.95 113.49 0 136.99 38.22 168.24 104.13 131.83 184.26 132.87 208.49 130 235.57 131.83 283.11 121.95 311.27 128.7 274.02 97.58"/><polygon class="bp" points="104.13 181.99 182.33 140.67 109.15 138.34 59.62 172.69 104.13 181.99"/><polygon class="be" points="281.48 125.01 235.81 136.23 209.78 135.75 182.33 140.67 109.15 138.34 59.62 172.69 104.13 181.99 176.72 184.59 243.74 175.6 289.2 158.07 311.27 128.7 281.48 125.01"/><polygon class="av" points="82.79 117.82 65.27 121.95 28.45 127.75 5.37 121.11 7.95 113.49 19.76 107.65 82.79 117.82"/><polygon class="ay" points="226.86 123.32 210.48 126.57 189.64 130.12 173.84 125.57 175.6 120.35 196.49 118.42 226.86 123.32"/><polygon class="aw" points="63.08 142.97 47.67 146.6 17.54 151.34 0 136.99 7.63 134.02 63.08 142.97"/><polygon class="ax" points="217.44 101.04 211.14 104.31 163.1 110.96 140.03 104.32 142.61 96.71 154.42 90.86 217.44 101.04"/><polygon class="b`" points="265.65 114.21 243.93 117.62 197.64 124.24 168.63 116.67 171.87 107.97 186.72 101.31 265.65 114.21"/><g><g><g><polygon class="bv" points="47.31 97.7 55.29 100.3 69.05 99 73.04 95.65 88.85 92.54 90.91 87.57 90.91 70.36 88.33 62.7 82.16 62.7 82.55 52.03 79.85 41.36 69.82 32.48 61.2 38.27 58.89 52.87 58.89 61.53 51.56 60.67 46.03 63.22 45 72.86 46.8 78.23 43.97 81.4 47.31 97.7"/><polygon class="cs" points="43.97 81.4 55.66 96.68 69.05 99 55.29 100.3 47.31 97.7 43.97 81.4"/><polygon class="d`" points="82.16 62.7 77.45 69.12 88.33 62.7 82.16 62.7"/><polygon class="d`" points="58.89 61.53 63.43 52.89 61.2 38.27 58.89 52.87 58.89 61.53"/><polygon class="du" points="77.45 69.12 70.78 66.39 73.04 95.65 88.85 92.54 77.45 69.12"/><polygon class="ce" points="77.45 69.12 88.33 62.7 90.91 70.36 90.91 87.57 85.21 69.12 77.45 69.12"/><polygon class="ce" points="80.94 52.12 73.88 42.09 69.82 32.48 79.85 41.36 82.55 52.03 80.94 52.12"/><polygon class="c`" points="80.94 52.12 77.45 69.12 82.16 62.7 82.55 52.03 80.94 52.12"/><polygon class="c`" points="77.45 69.12 85.21 69.12 90.91 87.57 88.85 92.54 77.45 69.12"/><polygon class="cv" points="58.89 61.53 77.45 69.12 71.92 52.63 63.43 52.89 58.89 61.53"/><polygon class="du" points="71.92 52.63 73.88 42.09 69.82 32.48 61.2 38.27 63.43 52.89 71.92 52.63"/><polygon class="bv" points="71.92 52.63 73.88 42.09 80.94 52.12 77.45 69.12 71.92 52.63"/><polygon class="bj" points="43.97 81.4 57.38 80.83 62.98 91.89 73.04 95.65 69.05 99 55.66 96.68 43.97 81.4"/><polygon class="cv" points="43.97 81.4 57.38 80.83 46.8 78.23 43.97 81.4"/><polygon class="dd" points="57.38 80.83 46.03 63.22 45 72.86 46.8 78.23 57.38 80.83"/><polygon class="du" points="46.03 63.22 54.13 66.39 70.78 66.39 58.89 61.53 51.56 60.67 46.03 63.22"/><polygon class="cv" points="54.13 66.39 57.38 80.83 46.03 63.22 54.13 66.39"/><polygon class="bv" points="54.13 66.39 57.38 80.51 62.98 91.89 71.39 74.33 70.78 66.39 54.13 66.39"/><polygon class="cv" points="62.98 91.89 71.39 74.33 73.04 95.65 62.98 91.89"/></g><g><polygon class="bw" points="66.6 112.22 68.1 108.08 69.37 106.42 72.52 110.79 66.6 112.22"/><polygon class="dn" points="64.81 105.09 63.23 111.43 66.6 112.22 64.81 105.09"/><polygon class="bq" points="69.66 103.78 70.93 101.51 73.8 100.3 74.91 101.34 69.66 103.78"/><polygon class="dq" points="73.8 100.3 77.24 96.23 77.94 94.69 76.84 94.9 73.8 100.3"/><polygon class="bw" points="74.91 101.34 73.8 100.3 77.24 96.23 74.91 101.34"/><polygon class="dq" points="66.6 112.22 64.81 105.09 67.21 106.21 68.1 108.08 66.6 112.22"/><polygon class="dn" points="76.29 95.88 77.34 96.01 77.94 94.69 76.84 94.9 76.29 95.88"/><polygon class="dk" points="73.8 100.3 69.97 100.95 67.21 106.21 68.1 108.08 69.37 106.42 69.57 104.55 70.93 101.51 73.8 100.3"/><polygon class="dq" points="65.24 102.5 65.77 99.31 69.05 99 67.21 106.21 65.24 102.5"/><polygon class="bq" points="69.97 100.95 70.29 97.95 69.05 99 67.21 106.21 69.97 100.95"/><polygon class="dc" points="56.12 102.82 57.02 101.79 56.14 100.2 55.29 100.3 55.16 100.3 56.12 102.82"/><polygon class="dc" points="65.54 100.69 68.9 99.58 70.18 99 70.29 97.95 69.05 99 65.77 99.31 65.54 100.69"/><polygon class="dq" points="62.75 101.79 56.12 102.82 57.02 101.79 62.75 101.79"/><polygon class="dk" points="65.24 102.5 62.75 101.79 56.12 102.82 62.56 102.6 65.24 102.5"/><polygon class="dn" points="65.24 102.5 56.12 102.82 61.97 103.14 64.81 105.09 67.21 106.21 65.24 102.5"/></g></g><path class="ar" d="M88.34,62.7h-6.17l.39-10.67-2.7-10.67-10.03-8.87-8.62,5.79-2.31,14.59v8.66l-7.33-.85-5.53,2.54-1.03,9.64,1.8,5.37-2.83,3.17,3.34,16.3,7.97,2.59h-.13l.97,2.53h0l5.85,.32,2.84,1.94-1.58,6.34,3.38,.79,5.91-1.43-3.15-4.37,.21-1.87,.41-.92,4.92-2.28,2.33-5.11,.7-1.54s10.91-2.15,10.91-2.15l2.06-4.96v-17.21l-2.57-7.66Zm-25.59,39.09h-5.72l-.88-1.58,12.9-1.21-3.28,.31-.23,1.38-.3,1.81-2.49-.71Zm11.06-1.5l-3.84,.66,.21-1.95,.11-1.05,2.74-2.3,3.81-.75-3.04,5.39h0Z"/></g><g><g><polygon class="di" points="229.75 89.4 235.97 94.36 240.36 92.53 239.8 86.15 245.57 90.37 248.44 89.17 231.5 65.38 228.62 57.47 193.43 57.06 191.43 65.36 173.84 89.34 187.43 93.14 192.26 87.28 192 94.41 218.24 101.73 230.77 96.52 229.75 89.4"/><path class="al" d="M248.44,89.17l-16.94-23.79-1.63-4.46,6.97-1.2-2.47-4.02-12.8-20.83-.73-6.3,1.18-.47-.45-2.5,1.94,1.9,1.14-.46L209.44,.85l-.1-.17c-.04-.06-12.9,27.74-12.9,27.74l4.95,.73-.79,2.69-.52,1.76-15.53,20.23,1.77,.96,2.82-1.52-1.47,2.24,5.44,2.93-1.67,6.92-17.59,23.98,13.59,3.79,4.83-5.86-.26,7.14,26.24,7.31,12.53-5.21-1.02-7.12,6.22,4.96,4.39-1.82-.18-4.74,2.1,3.95,3.3-1.38,2.88-1.2Z"/><polygon class="ct" points="204.27 97.52 204.27 101.73 211.14 104.31 216.97 101.37 204.27 97.52"/><polygon class="co" points="211.14 104.31 213.93 100.45 204.27 97.52 204.27 101.73 211.14 104.31"/><polygon class="di" points="221.58 34.86 220.65 26.74 208.06 12.66 201.48 28.84 200.08 33.6 184.55 53.83 186.32 54.79 189.13 53.27 187.66 55.51 205.49 65.12 236.85 59.71 221.58 34.86"/><polygon class="de" points="231.5 65.38 207.89 72.36 218.24 101.73 225.22 98.83 230.77 96.52 229.75 89.4 235.97 94.36 240.36 92.53 240.17 87.79 242.27 91.75 245.6 90.35 248.44 89.17 231.5 65.38"/><polygon class="di" points="231.5 65.38 207.89 72.36 205.49 65.12 229.87 60.91 231.5 65.38"/><polygon class="bg" points="193.1 58.44 191.43 65.36 207.89 72.36 205.49 65.12 193.1 58.44"/><polygon class="de" points="211.14 39.64 205.49 65.12 236.85 59.71 221.58 34.86 211.14 39.64"/><polygon class="di" points="221.58 34.86 211.14 39.64 211.14 30.58 214.57 31.09 220.86 28.56 221.58 34.86"/><polygon class="bg" points="211.14 39.64 200.08 33.6 201.48 28.84 210.55 14.04 214.57 31.09 211.14 39.64"/><polygon class="di" points="221.58 25.59 223.53 27.48 224.66 27.03 209.3 .62 196.44 28.42 214.57 31.09 222.03 28.09 221.58 25.59"/><path class="de" d="M224.63,27.03L209.34,.68c-.04-.06,5.23,30.41,5.23,30.41,.02-.01,7.46-3.01,7.46-3.01l-.45-2.5,1.94,1.89,1.11-.45Z"/></g><path class="am" d="M248.45,89.17l-16.94-23.79-.85-2.34-.77-2.12,6.97-1.2-15.26-24.85-.73-6.3,.33-.13,.84-.34-.45-2.5,1.94,1.9,1.13-.46L209.44,.85l-.1-.17c-.04-.06-12.9,27.74-12.9,27.74l2.49,.37,2.46,.37-.79,2.69-.52,1.76-15.53,20.23,1.77,.96,2.82-1.52-.55,.84-.92,1.4,.84,.45,4.6,2.48-1.67,6.92-17.59,23.98,13.59,3.79,4.83-5.86-.26,7.14,12.27,3.42v3.89l6.87,2.58,5.82-2.94,1.27,.35,12.53-5.21-1.02-7.12,6.22,4.96,4.39-1.82-.18-4.74,.27,.51,1.83,3.44,1.61-.67,1.68-.7,2.88-1.2h0Z"/></g><polygon class="bu" points="241.42 56.39 220.63 54.18 213.31 82.52 230.25 100.21 260.06 94.7 278.54 100.21 304.58 93.95 316.27 67.54 300.05 53.58 291.75 21.88 275.53 0 252.89 10.94 247.23 29.81 238.93 41.88 241.42 56.39"/><polygon class="au" points="164.2 105.5 149.12 109.38 112.29 115.18 89.22 108.54 91.79 100.92 139.45 94.38 164.2 105.5"/><g><polygon class="cu" points="155.46 104.51 155.84 105.55 159.51 106.26 164.2 105.5 164.01 102.7 155.46 104.51"/><polygon class="co" points="159.51 106.26 164.01 102.7 155.46 104.51 155.84 105.55 159.51 106.26"/><polygon class="dg" points="172.39 85.33 170.28 72.26 147.02 75.53 146.64 81.56 132.74 95.87 137.3 97.89 141.48 94.81 140.99 99.52 141.94 99.94 144.85 98.49 144.05 100.88 153.64 105.13 175.74 100.35 175.74 97.12 178.6 99.73 183.72 98.63 172.39 85.33"/><polygon class="dg" points="163.7 79.71 161.41 87.55 172.35 85.29 171.17 78.02 163.7 79.71"/><polygon class="bg" points="161.41 87.55 163.7 79.71 161.41 80.23 155.4 72.84 146.93 76.23 146.6 81.51 161.41 87.55"/><polygon class="dg" points="166.69 60.38 166.6 55.14 151.88 57.53 151.83 63.21 141.48 74.72 151.35 77.45 153.6 74.92 153.6 78.07 161.41 80.23 176.45 76.82 166.69 60.38"/><polygon class="dg" points="156.6 58.43 158.97 62.79 166.69 60.38 166.88 57.22 163.85 51.76 156.6 58.43"/><polygon class="bg" points="158.97 62.79 151.83 63.21 151.88 57.53 155.94 58.51 156.6 58.43 158.97 62.79"/><polygon class="de" points="158.97 62.79 161.41 80.23 176.45 76.82 166.69 60.38 158.97 62.79"/><polygon class="de" points="172.35 85.29 161.41 87.55 153.6 105.08 175.74 100.29 175.74 97.12 178.55 99.69 183.67 98.58 172.35 85.29"/><polygon class="dg" points="164.95 54.91 166.63 57.26 170.24 56.83 158.56 38.81 149.02 56.83 155.94 58.51 164.95 57.45 164.95 54.91"/><polygon class="de" points="164.95 54.91 166.63 57.26 170.24 56.83 161.25 42.96 158.56 38.81 155.94 58.51 164.95 57.45 164.95 54.91"/><path class="ai" d="M172.39,85.33l-1.18-7.32,1.79-.41,3.44-.78-9.76-16.44,.2-3.16,3.36-.39-11.68-18.02-9.54,18.02,2.86,.7-.05,5.69-10.35,11.51,5.44,1.51-.33,5.28s-13.85,14.36-13.85,14.36l9.2,4.08,2.91-1.45-.8,2.39,9.59,4.25,1.9-.41,.3,.83,3.68,.71,4.69-.76-.18-2.62,11.72-2.53v-3.23l2.86,2.61,5.12-1.1-11.33-13.3Z"/></g><polygon class="cf" points="197.4 123.79 208.77 113.09 214.73 113.09 225.46 120.18 226.65 123.17 210.48 126.57 207.11 124.74 197.4 123.79"/><polygon class="ci" points="39.52 147.25 53.05 125.93 56.92 135.75 63.08 142.95 39.52 147.25"/><polygon class="cc" points="39.52 125.44 24.43 126.08 37.16 120.4 53.05 125.93 39.52 125.44"/><polygon class="bs" points="24.43 126.08 39.52 147.25 24.43 144.4 16.63 140.31 24.43 126.08"/><polygon class="cj" points="24.43 126.08 40.23 125.47 53.05 125.93 39.52 147.25 24.43 126.08"/><g><polygon class="ci" points="39.52 147.25 53.05 125.93 56.92 135.75 63.08 142.95 39.52 147.25"/><polygon class="cc" points="39.52 125.44 24.43 126.08 37.16 120.4 53.05 125.93 39.52 125.44"/><polygon class="bs" points="24.43 126.08 39.52 147.25 24.43 144.4 16.63 140.31 24.43 126.08"/><polygon class="cj" points="24.43 126.08 40.23 125.47 53.05 125.93 39.52 147.25 24.43 126.08"/></g><polygon class="bd" points="56.92 135.75 53.05 125.94 37.16 120.41 24.43 126.08 16.63 140.32 24.43 144.41 39.52 147.25 63.08 142.96 56.92 135.75"/><polygon class="bs" points="207.11 124.74 210.48 126.57 211.59 116.06 208.77 113.09 197.4 123.79 207.11 124.74"/><polygon class="cc" points="211.59 116.06 225.46 120.18 214.73 113.09 208.77 113.09 211.59 116.06"/><polygon class="ci" points="226.65 123.17 210.48 126.57 211.59 116.06 225.46 120.18 226.65 123.17"/><polygon class="bc" points="225.46 120.18 214.73 113.09 208.77 113.09 197.4 123.79 207.11 124.74 210.48 126.57 226.65 123.17 225.46 120.18"/><g><g><polygon class="dd" points="278.54 100.21 260.52 83.09 233.99 93.72 213.31 82.52 230.25 100.21 260.52 96.14 278.54 100.21"/><polygon class="cq" points="260.52 83.09 220.63 54.18 213.31 82.52 233.99 93.72 260.52 83.09"/><polygon class="du" points="253.98 78.35 300.05 53.58 316.27 67.54 278.54 100.21 253.98 78.35"/><polygon class="cd" points="278.54 100.21 316.27 67.54 304.58 93.95 278.54 100.21"/><polygon class="cd" points="275.53 0 291.75 21.88 281.48 27.06 268.59 8.28 252.89 10.94 275.53 0"/><polygon class="cb" points="281.48 27.06 264.79 72.54 300.05 53.58 291.75 21.88 281.48 27.06"/><polygon class="dd" points="241.42 56.39 253.98 78.35 220.63 54.18 241.42 56.39"/><polygon class="cq" points="238.93 41.88 247.23 29.81 264.79 72.54 253.98 78.35 241.42 56.39 238.93 41.88"/><polygon class="du" points="281.48 27.06 268.59 8.28 247.23 29.81 270.86 56 281.48 27.06"/><polygon class="cw" points="247.23 29.81 268.59 8.28 275.53 0 252.89 10.94 247.23 29.81"/><polygon class="bu" points="270.86 56 247.23 29.81 264.79 72.54 270.86 56"/><polygon class="bw" points="264.48 111.85 259.05 107.8 259.88 115.36 265.65 114.21 264.48 111.85"/><polygon class="dq" points="259.05 107.8 261.72 103.61 258.51 96.41 257.2 104.23 259.05 107.8"/><polygon class="dn" points="259.05 107.8 257.2 104.23 247.37 103.1 255.11 107.06 256.12 114.25 259.88 115.36 259.05 107.8"/><polygon class="dq" points="261.72 103.61 264.02 107.06 274.92 101.61 264.48 111.85 259.05 107.8 261.72 103.61"/><polygon class="dn" points="274.92 101.61 276.42 104.23 278.54 100.21 275.27 99.47 274.92 101.61"/><polygon class="bw" points="276.42 104.23 274.92 101.61 264.48 111.85 276.42 104.23"/><polygon class="dn" points="261.72 103.61 258.23 98.08 258.51 96.41 260.52 96.14 262.96 96.69 261.72 103.61"/><polygon class="dn" points="249.45 100.83 246.09 99.87 245.42 98.17 247.95 97.81 249.45 100.83"/><polygon class="dk" points="264.02 107.06 264.48 111.85 259.05 107.8 261.72 103.61 264.02 107.06"/><polygon class="dq" points="257.2 104.23 249.45 100.83 246.09 99.87 247.37 103.1 257.2 104.23"/></g><path class="ah" d="M300.05,53.58l-8.3-31.7L275.53,0l-22.64,10.94-5.66,18.86-8.3,12.08,2.49,14.51-20.79-2.21-7.32,28.35,16.94,17.69,15.17-2.04s.67,1.7,.67,1.7l1.28,3.22,7.73,3.96,1.01,7.19,3.76,1.11,5.77-1.15-1.17-2.35,11.94-7.62,2.12-4.02-3.28-.74-.35,2.14-10.89,5.45-2.3-3.45,1.23-6.92-2.43-.55-2.01,.27-1.32,7.81-7.75-3.4-1.48-3,12.56-1.69,18.02,4.07,26.03-6.27,11.7-26.41-16.22-13.96Z"/></g><g><polygon class="at" points="143.89 154.24 137.28 157.85 120.61 159.35 109.47 156.14 110.71 152.47 128.89 148.97 143.89 154.24"/><g><g><polygon class="ds" points="123.62 155.99 130.45 154.06 124.83 156.3 123.62 155.99"/><polygon class="dp" points="141.95 148.97 140.79 152.55 135.96 157.02 129.01 158.32 137.28 157.85 143.89 154.24 141.95 148.97"/><polygon class="cn" points="122.09 151.65 134.53 152.13 130.45 154.06 123.62 155.99 120.65 155.23 122.09 151.65"/><polygon class="ds" points="129.01 158.32 130.45 154.06 134.53 152.13 140.79 152.55 135.96 157.02 129.01 158.32"/><polygon class="dj" points="134.53 152.13 141.95 148.97 140.79 152.55 134.53 152.13"/><polygon class="dl" points="141.95 148.97 134.53 152.13 122.09 151.65 128.89 148.97 141.95 148.97"/></g><polygon class="ag" points="141.95 148.97 128.89 148.97 122.09 151.65 120.65 155.23 123.62 155.99 124.83 156.3 130.45 154.06 129.01 158.32 137.28 157.85 143.89 154.24 141.95 148.97"/></g></g><g><polygon class="as" points="164.32 167.38 165.9 170.56 148.97 172.73 137.82 169.53 139.07 165.84 158.64 163.76 164.32 167.38"/><g><g><polygon class="cy" points="151.51 164.89 154.89 167.78 156.13 169.6 165.9 170.56 164.32 167.38 168.93 166.9 171.94 165.52 164.81 164.2 158.64 163.76 151.51 164.89"/><polygon class="ds" points="151.51 164.89 164.32 167.38 156.13 169.6 154.89 167.78 151.51 164.89"/><polygon class="dp" points="164.32 167.38 164.81 164.2 171.94 165.52 168.93 166.9 164.32 167.38"/><polygon class="do" points="164.32 167.38 151.51 164.89 158.64 163.76 164.81 164.2 164.32 167.38"/></g><polygon class="ba" points="171.94 165.52 164.81 164.2 158.64 163.76 151.51 164.89 154.89 167.78 156.13 169.6 165.9 170.56 164.32 167.38 168.93 166.9 171.94 165.52"/></g></g><g><polygon class="ck" points="45.68 164.92 43.74 134.56 52.83 100.59 49.69 134.28 53.12 162.63 45.68 164.92"/><polygon class="cl" points="45.47 164.89 39.71 135.92 20.97 124.99 34.36 136.55 39.06 167.37 45.47 164.89"/><polygon class="cl" points="56.27 158.32 60.03 135.95 69.13 126.31 63.4 137.16 61.87 156.87 56.27 158.32"/><polygon class="ck" points="77.06 147.08 79.56 128.7 80.61 146.23 77.06 147.08"/><polygon class="ck" points="39.61 167.45 34.53 154.06 27.97 143.79 37.21 151.52 43.39 166.7 39.61 167.45"/><polygon class="ck" points="55.95 158.8 55.19 140.87 50.07 125.82 58.61 138.26 61.79 158.81 55.95 158.8"/><polygon class="ck" points="71.32 151.65 69.95 142.67 68.32 146.78 68.39 140.65 72.06 140.23 74.5 150.02 71.32 151.65"/><polygon class="cl" points="69.95 142.67 68.39 140.65 68.32 146.78 69.95 142.67"/></g><polygon class="bm" points="235.81 136.23 235.57 131.83 208.49 130 184.26 132.87 182.33 140.67 210.62 135.75 235.81 136.23"/><polygon class="ch" points="184.26 132.87 182.33 140.67 109.15 138.34 104.13 131.83 184.26 132.87"/><polygon class="cg" points="109.15 138.34 104.13 131.83 38.22 168.24 59.62 172.69 109.15 138.34"/><polygon class="bl" points="235.57 131.83 235.81 136.23 281.48 125.01 311.27 128.7 283.11 121.95 235.57 131.83"/><polygon class="bf" points="283.11 121.95 235.39 131.82 208.49 130 184.26 132.87 104.13 131.83 38.22 168.24 59.62 172.69 109.15 138.34 182.33 140.67 210.62 135.75 235.81 136.23 281.48 125.01 311.27 128.7 283.11 121.95"/></g><g class="bb"><g><polygon class="af" points="0 136.99 26.41 195.91 45.27 203.77 50.93 215.78 65.46 215.47 79.99 249.43 107.53 258.48 136.2 255.29 152.43 264.14 224.87 258.48 231.28 247.16 254.3 239.74 275.05 191.7 288.63 187.93 311.27 128.7 0 136.99"/><polygon class="af" points="0 136.99 26.41 195.91 45.27 203.77 50.93 215.78 65.46 215.47 79.99 249.43 107.53 258.48 136.2 255.29 152.43 264.14 224.87 258.48 231.28 247.16 254.3 239.74 275.05 191.7 288.63 187.93 311.27 128.7 0 136.99"/></g><g><polygon class="af" points="115.81 279.12 148.7 270.43 179.3 285.13 171.01 324.9 164.43 342.28 150.7 339.6 139.55 319.22 121.81 308.52 115.81 279.12"/><polygon class="af" points="115.81 279.12 148.7 270.43 179.3 285.13 171.01 324.9 164.43 342.28 150.7 339.6 139.55 319.22 121.81 308.52 115.81 279.12"/></g><g><polygon class="af" points="210.4 300.23 182.37 321.18 191.58 281.25 198.69 269.67 220.99 271.13 212.28 285.66 210.4 300.23"/><polygon class="af" points="210.4 300.23 182.37 321.18 191.58 281.25 198.69 269.67 220.99 271.13 212.28 285.66 210.4 300.23"/></g><g><polygon class="af" points="193.6 336.45 184.26 341.6 184.26 350.62 188.93 355.77 196.5 346.11 193.6 336.45"/><polygon class="af" points="193.6 336.45 184.26 341.6 184.26 350.62 188.93 355.77 196.5 346.11 193.6 336.45"/></g><g><polygon class="af" points="66.03 203.6 50.93 215.78 45.27 203.77 26.41 195.91 38.22 168.24 59.62 172.69 66.03 203.6"/><polygon class="af" points="66.03 203.6 50.93 215.78 45.27 203.77 26.41 195.91 38.22 168.24 59.62 172.69 66.03 203.6"/></g><g><polygon class="af" points="152.43 264.14 135.07 243.01 107.53 258.48 136.2 255.29 152.43 264.14"/><polygon class="af" points="152.43 264.14 135.07 243.01 107.53 258.48 136.2 255.29 152.43 264.14"/></g><g><polygon class="af" points="50.93 215.78 65.46 215.47 79.99 249.43 92.21 238.11 75.91 204.92 66.03 203.6 50.93 215.78"/><polygon class="af" points="50.93 215.78 65.46 215.47 79.99 249.43 92.21 238.11 75.91 204.92 66.03 203.6 50.93 215.78"/></g><g><polygon class="af" points="79.99 249.43 92.21 238.11 135.07 243.01 107.53 258.48 79.99 249.43"/><polygon class="af" points="79.99 249.43 92.21 238.11 135.07 243.01 107.53 258.48 79.99 249.43"/></g><polygon class="af" points="0 136.99 26.41 195.91 45.27 203.77 50.93 215.78 65.46 215.47 79.99 249.43 107.53 258.48 136.2 255.29 152.43 264.14 224.87 258.48 231.28 247.16 254.3 239.74 275.05 191.7 288.63 187.93 311.27 128.7 0 136.99"/><g><polygon class="af" points="150.7 339.6 179.3 285.13 171.01 324.9 164.43 342.28 150.7 339.6"/><polygon class="af" points="150.7 339.6 179.3 285.13 171.01 324.9 164.43 342.28 150.7 339.6"/></g><g><polygon class="af" points="139.55 319.22 148.7 270.43 179.3 285.13 150.7 339.6 139.55 319.22"/><polygon class="af" points="139.55 319.22 148.7 270.43 179.3 285.13 150.7 339.6 139.55 319.22"/></g><g><polygon class="af" points="121.81 308.52 148.7 270.43 139.55 319.22 121.81 308.52"/><polygon class="af" points="121.81 308.52 148.7 270.43 139.55 319.22 121.81 308.52"/></g><polygon class="af" points="148.7 270.43 115.81 279.12 121.81 308.52 139.55 319.22 150.7 339.6 164.43 342.28 171.01 324.9 179.3 285.13 148.7 270.43"/><g><polygon class="af" points="182.37 321.18 212.28 285.66 210.4 300.23 182.37 321.18"/><polygon class="af" points="182.37 321.18 212.28 285.66 210.4 300.23 182.37 321.18"/></g><g><polygon class="af" points="220.99 271.13 191.58 281.25 182.37 321.18 212.28 285.66 220.99 271.13"/><polygon class="af" points="220.99 271.13 191.58 281.25 182.37 321.18 212.28 285.66 220.99 271.13"/></g><polygon class="af" points="198.69 269.67 191.58 281.25 182.37 321.18 210.4 300.23 212.28 285.66 220.99 271.13 198.69 269.67"/><g><polygon class="af" points="193.6 336.45 188.93 355.77 196.5 346.11 193.6 336.45"/><polygon class="af" points="193.6 336.45 188.93 355.77 196.5 346.11 193.6 336.45"/></g><polygon class="af" points="193.6 336.45 184.26 341.6 184.26 350.62 188.93 355.77 196.5 346.11 193.6 336.45"/><polygon class="af" points="61.49 171.39 59.62 172.69 66.03 203.6 75.91 204.92 92.21 238.11 135.07 243.01 152.43 264.14 224.87 258.48 231.28 247.16 254.3 239.74 275.05 191.7 288.63 187.93 308.91 131.83 61.49 171.39"/><polygon class="af" points="106.44 181.99 135.07 243.01 92.21 238.11 75.91 204.92 106.44 181.99"/><polygon class="af" points="106.44 181.99 59.62 172.69 66.03 203.6 75.91 204.92 106.44 181.99"/><polygon class="af" points="231.28 247.16 275.05 191.7 254.3 239.74 231.28 247.16"/><polygon class="af" points="275.05 191.7 243.74 175.6 289.2 158.07 288.63 187.93 275.05 191.7"/><polygon class="af" points="288.63 187.93 311.27 128.7 289.2 158.07 288.63 187.93"/><polygon class="af" points="135.07 243.01 182.37 227.78 224.87 258.48 152.43 264.14 135.07 243.01"/><polygon class="af" points="182.37 227.78 106.44 181.99 135.07 243.01 182.37 227.78"/><polygon class="af" points="182.37 227.78 275.05 191.7 224.87 258.48 182.37 227.78"/><polygon class="af" points="275.05 191.7 243.74 175.6 176.72 184.59 275.05 191.7"/><polygon class="af" points="182.37 227.78 176.72 184.59 106.44 181.99 182.37 227.78"/><polygon class="af" points="275.05 191.7 176.72 184.59 182.37 227.78 275.05 191.7"/><polygon class="af" points="289.2 158.07 243.74 175.6 176.72 184.59 106.44 181.99 59.62 172.69 66.03 203.6 75.91 204.93 92.21 238.11 135.07 243.01 152.43 264.14 224.87 258.48 234.04 246.27 254.3 239.74 275.05 191.7 288.63 187.93 311.27 128.7 289.2 158.07"/><polygon class="af" points="274.02 97.58 233.99 86.21 160.35 81.15 85.72 86.29 47.75 93.81 7.95 113.49 0 136.99 38.22 168.24 106.44 181.99 176.72 184.59 243.74 175.6 289.2 158.07 311.27 128.7 274.02 97.58"/><polygon class="af" points="104.13 181.99 182.33 140.67 209.78 135.75 243.74 175.6 176.72 184.59 104.13 181.99"/><polygon class="af" points="209.78 135.75 235.81 136.23 281.48 125.01 311.27 128.7 289.2 158.07 243.74 175.6 209.78 135.75"/><polygon class="af" points="184.26 132.87 120.97 115.36 85.72 86.29 160.35 81.15 233.99 86.21 208.49 130 184.26 132.87"/><polygon class="af" points="184.26 132.87 120.97 115.36 85.72 86.29 47.75 93.81 7.95 113.49 0 136.99 104.13 131.83 184.26 132.87"/><polygon class="af" points="38.22 168.24 104.13 131.83 0 136.99 38.22 168.24"/><polygon class="af" points="208.49 130 233.99 86.21 274.02 97.58 311.27 128.7 283.11 121.95 235.57 131.83 208.49 130"/><polygon class="af" points="274.02 97.58 233.99 86.21 160.35 81.15 85.72 86.29 47.75 93.81 7.95 113.49 0 136.99 38.22 168.24 104.13 131.83 184.26 132.87 208.49 130 235.57 131.83 283.11 121.95 311.27 128.7 274.02 97.58"/><polygon class="af" points="104.13 181.99 182.33 140.67 109.15 138.34 59.62 172.69 104.13 181.99"/><polygon class="af" points="281.48 125.01 235.81 136.23 209.78 135.75 182.33 140.67 109.15 138.34 59.62 172.69 104.13 181.99 176.72 184.59 243.74 175.6 289.2 158.07 311.27 128.7 281.48 125.01"/><polygon class="af" points="82.79 117.82 65.27 121.95 28.45 127.75 5.37 121.11 7.95 113.49 19.76 107.65 82.79 117.82"/><polygon class="af" points="226.86 123.32 210.48 126.57 189.64 130.12 173.84 125.57 175.6 120.35 196.49 118.42 226.86 123.32"/><polygon class="af" points="63.08 142.97 47.67 146.6 17.54 151.34 0 136.99 7.63 134.02 63.08 142.97"/><polygon class="af" points="217.44 101.04 211.14 104.31 163.1 110.96 140.03 104.32 142.61 96.71 154.42 90.86 217.44 101.04"/><polygon class="af" points="265.65 114.21 243.93 117.62 197.64 124.24 168.63 116.67 171.87 107.97 186.72 101.31 265.65 114.21"/><g><g><g><polygon class="af" points="47.31 97.7 55.29 100.3 69.05 99 73.04 95.65 88.85 92.54 90.91 87.57 90.91 70.36 88.33 62.7 82.16 62.7 82.55 52.03 79.85 41.36 69.82 32.48 61.2 38.27 58.89 52.87 58.89 61.53 51.56 60.67 46.03 63.22 45 72.86 46.8 78.23 43.97 81.4 47.31 97.7"/><polygon class="af" points="43.97 81.4 55.66 96.68 69.05 99 55.29 100.3 47.31 97.7 43.97 81.4"/><polygon class="af" points="82.16 62.7 77.45 69.12 88.33 62.7 82.16 62.7"/><polygon class="af" points="58.89 61.53 63.43 52.89 61.2 38.27 58.89 52.87 58.89 61.53"/><polygon class="af" points="77.45 69.12 70.78 66.39 73.04 95.65 88.85 92.54 77.45 69.12"/><polygon class="af" points="77.45 69.12 88.33 62.7 90.91 70.36 90.91 87.57 85.21 69.12 77.45 69.12"/><polygon class="af" points="80.94 52.12 73.88 42.09 69.82 32.48 79.85 41.36 82.55 52.03 80.94 52.12"/><polygon class="af" points="80.94 52.12 77.45 69.12 82.16 62.7 82.55 52.03 80.94 52.12"/><polygon class="af" points="77.45 69.12 85.21 69.12 90.91 87.57 88.85 92.54 77.45 69.12"/><polygon class="af" points="58.89 61.53 77.45 69.12 71.92 52.63 63.43 52.89 58.89 61.53"/><polygon class="af" points="71.92 52.63 73.88 42.09 69.82 32.48 61.2 38.27 63.43 52.89 71.92 52.63"/><polygon class="af" points="71.92 52.63 73.88 42.09 80.94 52.12 77.45 69.12 71.92 52.63"/><polygon class="af" points="43.97 81.4 57.38 80.83 62.98 91.89 73.04 95.65 69.05 99 55.66 96.68 43.97 81.4"/><polygon class="af" points="43.97 81.4 57.38 80.83 46.8 78.23 43.97 81.4"/><polygon class="af" points="57.38 80.83 46.03 63.22 45 72.86 46.8 78.23 57.38 80.83"/><polygon class="af" points="46.03 63.22 54.13 66.39 70.78 66.39 58.89 61.53 51.56 60.67 46.03 63.22"/><polygon class="af" points="54.13 66.39 57.38 80.83 46.03 63.22 54.13 66.39"/><polygon class="af" points="54.13 66.39 57.38 80.51 62.98 91.89 71.39 74.33 70.78 66.39 54.13 66.39"/><polygon class="af" points="62.98 91.89 71.39 74.33 73.04 95.65 62.98 91.89"/></g><g><polygon class="af" points="66.6 112.22 68.1 108.08 69.37 106.42 72.52 110.79 66.6 112.22"/><polygon class="af" points="64.81 105.09 63.23 111.43 66.6 112.22 64.81 105.09"/><polygon class="af" points="69.66 103.78 70.93 101.51 73.8 100.3 74.91 101.34 69.66 103.78"/><polygon class="af" points="73.8 100.3 77.24 96.23 77.94 94.69 76.84 94.9 73.8 100.3"/><polygon class="af" points="74.91 101.34 73.8 100.3 77.24 96.23 74.91 101.34"/><polygon class="af" points="66.6 112.22 64.81 105.09 67.21 106.21 68.1 108.08 66.6 112.22"/><polygon class="af" points="76.29 95.88 77.34 96.01 77.94 94.69 76.84 94.9 76.29 95.88"/><polygon class="af" points="73.8 100.3 69.97 100.95 67.21 106.21 68.1 108.08 69.37 106.42 69.57 104.55 70.93 101.51 73.8 100.3"/><polygon class="af" points="65.24 102.5 65.77 99.31 69.05 99 67.21 106.21 65.24 102.5"/><polygon class="af" points="69.97 100.95 70.29 97.95 69.05 99 67.21 106.21 69.97 100.95"/><polygon class="af" points="56.12 102.82 57.02 101.79 56.14 100.2 55.29 100.3 55.16 100.3 56.12 102.82"/><polygon class="af" points="65.54 100.69 68.9 99.58 70.18 99 70.29 97.95 69.05 99 65.77 99.31 65.54 100.69"/><polygon class="af" points="62.75 101.79 56.12 102.82 57.02 101.79 62.75 101.79"/><polygon class="af" points="65.24 102.5 62.75 101.79 56.12 102.82 62.56 102.6 65.24 102.5"/><polygon class="af" points="65.24 102.5 56.12 102.82 61.97 103.14 64.81 105.09 67.21 106.21 65.24 102.5"/></g></g><path class="af" d="M88.34,62.7h-6.17l.39-10.67-2.7-10.67-10.03-8.87-8.62,5.79-2.31,14.59v8.66l-7.33-.85-5.53,2.54-1.03,9.64,1.8,5.37-2.83,3.17,3.34,16.3,7.97,2.59h-.13l.97,2.53h0l5.85,.32,2.84,1.94-1.58,6.34,3.38,.79,5.91-1.43-3.15-4.37,.21-1.87,.41-.92,4.92-2.28,2.33-5.11,.7-1.54s10.91-2.15,10.91-2.15l2.06-4.96v-17.21l-2.57-7.66Zm-25.59,39.09h-5.72l-.88-1.58,12.9-1.21-3.28,.31-.23,1.38-.3,1.81-2.49-.71Zm11.06-1.5l-3.84,.66,.21-1.95,.11-1.05,2.74-2.3,3.81-.75-3.04,5.39h0Z"/></g><g><g><polygon class="af" points="229.75 89.4 235.97 94.36 240.36 92.53 239.8 86.15 245.57 90.37 248.44 89.17 231.5 65.38 228.62 57.47 193.43 57.06 191.43 65.36 173.84 89.34 187.43 93.14 192.26 87.28 192 94.41 218.24 101.73 230.77 96.52 229.75 89.4"/><path class="af" d="M248.44,89.17l-16.94-23.79-1.63-4.46,6.97-1.2-2.47-4.02-12.8-20.83-.73-6.3,1.18-.47-.45-2.5,1.94,1.9,1.14-.46L209.44,.85l-.1-.17c-.04-.06-12.9,27.74-12.9,27.74l4.95,.73-.79,2.69-.52,1.76-15.53,20.23,1.77,.96,2.82-1.52-1.47,2.24,5.44,2.93-1.67,6.92-17.59,23.98,13.59,3.79,4.83-5.86-.26,7.14,26.24,7.31,12.53-5.21-1.02-7.12,6.22,4.96,4.39-1.82-.18-4.74,2.1,3.95,3.3-1.38,2.88-1.2Z"/><polygon class="af" points="204.27 97.52 204.27 101.73 211.14 104.31 216.97 101.37 204.27 97.52"/><polygon class="af" points="211.14 104.31 213.93 100.45 204.27 97.52 204.27 101.73 211.14 104.31"/><polygon class="af" points="221.58 34.86 220.65 26.74 208.06 12.66 201.48 28.84 200.08 33.6 184.55 53.83 186.32 54.79 189.13 53.27 187.66 55.51 205.49 65.12 236.85 59.71 221.58 34.86"/><polygon class="af" points="231.5 65.38 207.89 72.36 218.24 101.73 225.22 98.83 230.77 96.52 229.75 89.4 235.97 94.36 240.36 92.53 240.17 87.79 242.27 91.75 245.6 90.35 248.44 89.17 231.5 65.38"/><polygon class="af" points="231.5 65.38 207.89 72.36 205.49 65.12 229.87 60.91 231.5 65.38"/><polygon class="af" points="193.1 58.44 191.43 65.36 207.89 72.36 205.49 65.12 193.1 58.44"/><polygon class="af" points="211.14 39.64 205.49 65.12 236.85 59.71 221.58 34.86 211.14 39.64"/><polygon class="af" points="221.58 34.86 211.14 39.64 211.14 30.58 214.57 31.09 220.86 28.56 221.58 34.86"/><polygon class="af" points="211.14 39.64 200.08 33.6 201.48 28.84 210.55 14.04 214.57 31.09 211.14 39.64"/><polygon class="af" points="221.58 25.59 223.53 27.48 224.66 27.03 209.3 .62 196.44 28.42 214.57 31.09 222.03 28.09 221.58 25.59"/><path class="af" d="M224.63,27.03L209.34,.68c-.04-.06,5.23,30.41,5.23,30.41,.02-.01,7.46-3.01,7.46-3.01l-.45-2.5,1.94,1.89,1.11-.45Z"/></g><path class="af" d="M248.45,89.17l-16.94-23.79-.85-2.34-.77-2.12,6.97-1.2-15.26-24.85-.73-6.3,.33-.13,.84-.34-.45-2.5,1.94,1.9,1.13-.46L209.44,.85l-.1-.17c-.04-.06-12.9,27.74-12.9,27.74l2.49,.37,2.46,.37-.79,2.69-.52,1.76-15.53,20.23,1.77,.96,2.82-1.52-.55,.84-.92,1.4,.84,.45,4.6,2.48-1.67,6.92-17.59,23.98,13.59,3.79,4.83-5.86-.26,7.14,12.27,3.42v3.89l6.87,2.58,5.82-2.94,1.27,.35,12.53-5.21-1.02-7.12,6.22,4.96,4.39-1.82-.18-4.74,.27,.51,1.83,3.44,1.61-.67,1.68-.7,2.88-1.2h0Z"/></g><polygon class="af" points="241.42 56.39 220.63 54.18 213.31 82.52 230.25 100.21 260.06 94.7 278.54 100.21 304.58 93.95 316.27 67.54 300.05 53.58 291.75 21.88 275.53 0 252.89 10.94 247.23 29.81 238.93 41.88 241.42 56.39"/><polygon class="af" points="164.2 105.5 149.12 109.38 112.29 115.18 89.22 108.54 91.79 100.92 139.45 94.38 164.2 105.5"/><g><polygon class="af" points="155.46 104.51 155.84 105.55 159.51 106.26 164.2 105.5 164.01 102.7 155.46 104.51"/><polygon class="af" points="159.51 106.26 164.01 102.7 155.46 104.51 155.84 105.55 159.51 106.26"/><polygon class="af" points="172.39 85.33 170.28 72.26 147.02 75.53 146.64 81.56 132.74 95.87 137.3 97.89 141.48 94.81 140.99 99.52 141.94 99.94 144.85 98.49 144.05 100.88 153.64 105.13 175.74 100.35 175.74 97.12 178.6 99.73 183.72 98.63 172.39 85.33"/><polygon class="af" points="163.7 79.71 161.41 87.55 172.35 85.29 171.17 78.02 163.7 79.71"/><polygon class="af" points="161.41 87.55 163.7 79.71 161.41 80.23 155.4 72.84 146.93 76.23 146.6 81.51 161.41 87.55"/><polygon class="af" points="166.69 60.38 166.6 55.14 151.88 57.53 151.83 63.21 141.48 74.72 151.35 77.45 153.6 74.92 153.6 78.07 161.41 80.23 176.45 76.82 166.69 60.38"/><polygon class="af" points="156.6 58.43 158.97 62.79 166.69 60.38 166.88 57.22 163.85 51.76 156.6 58.43"/><polygon class="af" points="158.97 62.79 151.83 63.21 151.88 57.53 155.94 58.51 156.6 58.43 158.97 62.79"/><polygon class="af" points="158.97 62.79 161.41 80.23 176.45 76.82 166.69 60.38 158.97 62.79"/><polygon class="af" points="172.35 85.29 161.41 87.55 153.6 105.08 175.74 100.29 175.74 97.12 178.55 99.69 183.67 98.58 172.35 85.29"/><polygon class="af" points="164.95 54.91 166.63 57.26 170.24 56.83 158.56 38.81 149.02 56.83 155.94 58.51 164.95 57.45 164.95 54.91"/><polygon class="af" points="164.95 54.91 166.63 57.26 170.24 56.83 161.25 42.96 158.56 38.81 155.94 58.51 164.95 57.45 164.95 54.91"/><path class="af" d="M172.39,85.33l-1.18-7.32,1.79-.41,3.44-.78-9.76-16.44,.2-3.16,3.36-.39-11.68-18.02-9.54,18.02,2.86,.7-.05,5.69-10.35,11.51,5.44,1.51-.33,5.28s-13.85,14.36-13.85,14.36l9.2,4.08,2.91-1.45-.8,2.39,9.59,4.25,1.9-.41,.3,.83,3.68,.71,4.69-.76-.18-2.62,11.72-2.53v-3.23l2.86,2.61,5.12-1.1-11.33-13.3Z"/></g><polygon class="af" points="197.4 123.79 208.77 113.09 214.73 113.09 225.46 120.18 226.65 123.17 210.48 126.57 207.11 124.74 197.4 123.79"/><polygon class="af" points="39.52 147.25 53.05 125.93 56.92 135.75 63.08 142.95 39.52 147.25"/><polygon class="af" points="39.52 125.44 24.43 126.08 37.16 120.4 53.05 125.93 39.52 125.44"/><polygon class="af" points="24.43 126.08 39.52 147.25 24.43 144.4 16.63 140.31 24.43 126.08"/><polygon class="af" points="24.43 126.08 40.23 125.47 53.05 125.93 39.52 147.25 24.43 126.08"/><g><polygon class="af" points="39.52 147.25 53.05 125.93 56.92 135.75 63.08 142.95 39.52 147.25"/><polygon class="af" points="39.52 125.44 24.43 126.08 37.16 120.4 53.05 125.93 39.52 125.44"/><polygon class="af" points="24.43 126.08 39.52 147.25 24.43 144.4 16.63 140.31 24.43 126.08"/><polygon class="af" points="24.43 126.08 40.23 125.47 53.05 125.93 39.52 147.25 24.43 126.08"/></g><polygon class="af" points="56.92 135.75 53.05 125.94 37.16 120.41 24.43 126.08 16.63 140.32 24.43 144.41 39.52 147.25 63.08 142.96 56.92 135.75"/><polygon class="af" points="207.11 124.74 210.48 126.57 211.59 116.06 208.77 113.09 197.4 123.79 207.11 124.74"/><polygon class="af" points="211.59 116.06 225.46 120.18 214.73 113.09 208.77 113.09 211.59 116.06"/><polygon class="af" points="226.65 123.17 210.48 126.57 211.59 116.06 225.46 120.18 226.65 123.17"/><polygon class="af" points="225.46 120.18 214.73 113.09 208.77 113.09 197.4 123.79 207.11 124.74 210.48 126.57 226.65 123.17 225.46 120.18"/><g><g><polygon class="af" points="278.54 100.21 260.52 83.09 233.99 93.72 213.31 82.52 230.25 100.21 260.52 96.14 278.54 100.21"/><polygon class="af" points="260.52 83.09 220.63 54.18 213.31 82.52 233.99 93.72 260.52 83.09"/><polygon class="af" points="253.98 78.35 300.05 53.58 316.27 67.54 278.54 100.21 253.98 78.35"/><polygon class="af" points="278.54 100.21 316.27 67.54 304.58 93.95 278.54 100.21"/><polygon class="af" points="275.53 0 291.75 21.88 281.48 27.06 268.59 8.28 252.89 10.94 275.53 0"/><polygon class="af" points="281.48 27.06 264.79 72.54 300.05 53.58 291.75 21.88 281.48 27.06"/><polygon class="af" points="241.42 56.39 253.98 78.35 220.63 54.18 241.42 56.39"/><polygon class="af" points="238.93 41.88 247.23 29.81 264.79 72.54 253.98 78.35 241.42 56.39 238.93 41.88"/><polygon class="af" points="281.48 27.06 268.59 8.28 247.23 29.81 270.86 56 281.48 27.06"/><polygon class="af" points="247.23 29.81 268.59 8.28 275.53 0 252.89 10.94 247.23 29.81"/><polygon class="af" points="270.86 56 247.23 29.81 264.79 72.54 270.86 56"/><polygon class="af" points="264.48 111.85 259.05 107.8 259.88 115.36 265.65 114.21 264.48 111.85"/><polygon class="af" points="259.05 107.8 261.72 103.61 258.51 96.41 257.2 104.23 259.05 107.8"/><polygon class="af" points="259.05 107.8 257.2 104.23 247.37 103.1 255.11 107.06 256.12 114.25 259.88 115.36 259.05 107.8"/><polygon class="af" points="261.72 103.61 264.02 107.06 274.92 101.61 264.48 111.85 259.05 107.8 261.72 103.61"/><polygon class="af" points="274.92 101.61 276.42 104.23 278.54 100.21 275.27 99.47 274.92 101.61"/><polygon class="af" points="276.42 104.23 274.92 101.61 264.48 111.85 276.42 104.23"/><polygon class="af" points="261.72 103.61 258.23 98.08 258.51 96.41 260.52 96.14 262.96 96.69 261.72 103.61"/><polygon class="af" points="249.45 100.83 246.09 99.87 245.42 98.17 247.95 97.81 249.45 100.83"/><polygon class="af" points="264.02 107.06 264.48 111.85 259.05 107.8 261.72 103.61 264.02 107.06"/><polygon class="af" points="257.2 104.23 249.45 100.83 246.09 99.87 247.37 103.1 257.2 104.23"/></g><path class="af" d="M300.05,53.58l-8.3-31.7L275.53,0l-22.64,10.94-5.66,18.86-8.3,12.08,2.49,14.51-20.79-2.21-7.32,28.35,16.94,17.69,15.17-2.04s.67,1.7,.67,1.7l1.28,3.22,7.73,3.96,1.01,7.19,3.76,1.11,5.77-1.15-1.17-2.35,11.94-7.62,2.12-4.02-3.28-.74-.35,2.14-10.89,5.45-2.3-3.45,1.23-6.92-2.43-.55-2.01,.27-1.32,7.81-7.75-3.4-1.48-3,12.56-1.69,18.02,4.07,26.03-6.27,11.7-26.41-16.22-13.96Z"/></g><g><polygon class="af" points="143.89 154.24 137.28 157.85 120.61 159.35 109.47 156.14 110.71 152.47 128.89 148.97 143.89 154.24"/><g><g><g><polygon class="af" points="123.62 155.99 130.45 154.06 124.83 156.3 123.62 155.99"/><polygon class="af" points="123.62 155.99 130.45 154.06 124.83 156.3 123.62 155.99"/></g><polygon class="af" points="141.95 148.97 140.79 152.55 135.96 157.02 129.01 158.32 137.28 157.85 143.89 154.24 141.95 148.97"/><g><polygon class="af" points="122.09 151.65 134.53 152.13 130.45 154.06 123.62 155.99 120.65 155.23 122.09 151.65"/><polygon class="af" points="122.09 151.65 134.53 152.13 130.45 154.06 123.62 155.99 120.65 155.23 122.09 151.65"/></g><g><polygon class="af" points="129.01 158.32 130.45 154.06 134.53 152.13 140.79 152.55 135.96 157.02 129.01 158.32"/><polygon class="af" points="129.01 158.32 130.45 154.06 134.53 152.13 140.79 152.55 135.96 157.02 129.01 158.32"/></g><g><polygon class="af" points="134.53 152.13 141.95 148.97 140.79 152.55 134.53 152.13"/><polygon class="af" points="134.53 152.13 141.95 148.97 140.79 152.55 134.53 152.13"/></g><g><polygon class="af" points="141.95 148.97 134.53 152.13 122.09 151.65 128.89 148.97 141.95 148.97"/><polygon class="af" points="141.95 148.97 134.53 152.13 122.09 151.65 128.89 148.97 141.95 148.97"/></g></g><polygon class="af" points="141.95 148.97 128.89 148.97 122.09 151.65 120.65 155.23 123.62 155.99 124.83 156.3 130.45 154.06 129.01 158.32 137.28 157.85 143.89 154.24 141.95 148.97"/></g></g><g><polygon class="af" points="164.32 167.38 165.9 170.56 148.97 172.73 137.82 169.53 139.07 165.84 158.64 163.76 164.32 167.38"/><g><g><g><polygon class="af" points="151.51 164.89 154.89 167.78 156.13 169.6 165.9 170.56 164.32 167.38 168.93 166.9 171.94 165.52 164.81 164.2 158.64 163.76 151.51 164.89"/><polygon class="af" points="151.51 164.89 154.89 167.78 156.13 169.6 165.9 170.56 164.32 167.38 168.93 166.9 171.94 165.52 164.81 164.2 158.64 163.76 151.51 164.89"/></g><g><polygon class="af" points="151.51 164.89 164.32 167.38 156.13 169.6 154.89 167.78 151.51 164.89"/><polygon class="af" points="151.51 164.89 164.32 167.38 156.13 169.6 154.89 167.78 151.51 164.89"/></g><polygon class="af" points="164.32 167.38 164.81 164.2 171.94 165.52 168.93 166.9 164.32 167.38"/><g><polygon class="af" points="164.32 167.38 151.51 164.89 158.64 163.76 164.81 164.2 164.32 167.38"/><polygon class="af" points="164.32 167.38 151.51 164.89 158.64 163.76 164.81 164.2 164.32 167.38"/></g></g><polygon class="af" points="171.94 165.52 164.81 164.2 158.64 163.76 151.51 164.89 154.89 167.78 156.13 169.6 165.9 170.56 164.32 167.38 168.93 166.9 171.94 165.52"/></g></g><g><polygon class="af" points="45.68 164.92 43.74 134.56 52.83 100.59 49.69 134.28 53.12 162.63 45.68 164.92"/><polygon class="af" points="45.47 164.89 39.71 135.92 20.97 124.99 34.36 136.55 39.06 167.37 45.47 164.89"/><polygon class="af" points="56.27 158.32 60.03 135.95 69.13 126.31 63.4 137.16 61.87 156.87 56.27 158.32"/><polygon class="af" points="77.06 147.08 79.56 128.7 80.61 146.23 77.06 147.08"/><polygon class="af" points="39.61 167.45 34.53 154.06 27.97 143.79 37.21 151.52 43.39 166.7 39.61 167.45"/><polygon class="af" points="55.95 158.8 55.19 140.87 50.07 125.82 58.61 138.26 61.79 158.81 55.95 158.8"/><polygon class="af" points="71.32 151.65 69.95 142.67 68.32 146.78 68.39 140.65 72.06 140.23 74.5 150.02 71.32 151.65"/><polygon class="af" points="69.95 142.67 68.39 140.65 68.32 146.78 69.95 142.67"/></g><polygon class="af" points="235.81 136.23 235.57 131.83 208.49 130 184.26 132.87 182.33 140.67 210.62 135.75 235.81 136.23"/><polygon class="af" points="184.26 132.87 182.33 140.67 109.15 138.34 104.13 131.83 184.26 132.87"/><polygon class="af" points="109.15 138.34 104.13 131.83 38.22 168.24 59.62 172.69 109.15 138.34"/><polygon class="af" points="235.57 131.83 235.81 136.23 281.48 125.01 311.27 128.7 283.11 121.95 235.57 131.83"/><polygon class="af" points="283.11 121.95 235.39 131.82 208.49 130 184.26 132.87 104.13 131.83 38.22 168.24 59.62 172.69 109.15 138.34 182.33 140.67 210.62 135.75 235.81 136.23 281.48 125.01 311.27 128.7 283.11 121.95"/></g><g class="bh"><g><polygon class="ae" points="0 136.99 26.41 195.91 45.27 203.77 50.93 215.78 65.46 215.47 79.99 249.43 107.53 258.48 136.2 255.29 152.43 264.14 224.87 258.48 231.28 247.16 254.3 239.74 275.05 191.7 288.63 187.93 311.27 128.7 0 136.99"/><polygon class="ae" points="0 136.99 26.41 195.91 45.27 203.77 50.93 215.78 65.46 215.47 79.99 249.43 107.53 258.48 136.2 255.29 152.43 264.14 224.87 258.48 231.28 247.16 254.3 239.74 275.05 191.7 288.63 187.93 311.27 128.7 0 136.99"/></g><g><polygon class="ae" points="115.81 279.12 148.7 270.43 179.3 285.13 171.01 324.9 164.43 342.28 150.7 339.6 139.55 319.22 121.81 308.52 115.81 279.12"/><polygon class="ae" points="115.81 279.12 148.7 270.43 179.3 285.13 171.01 324.9 164.43 342.28 150.7 339.6 139.55 319.22 121.81 308.52 115.81 279.12"/></g><g><polygon class="ae" points="210.4 300.23 182.37 321.18 191.58 281.25 198.69 269.67 220.99 271.13 212.28 285.66 210.4 300.23"/><polygon class="ae" points="210.4 300.23 182.37 321.18 191.58 281.25 198.69 269.67 220.99 271.13 212.28 285.66 210.4 300.23"/></g><g><polygon class="ae" points="193.6 336.45 184.26 341.6 184.26 350.62 188.93 355.77 196.5 346.11 193.6 336.45"/><polygon class="ae" points="193.6 336.45 184.26 341.6 184.26 350.62 188.93 355.77 196.5 346.11 193.6 336.45"/></g><g><polygon class="ae" points="66.03 203.6 50.93 215.78 45.27 203.77 26.41 195.91 38.22 168.24 59.62 172.69 66.03 203.6"/><polygon class="ae" points="66.03 203.6 50.93 215.78 45.27 203.77 26.41 195.91 38.22 168.24 59.62 172.69 66.03 203.6"/></g><g><polygon class="ae" points="152.43 264.14 135.07 243.01 107.53 258.48 136.2 255.29 152.43 264.14"/><polygon class="ae" points="152.43 264.14 135.07 243.01 107.53 258.48 136.2 255.29 152.43 264.14"/></g><g><polygon class="ae" points="50.93 215.78 65.46 215.47 79.99 249.43 92.21 238.11 75.91 204.92 66.03 203.6 50.93 215.78"/><polygon class="ae" points="50.93 215.78 65.46 215.47 79.99 249.43 92.21 238.11 75.91 204.92 66.03 203.6 50.93 215.78"/></g><g><polygon class="ae" points="79.99 249.43 92.21 238.11 135.07 243.01 107.53 258.48 79.99 249.43"/><polygon class="ae" points="79.99 249.43 92.21 238.11 135.07 243.01 107.53 258.48 79.99 249.43"/></g><polygon class="ae" points="0 136.99 26.41 195.91 45.27 203.77 50.93 215.78 65.46 215.47 79.99 249.43 107.53 258.48 136.2 255.29 152.43 264.14 224.87 258.48 231.28 247.16 254.3 239.74 275.05 191.7 288.63 187.93 311.27 128.7 0 136.99"/><g><polygon class="ae" points="150.7 339.6 179.3 285.13 171.01 324.9 164.43 342.28 150.7 339.6"/><polygon class="ae" points="150.7 339.6 179.3 285.13 171.01 324.9 164.43 342.28 150.7 339.6"/></g><g><polygon class="ae" points="139.55 319.22 148.7 270.43 179.3 285.13 150.7 339.6 139.55 319.22"/><polygon class="ae" points="139.55 319.22 148.7 270.43 179.3 285.13 150.7 339.6 139.55 319.22"/></g><g><polygon class="ae" points="121.81 308.52 148.7 270.43 139.55 319.22 121.81 308.52"/><polygon class="ae" points="121.81 308.52 148.7 270.43 139.55 319.22 121.81 308.52"/></g><polygon class="ae" points="148.7 270.43 115.81 279.12 121.81 308.52 139.55 319.22 150.7 339.6 164.43 342.28 171.01 324.9 179.3 285.13 148.7 270.43"/><g><polygon class="ae" points="182.37 321.18 212.28 285.66 210.4 300.23 182.37 321.18"/><polygon class="ae" points="182.37 321.18 212.28 285.66 210.4 300.23 182.37 321.18"/></g><g><polygon class="ae" points="220.99 271.13 191.58 281.25 182.37 321.18 212.28 285.66 220.99 271.13"/><polygon class="ae" points="220.99 271.13 191.58 281.25 182.37 321.18 212.28 285.66 220.99 271.13"/></g><polygon class="ae" points="198.69 269.67 191.58 281.25 182.37 321.18 210.4 300.23 212.28 285.66 220.99 271.13 198.69 269.67"/><g><polygon class="ae" points="193.6 336.45 188.93 355.77 196.5 346.11 193.6 336.45"/><polygon class="ae" points="193.6 336.45 188.93 355.77 196.5 346.11 193.6 336.45"/></g><polygon class="ae" points="193.6 336.45 184.26 341.6 184.26 350.62 188.93 355.77 196.5 346.11 193.6 336.45"/><polygon class="ae" points="61.49 171.39 59.62 172.69 66.03 203.6 75.91 204.92 92.21 238.11 135.07 243.01 152.43 264.14 224.87 258.48 231.28 247.16 254.3 239.74 275.05 191.7 288.63 187.93 308.91 131.83 61.49 171.39"/><polygon class="ae" points="106.44 181.99 135.07 243.01 92.21 238.11 75.91 204.92 106.44 181.99"/><polygon class="ae" points="106.44 181.99 59.62 172.69 66.03 203.6 75.91 204.92 106.44 181.99"/><polygon class="ae" points="231.28 247.16 275.05 191.7 254.3 239.74 231.28 247.16"/><polygon class="ae" points="275.05 191.7 243.74 175.6 289.2 158.07 288.63 187.93 275.05 191.7"/><polygon class="ae" points="288.63 187.93 311.27 128.7 289.2 158.07 288.63 187.93"/><polygon class="ae" points="135.07 243.01 182.37 227.78 224.87 258.48 152.43 264.14 135.07 243.01"/><polygon class="ae" points="182.37 227.78 106.44 181.99 135.07 243.01 182.37 227.78"/><polygon class="ae" points="182.37 227.78 275.05 191.7 224.87 258.48 182.37 227.78"/><polygon class="ae" points="275.05 191.7 243.74 175.6 176.72 184.59 275.05 191.7"/><polygon class="ae" points="182.37 227.78 176.72 184.59 106.44 181.99 182.37 227.78"/><polygon class="ae" points="275.05 191.7 176.72 184.59 182.37 227.78 275.05 191.7"/><polygon class="ae" points="289.2 158.07 243.74 175.6 176.72 184.59 106.44 181.99 59.62 172.69 66.03 203.6 75.91 204.93 92.21 238.11 135.07 243.01 152.43 264.14 224.87 258.48 234.04 246.27 254.3 239.74 275.05 191.7 288.63 187.93 311.27 128.7 289.2 158.07"/><polygon class="ae" points="274.02 97.58 233.99 86.21 160.35 81.15 85.72 86.29 47.75 93.81 7.95 113.49 0 136.99 38.22 168.24 106.44 181.99 176.72 184.59 243.74 175.6 289.2 158.07 311.27 128.7 274.02 97.58"/><polygon class="ae" points="104.13 181.99 182.33 140.67 209.78 135.75 243.74 175.6 176.72 184.59 104.13 181.99"/><polygon class="ae" points="209.78 135.75 235.81 136.23 281.48 125.01 311.27 128.7 289.2 158.07 243.74 175.6 209.78 135.75"/><polygon class="ae" points="184.26 132.87 120.97 115.36 85.72 86.29 160.35 81.15 233.99 86.21 208.49 130 184.26 132.87"/><polygon class="ae" points="184.26 132.87 120.97 115.36 85.72 86.29 47.75 93.81 7.95 113.49 0 136.99 104.13 131.83 184.26 132.87"/><polygon class="ae" points="38.22 168.24 104.13 131.83 0 136.99 38.22 168.24"/><polygon class="ae" points="208.49 130 233.99 86.21 274.02 97.58 311.27 128.7 283.11 121.95 235.57 131.83 208.49 130"/><polygon class="ae" points="274.02 97.58 233.99 86.21 160.35 81.15 85.72 86.29 47.75 93.81 7.95 113.49 0 136.99 38.22 168.24 104.13 131.83 184.26 132.87 208.49 130 235.57 131.83 283.11 121.95 311.27 128.7 274.02 97.58"/><polygon class="ae" points="104.13 181.99 182.33 140.67 109.15 138.34 59.62 172.69 104.13 181.99"/><polygon class="ae" points="281.48 125.01 235.81 136.23 209.78 135.75 182.33 140.67 109.15 138.34 59.62 172.69 104.13 181.99 176.72 184.59 243.74 175.6 289.2 158.07 311.27 128.7 281.48 125.01"/><polygon class="ae" points="82.79 117.82 65.27 121.95 28.45 127.75 5.37 121.11 7.95 113.49 19.76 107.65 82.79 117.82"/><polygon class="ae" points="226.86 123.32 210.48 126.57 189.64 130.12 173.84 125.57 175.6 120.35 196.49 118.42 226.86 123.32"/><polygon class="ae" points="63.08 142.97 47.67 146.6 17.54 151.34 0 136.99 7.63 134.02 63.08 142.97"/><polygon class="ae" points="217.44 101.04 211.14 104.31 163.1 110.96 140.03 104.32 142.61 96.71 154.42 90.86 217.44 101.04"/><polygon class="ae" points="265.65 114.21 243.93 117.62 197.64 124.24 168.63 116.67 171.87 107.97 186.72 101.31 265.65 114.21"/><g><g><g><polygon class="ae" points="47.31 97.7 55.29 100.3 69.05 99 73.04 95.65 88.85 92.54 90.91 87.57 90.91 70.36 88.33 62.7 82.16 62.7 82.55 52.03 79.85 41.36 69.82 32.48 61.2 38.27 58.89 52.87 58.89 61.53 51.56 60.67 46.03 63.22 45 72.86 46.8 78.23 43.97 81.4 47.31 97.7"/><polygon class="ae" points="43.97 81.4 55.66 96.68 69.05 99 55.29 100.3 47.31 97.7 43.97 81.4"/><polygon class="ae" points="82.16 62.7 77.45 69.12 88.33 62.7 82.16 62.7"/><polygon class="ae" points="58.89 61.53 63.43 52.89 61.2 38.27 58.89 52.87 58.89 61.53"/><polygon class="ae" points="77.45 69.12 70.78 66.39 73.04 95.65 88.85 92.54 77.45 69.12"/><polygon class="ae" points="77.45 69.12 88.33 62.7 90.91 70.36 90.91 87.57 85.21 69.12 77.45 69.12"/><polygon class="ae" points="80.94 52.12 73.88 42.09 69.82 32.48 79.85 41.36 82.55 52.03 80.94 52.12"/><polygon class="ae" points="80.94 52.12 77.45 69.12 82.16 62.7 82.55 52.03 80.94 52.12"/><polygon class="ae" points="77.45 69.12 85.21 69.12 90.91 87.57 88.85 92.54 77.45 69.12"/><polygon class="ae" points="58.89 61.53 77.45 69.12 71.92 52.63 63.43 52.89 58.89 61.53"/><polygon class="ae" points="71.92 52.63 73.88 42.09 69.82 32.48 61.2 38.27 63.43 52.89 71.92 52.63"/><polygon class="ae" points="71.92 52.63 73.88 42.09 80.94 52.12 77.45 69.12 71.92 52.63"/><polygon class="ae" points="43.97 81.4 57.38 80.83 62.98 91.89 73.04 95.65 69.05 99 55.66 96.68 43.97 81.4"/><polygon class="ae" points="43.97 81.4 57.38 80.83 46.8 78.23 43.97 81.4"/><polygon class="ae" points="57.38 80.83 46.03 63.22 45 72.86 46.8 78.23 57.38 80.83"/><polygon class="ae" points="46.03 63.22 54.13 66.39 70.78 66.39 58.89 61.53 51.56 60.67 46.03 63.22"/><polygon class="ae" points="54.13 66.39 57.38 80.83 46.03 63.22 54.13 66.39"/><polygon class="ae" points="54.13 66.39 57.38 80.51 62.98 91.89 71.39 74.33 70.78 66.39 54.13 66.39"/><polygon class="ae" points="62.98 91.89 71.39 74.33 73.04 95.65 62.98 91.89"/></g><g><polygon class="ae" points="66.6 112.22 68.1 108.08 69.37 106.42 72.52 110.79 66.6 112.22"/><polygon class="ae" points="64.81 105.09 63.23 111.43 66.6 112.22 64.81 105.09"/><polygon class="ae" points="69.66 103.78 70.93 101.51 73.8 100.3 74.91 101.34 69.66 103.78"/><polygon class="ae" points="73.8 100.3 77.24 96.23 77.94 94.69 76.84 94.9 73.8 100.3"/><polygon class="ae" points="74.91 101.34 73.8 100.3 77.24 96.23 74.91 101.34"/><polygon class="ae" points="66.6 112.22 64.81 105.09 67.21 106.21 68.1 108.08 66.6 112.22"/><polygon class="ae" points="76.29 95.88 77.34 96.01 77.94 94.69 76.84 94.9 76.29 95.88"/><polygon class="ae" points="73.8 100.3 69.97 100.95 67.21 106.21 68.1 108.08 69.37 106.42 69.57 104.55 70.93 101.51 73.8 100.3"/><polygon class="ae" points="65.24 102.5 65.77 99.31 69.05 99 67.21 106.21 65.24 102.5"/><polygon class="ae" points="69.97 100.95 70.29 97.95 69.05 99 67.21 106.21 69.97 100.95"/><polygon class="ae" points="56.12 102.82 57.02 101.79 56.14 100.2 55.29 100.3 55.16 100.3 56.12 102.82"/><polygon class="ae" points="65.54 100.69 68.9 99.58 70.18 99 70.29 97.95 69.05 99 65.77 99.31 65.54 100.69"/><polygon class="ae" points="62.75 101.79 56.12 102.82 57.02 101.79 62.75 101.79"/><polygon class="ae" points="65.24 102.5 62.75 101.79 56.12 102.82 62.56 102.6 65.24 102.5"/><polygon class="ae" points="65.24 102.5 56.12 102.82 61.97 103.14 64.81 105.09 67.21 106.21 65.24 102.5"/></g></g><path class="ae" d="M88.34,62.7h-6.17l.39-10.67-2.7-10.67-10.03-8.87-8.62,5.79-2.31,14.59v8.66l-7.33-.85-5.53,2.54-1.03,9.64,1.8,5.37-2.83,3.17,3.34,16.3,7.97,2.59h-.13l.97,2.53h0l5.85,.32,2.84,1.94-1.58,6.34,3.38,.79,5.91-1.43-3.15-4.37,.21-1.87,.41-.92,4.92-2.28,2.33-5.11,.7-1.54s10.91-2.15,10.91-2.15l2.06-4.96v-17.21l-2.57-7.66Zm-25.59,39.09h-5.72l-.88-1.58,12.9-1.21-3.28,.31-.23,1.38-.3,1.81-2.49-.71Zm11.06-1.5l-3.84,.66,.21-1.95,.11-1.05,2.74-2.3,3.81-.75-3.04,5.39h0Z"/></g><g><g><polygon class="ae" points="229.75 89.4 235.97 94.36 240.36 92.53 239.8 86.15 245.57 90.37 248.44 89.17 231.5 65.38 228.62 57.47 193.43 57.06 191.43 65.36 173.84 89.34 187.43 93.14 192.26 87.28 192 94.41 218.24 101.73 230.77 96.52 229.75 89.4"/><path class="ae" d="M248.44,89.17l-16.94-23.79-1.63-4.46,6.97-1.2-2.47-4.02-12.8-20.83-.73-6.3,1.18-.47-.45-2.5,1.94,1.9,1.14-.46L209.44,.85l-.1-.17c-.04-.06-12.9,27.74-12.9,27.74l4.95,.73-.79,2.69-.52,1.76-15.53,20.23,1.77,.96,2.82-1.52-1.47,2.24,5.44,2.93-1.67,6.92-17.59,23.98,13.59,3.79,4.83-5.86-.26,7.14,26.24,7.31,12.53-5.21-1.02-7.12,6.22,4.96,4.39-1.82-.18-4.74,2.1,3.95,3.3-1.38,2.88-1.2Z"/><polygon class="ae" points="204.27 97.52 204.27 101.73 211.14 104.31 216.97 101.37 204.27 97.52"/><polygon class="ae" points="211.14 104.31 213.93 100.45 204.27 97.52 204.27 101.73 211.14 104.31"/><polygon class="ae" points="221.58 34.86 220.65 26.74 208.06 12.66 201.48 28.84 200.08 33.6 184.55 53.83 186.32 54.79 189.13 53.27 187.66 55.51 205.49 65.12 236.85 59.71 221.58 34.86"/><polygon class="ae" points="231.5 65.38 207.89 72.36 218.24 101.73 225.22 98.83 230.77 96.52 229.75 89.4 235.97 94.36 240.36 92.53 240.17 87.79 242.27 91.75 245.6 90.35 248.44 89.17 231.5 65.38"/><polygon class="ae" points="231.5 65.38 207.89 72.36 205.49 65.12 229.87 60.91 231.5 65.38"/><polygon class="ae" points="193.1 58.44 191.43 65.36 207.89 72.36 205.49 65.12 193.1 58.44"/><polygon class="ae" points="211.14 39.64 205.49 65.12 236.85 59.71 221.58 34.86 211.14 39.64"/><polygon class="ae" points="221.58 34.86 211.14 39.64 211.14 30.58 214.57 31.09 220.86 28.56 221.58 34.86"/><polygon class="ae" points="211.14 39.64 200.08 33.6 201.48 28.84 210.55 14.04 214.57 31.09 211.14 39.64"/><polygon class="ae" points="221.58 25.59 223.53 27.48 224.66 27.03 209.3 .62 196.44 28.42 214.57 31.09 222.03 28.09 221.58 25.59"/><path class="ae" d="M224.63,27.03L209.34,.68c-.04-.06,5.23,30.41,5.23,30.41,.02-.01,7.46-3.01,7.46-3.01l-.45-2.5,1.94,1.89,1.11-.45Z"/></g><path class="ae" d="M248.45,89.17l-16.94-23.79-.85-2.34-.77-2.12,6.97-1.2-15.26-24.85-.73-6.3,.33-.13,.84-.34-.45-2.5,1.94,1.9,1.13-.46L209.44,.85l-.1-.17c-.04-.06-12.9,27.74-12.9,27.74l2.49,.37,2.46,.37-.79,2.69-.52,1.76-15.53,20.23,1.77,.96,2.82-1.52-.55,.84-.92,1.4,.84,.45,4.6,2.48-1.67,6.92-17.59,23.98,13.59,3.79,4.83-5.86-.26,7.14,12.27,3.42v3.89l6.87,2.58,5.82-2.94,1.27,.35,12.53-5.21-1.02-7.12,6.22,4.96,4.39-1.82-.18-4.74,.27,.51,1.83,3.44,1.61-.67,1.68-.7,2.88-1.2h0Z"/></g><polygon class="ae" points="241.42 56.39 220.63 54.18 213.31 82.52 230.25 100.21 260.06 94.7 278.54 100.21 304.58 93.95 316.27 67.54 300.05 53.58 291.75 21.88 275.53 0 252.89 10.94 247.23 29.81 238.93 41.88 241.42 56.39"/><polygon class="ae" points="164.2 105.5 149.12 109.38 112.29 115.18 89.22 108.54 91.79 100.92 139.45 94.38 164.2 105.5"/><g><polygon class="ae" points="155.46 104.51 155.84 105.55 159.51 106.26 164.2 105.5 164.01 102.7 155.46 104.51"/><polygon class="ae" points="159.51 106.26 164.01 102.7 155.46 104.51 155.84 105.55 159.51 106.26"/><polygon class="ae" points="172.39 85.33 170.28 72.26 147.02 75.53 146.64 81.56 132.74 95.87 137.3 97.89 141.48 94.81 140.99 99.52 141.94 99.94 144.85 98.49 144.05 100.88 153.64 105.13 175.74 100.35 175.74 97.12 178.6 99.73 183.72 98.63 172.39 85.33"/><polygon class="ae" points="163.7 79.71 161.41 87.55 172.35 85.29 171.17 78.02 163.7 79.71"/><polygon class="ae" points="161.41 87.55 163.7 79.71 161.41 80.23 155.4 72.84 146.93 76.23 146.6 81.51 161.41 87.55"/><polygon class="ae" points="166.69 60.38 166.6 55.14 151.88 57.53 151.83 63.21 141.48 74.72 151.35 77.45 153.6 74.92 153.6 78.07 161.41 80.23 176.45 76.82 166.69 60.38"/><polygon class="ae" points="156.6 58.43 158.97 62.79 166.69 60.38 166.88 57.22 163.85 51.76 156.6 58.43"/><polygon class="ae" points="158.97 62.79 151.83 63.21 151.88 57.53 155.94 58.51 156.6 58.43 158.97 62.79"/><polygon class="ae" points="158.97 62.79 161.41 80.23 176.45 76.82 166.69 60.38 158.97 62.79"/><polygon class="ae" points="172.35 85.29 161.41 87.55 153.6 105.08 175.74 100.29 175.74 97.12 178.55 99.69 183.67 98.58 172.35 85.29"/><polygon class="ae" points="164.95 54.91 166.63 57.26 170.24 56.83 158.56 38.81 149.02 56.83 155.94 58.51 164.95 57.45 164.95 54.91"/><polygon class="ae" points="164.95 54.91 166.63 57.26 170.24 56.83 161.25 42.96 158.56 38.81 155.94 58.51 164.95 57.45 164.95 54.91"/><path class="ae" d="M172.39,85.33l-1.18-7.32,1.79-.41,3.44-.78-9.76-16.44,.2-3.16,3.36-.39-11.68-18.02-9.54,18.02,2.86,.7-.05,5.69-10.35,11.51,5.44,1.51-.33,5.28s-13.85,14.36-13.85,14.36l9.2,4.08,2.91-1.45-.8,2.39,9.59,4.25,1.9-.41,.3,.83,3.68,.71,4.69-.76-.18-2.62,11.72-2.53v-3.23l2.86,2.61,5.12-1.1-11.33-13.3Z"/></g><polygon class="ae" points="197.4 123.79 208.77 113.09 214.73 113.09 225.46 120.18 226.65 123.17 210.48 126.57 207.11 124.74 197.4 123.79"/><polygon class="ae" points="39.52 147.25 53.05 125.93 56.92 135.75 63.08 142.95 39.52 147.25"/><polygon class="ae" points="39.52 125.44 24.43 126.08 37.16 120.4 53.05 125.93 39.52 125.44"/><polygon class="ae" points="24.43 126.08 39.52 147.25 24.43 144.4 16.63 140.31 24.43 126.08"/><polygon class="ae" points="24.43 126.08 40.23 125.47 53.05 125.93 39.52 147.25 24.43 126.08"/><g><polygon class="ae" points="39.52 147.25 53.05 125.93 56.92 135.75 63.08 142.95 39.52 147.25"/><polygon class="ae" points="39.52 125.44 24.43 126.08 37.16 120.4 53.05 125.93 39.52 125.44"/><polygon class="ae" points="24.43 126.08 39.52 147.25 24.43 144.4 16.63 140.31 24.43 126.08"/><polygon class="ae" points="24.43 126.08 40.23 125.47 53.05 125.93 39.52 147.25 24.43 126.08"/></g><polygon class="ae" points="56.92 135.75 53.05 125.94 37.16 120.41 24.43 126.08 16.63 140.32 24.43 144.41 39.52 147.25 63.08 142.96 56.92 135.75"/><polygon class="ae" points="207.11 124.74 210.48 126.57 211.59 116.06 208.77 113.09 197.4 123.79 207.11 124.74"/><polygon class="ae" points="211.59 116.06 225.46 120.18 214.73 113.09 208.77 113.09 211.59 116.06"/><polygon class="ae" points="226.65 123.17 210.48 126.57 211.59 116.06 225.46 120.18 226.65 123.17"/><polygon class="ae" points="225.46 120.18 214.73 113.09 208.77 113.09 197.4 123.79 207.11 124.74 210.48 126.57 226.65 123.17 225.46 120.18"/><g><g><polygon class="ae" points="278.54 100.21 260.52 83.09 233.99 93.72 213.31 82.52 230.25 100.21 260.52 96.14 278.54 100.21"/><polygon class="ae" points="260.52 83.09 220.63 54.18 213.31 82.52 233.99 93.72 260.52 83.09"/><polygon class="ae" points="253.98 78.35 300.05 53.58 316.27 67.54 278.54 100.21 253.98 78.35"/><polygon class="ae" points="278.54 100.21 316.27 67.54 304.58 93.95 278.54 100.21"/><polygon class="ae" points="275.53 0 291.75 21.88 281.48 27.06 268.59 8.28 252.89 10.94 275.53 0"/><polygon class="ae" points="281.48 27.06 264.79 72.54 300.05 53.58 291.75 21.88 281.48 27.06"/><polygon class="ae" points="241.42 56.39 253.98 78.35 220.63 54.18 241.42 56.39"/><polygon class="ae" points="238.93 41.88 247.23 29.81 264.79 72.54 253.98 78.35 241.42 56.39 238.93 41.88"/><polygon class="ae" points="281.48 27.06 268.59 8.28 247.23 29.81 270.86 56 281.48 27.06"/><polygon class="ae" points="247.23 29.81 268.59 8.28 275.53 0 252.89 10.94 247.23 29.81"/><polygon class="ae" points="270.86 56 247.23 29.81 264.79 72.54 270.86 56"/><polygon class="ae" points="264.48 111.85 259.05 107.8 259.88 115.36 265.65 114.21 264.48 111.85"/><polygon class="ae" points="259.05 107.8 261.72 103.61 258.51 96.41 257.2 104.23 259.05 107.8"/><polygon class="ae" points="259.05 107.8 257.2 104.23 247.37 103.1 255.11 107.06 256.12 114.25 259.88 115.36 259.05 107.8"/><polygon class="ae" points="261.72 103.61 264.02 107.06 274.92 101.61 264.48 111.85 259.05 107.8 261.72 103.61"/><polygon class="ae" points="274.92 101.61 276.42 104.23 278.54 100.21 275.27 99.47 274.92 101.61"/><polygon class="ae" points="276.42 104.23 274.92 101.61 264.48 111.85 276.42 104.23"/><polygon class="ae" points="261.72 103.61 258.23 98.08 258.51 96.41 260.52 96.14 262.96 96.69 261.72 103.61"/><polygon class="ae" points="249.45 100.83 246.09 99.87 245.42 98.17 247.95 97.81 249.45 100.83"/><polygon class="ae" points="264.02 107.06 264.48 111.85 259.05 107.8 261.72 103.61 264.02 107.06"/><polygon class="ae" points="257.2 104.23 249.45 100.83 246.09 99.87 247.37 103.1 257.2 104.23"/></g><path class="ae" d="M300.05,53.58l-8.3-31.7L275.53,0l-22.64,10.94-5.66,18.86-8.3,12.08,2.49,14.51-20.79-2.21-7.32,28.35,16.94,17.69,15.17-2.04s.67,1.7,.67,1.7l1.28,3.22,7.73,3.96,1.01,7.19,3.76,1.11,5.77-1.15-1.17-2.35,11.94-7.62,2.12-4.02-3.28-.74-.35,2.14-10.89,5.45-2.3-3.45,1.23-6.92-2.43-.55-2.01,.27-1.32,7.81-7.75-3.4-1.48-3,12.56-1.69,18.02,4.07,26.03-6.27,11.7-26.41-16.22-13.96Z"/></g><g><polygon class="ae" points="143.89 154.24 137.28 157.85 120.61 159.35 109.47 156.14 110.71 152.47 128.89 148.97 143.89 154.24"/><g><g><g><polygon class="ae" points="123.62 155.99 130.45 154.06 124.83 156.3 123.62 155.99"/><polygon class="ae" points="123.62 155.99 130.45 154.06 124.83 156.3 123.62 155.99"/></g><polygon class="ae" points="141.95 148.97 140.79 152.55 135.96 157.02 129.01 158.32 137.28 157.85 143.89 154.24 141.95 148.97"/><g><polygon class="ae" points="122.09 151.65 134.53 152.13 130.45 154.06 123.62 155.99 120.65 155.23 122.09 151.65"/><polygon class="ae" points="122.09 151.65 134.53 152.13 130.45 154.06 123.62 155.99 120.65 155.23 122.09 151.65"/></g><g><polygon class="ae" points="129.01 158.32 130.45 154.06 134.53 152.13 140.79 152.55 135.96 157.02 129.01 158.32"/><polygon class="ae" points="129.01 158.32 130.45 154.06 134.53 152.13 140.79 152.55 135.96 157.02 129.01 158.32"/></g><g><polygon class="ae" points="134.53 152.13 141.95 148.97 140.79 152.55 134.53 152.13"/><polygon class="ae" points="134.53 152.13 141.95 148.97 140.79 152.55 134.53 152.13"/></g><g><polygon class="ae" points="141.95 148.97 134.53 152.13 122.09 151.65 128.89 148.97 141.95 148.97"/><polygon class="ae" points="141.95 148.97 134.53 152.13 122.09 151.65 128.89 148.97 141.95 148.97"/></g></g><polygon class="ae" points="141.95 148.97 128.89 148.97 122.09 151.65 120.65 155.23 123.62 155.99 124.83 156.3 130.45 154.06 129.01 158.32 137.28 157.85 143.89 154.24 141.95 148.97"/></g></g><g><polygon class="ae" points="164.32 167.38 165.9 170.56 148.97 172.73 137.82 169.53 139.07 165.84 158.64 163.76 164.32 167.38"/><g><g><g><polygon class="ae" points="151.51 164.89 154.89 167.78 156.13 169.6 165.9 170.56 164.32 167.38 168.93 166.9 171.94 165.52 164.81 164.2 158.64 163.76 151.51 164.89"/><polygon class="ae" points="151.51 164.89 154.89 167.78 156.13 169.6 165.9 170.56 164.32 167.38 168.93 166.9 171.94 165.52 164.81 164.2 158.64 163.76 151.51 164.89"/></g><g><polygon class="ae" points="151.51 164.89 164.32 167.38 156.13 169.6 154.89 167.78 151.51 164.89"/><polygon class="ae" points="151.51 164.89 164.32 167.38 156.13 169.6 154.89 167.78 151.51 164.89"/></g><polygon class="ae" points="164.32 167.38 164.81 164.2 171.94 165.52 168.93 166.9 164.32 167.38"/><g><polygon class="ae" points="164.32 167.38 151.51 164.89 158.64 163.76 164.81 164.2 164.32 167.38"/><polygon class="ae" points="164.32 167.38 151.51 164.89 158.64 163.76 164.81 164.2 164.32 167.38"/></g></g><polygon class="ae" points="171.94 165.52 164.81 164.2 158.64 163.76 151.51 164.89 154.89 167.78 156.13 169.6 165.9 170.56 164.32 167.38 168.93 166.9 171.94 165.52"/></g></g><g><polygon class="ae" points="45.68 164.92 43.74 134.56 52.83 100.59 49.69 134.28 53.12 162.63 45.68 164.92"/><polygon class="ae" points="45.47 164.89 39.71 135.92 20.97 124.99 34.36 136.55 39.06 167.37 45.47 164.89"/><polygon class="ae" points="56.27 158.32 60.03 135.95 69.13 126.31 63.4 137.16 61.87 156.87 56.27 158.32"/><polygon class="ae" points="77.06 147.08 79.56 128.7 80.61 146.23 77.06 147.08"/><polygon class="ae" points="39.61 167.45 34.53 154.06 27.97 143.79 37.21 151.52 43.39 166.7 39.61 167.45"/><polygon class="ae" points="55.95 158.8 55.19 140.87 50.07 125.82 58.61 138.26 61.79 158.81 55.95 158.8"/><polygon class="ae" points="71.32 151.65 69.95 142.67 68.32 146.78 68.39 140.65 72.06 140.23 74.5 150.02 71.32 151.65"/><polygon class="ae" points="69.95 142.67 68.39 140.65 68.32 146.78 69.95 142.67"/></g><polygon class="ae" points="235.81 136.23 235.57 131.83 208.49 130 184.26 132.87 182.33 140.67 210.62 135.75 235.81 136.23"/><polygon class="ae" points="184.26 132.87 182.33 140.67 109.15 138.34 104.13 131.83 184.26 132.87"/><polygon class="ae" points="109.15 138.34 104.13 131.83 38.22 168.24 59.62 172.69 109.15 138.34"/><polygon class="ae" points="235.57 131.83 235.81 136.23 281.48 125.01 311.27 128.7 283.11 121.95 235.57 131.83"/><polygon class="ae" points="283.11 121.95 235.39 131.82 208.49 130 184.26 132.87 104.13 131.83 38.22 168.24 59.62 172.69 109.15 138.34 182.33 140.67 210.62 135.75 235.81 136.23 281.48 125.01 311.27 128.7 283.11 121.95"/></g><g class="bi"><g><polygon class="ae" points="0 136.99 26.41 195.91 45.27 203.77 50.93 215.78 65.46 215.47 79.99 249.43 107.53 258.48 136.2 255.29 152.43 264.14 224.87 258.48 231.28 247.16 254.3 239.74 275.05 191.7 288.63 187.93 311.27 128.7 0 136.99"/><polygon class="ae" points="0 136.99 26.41 195.91 45.27 203.77 50.93 215.78 65.46 215.47 79.99 249.43 107.53 258.48 136.2 255.29 152.43 264.14 224.87 258.48 231.28 247.16 254.3 239.74 275.05 191.7 288.63 187.93 311.27 128.7 0 136.99"/></g><g><polygon class="ae" points="115.81 279.12 148.7 270.43 179.3 285.13 171.01 324.9 164.43 342.28 150.7 339.6 139.55 319.22 121.81 308.52 115.81 279.12"/><polygon class="ae" points="115.81 279.12 148.7 270.43 179.3 285.13 171.01 324.9 164.43 342.28 150.7 339.6 139.55 319.22 121.81 308.52 115.81 279.12"/></g><g><polygon class="ae" points="210.4 300.23 182.37 321.18 191.58 281.25 198.69 269.67 220.99 271.13 212.28 285.66 210.4 300.23"/><polygon class="ae" points="210.4 300.23 182.37 321.18 191.58 281.25 198.69 269.67 220.99 271.13 212.28 285.66 210.4 300.23"/></g><g><polygon class="ae" points="193.6 336.45 184.26 341.6 184.26 350.62 188.93 355.77 196.5 346.11 193.6 336.45"/><polygon class="ae" points="193.6 336.45 184.26 341.6 184.26 350.62 188.93 355.77 196.5 346.11 193.6 336.45"/></g><g><polygon class="ae" points="66.03 203.6 50.93 215.78 45.27 203.77 26.41 195.91 38.22 168.24 59.62 172.69 66.03 203.6"/><polygon class="ae" points="66.03 203.6 50.93 215.78 45.27 203.77 26.41 195.91 38.22 168.24 59.62 172.69 66.03 203.6"/></g><g><polygon class="ae" points="152.43 264.14 135.07 243.01 107.53 258.48 136.2 255.29 152.43 264.14"/><polygon class="ae" points="152.43 264.14 135.07 243.01 107.53 258.48 136.2 255.29 152.43 264.14"/></g><g><polygon class="ae" points="50.93 215.78 65.46 215.47 79.99 249.43 92.21 238.11 75.91 204.92 66.03 203.6 50.93 215.78"/><polygon class="ae" points="50.93 215.78 65.46 215.47 79.99 249.43 92.21 238.11 75.91 204.92 66.03 203.6 50.93 215.78"/></g><g><polygon class="ae" points="79.99 249.43 92.21 238.11 135.07 243.01 107.53 258.48 79.99 249.43"/><polygon class="ae" points="79.99 249.43 92.21 238.11 135.07 243.01 107.53 258.48 79.99 249.43"/></g><polygon class="ae" points="0 136.99 26.41 195.91 45.27 203.77 50.93 215.78 65.46 215.47 79.99 249.43 107.53 258.48 136.2 255.29 152.43 264.14 224.87 258.48 231.28 247.16 254.3 239.74 275.05 191.7 288.63 187.93 311.27 128.7 0 136.99"/><g><polygon class="ae" points="150.7 339.6 179.3 285.13 171.01 324.9 164.43 342.28 150.7 339.6"/><polygon class="ae" points="150.7 339.6 179.3 285.13 171.01 324.9 164.43 342.28 150.7 339.6"/></g><g><polygon class="ae" points="139.55 319.22 148.7 270.43 179.3 285.13 150.7 339.6 139.55 319.22"/><polygon class="ae" points="139.55 319.22 148.7 270.43 179.3 285.13 150.7 339.6 139.55 319.22"/></g><g><polygon class="ae" points="121.81 308.52 148.7 270.43 139.55 319.22 121.81 308.52"/><polygon class="ae" points="121.81 308.52 148.7 270.43 139.55 319.22 121.81 308.52"/></g><polygon class="ae" points="148.7 270.43 115.81 279.12 121.81 308.52 139.55 319.22 150.7 339.6 164.43 342.28 171.01 324.9 179.3 285.13 148.7 270.43"/><g><polygon class="ae" points="182.37 321.18 212.28 285.66 210.4 300.23 182.37 321.18"/><polygon class="ae" points="182.37 321.18 212.28 285.66 210.4 300.23 182.37 321.18"/></g><g><polygon class="ae" points="220.99 271.13 191.58 281.25 182.37 321.18 212.28 285.66 220.99 271.13"/><polygon class="ae" points="220.99 271.13 191.58 281.25 182.37 321.18 212.28 285.66 220.99 271.13"/></g><polygon class="ae" points="198.69 269.67 191.58 281.25 182.37 321.18 210.4 300.23 212.28 285.66 220.99 271.13 198.69 269.67"/><g><polygon class="ae" points="193.6 336.45 188.93 355.77 196.5 346.11 193.6 336.45"/><polygon class="ae" points="193.6 336.45 188.93 355.77 196.5 346.11 193.6 336.45"/></g><polygon class="ae" points="193.6 336.45 184.26 341.6 184.26 350.62 188.93 355.77 196.5 346.11 193.6 336.45"/><polygon class="ae" points="61.49 171.39 59.62 172.69 66.03 203.6 75.91 204.92 92.21 238.11 135.07 243.01 152.43 264.14 224.87 258.48 231.28 247.16 254.3 239.74 275.05 191.7 288.63 187.93 308.91 131.83 61.49 171.39"/><polygon class="ae" points="106.44 181.99 135.07 243.01 92.21 238.11 75.91 204.92 106.44 181.99"/><polygon class="ae" points="106.44 181.99 59.62 172.69 66.03 203.6 75.91 204.92 106.44 181.99"/><polygon class="ae" points="231.28 247.16 275.05 191.7 254.3 239.74 231.28 247.16"/><polygon class="ae" points="275.05 191.7 243.74 175.6 289.2 158.07 288.63 187.93 275.05 191.7"/><polygon class="ae" points="288.63 187.93 311.27 128.7 289.2 158.07 288.63 187.93"/><polygon class="ae" points="135.07 243.01 182.37 227.78 224.87 258.48 152.43 264.14 135.07 243.01"/><polygon class="ae" points="182.37 227.78 106.44 181.99 135.07 243.01 182.37 227.78"/><polygon class="ae" points="182.37 227.78 275.05 191.7 224.87 258.48 182.37 227.78"/><polygon class="ae" points="275.05 191.7 243.74 175.6 176.72 184.59 275.05 191.7"/><polygon class="ae" points="182.37 227.78 176.72 184.59 106.44 181.99 182.37 227.78"/><polygon class="ae" points="275.05 191.7 176.72 184.59 182.37 227.78 275.05 191.7"/><polygon class="ae" points="289.2 158.07 243.74 175.6 176.72 184.59 106.44 181.99 59.62 172.69 66.03 203.6 75.91 204.93 92.21 238.11 135.07 243.01 152.43 264.14 224.87 258.48 234.04 246.27 254.3 239.74 275.05 191.7 288.63 187.93 311.27 128.7 289.2 158.07"/><polygon class="ae" points="274.02 97.58 233.99 86.21 160.35 81.15 85.72 86.29 47.75 93.81 7.95 113.49 0 136.99 38.22 168.24 106.44 181.99 176.72 184.59 243.74 175.6 289.2 158.07 311.27 128.7 274.02 97.58"/><polygon class="ae" points="104.13 181.99 182.33 140.67 209.78 135.75 243.74 175.6 176.72 184.59 104.13 181.99"/><polygon class="ae" points="209.78 135.75 235.81 136.23 281.48 125.01 311.27 128.7 289.2 158.07 243.74 175.6 209.78 135.75"/><polygon class="ae" points="184.26 132.87 120.97 115.36 85.72 86.29 160.35 81.15 233.99 86.21 208.49 130 184.26 132.87"/><polygon class="ae" points="184.26 132.87 120.97 115.36 85.72 86.29 47.75 93.81 7.95 113.49 0 136.99 104.13 131.83 184.26 132.87"/><polygon class="ae" points="38.22 168.24 104.13 131.83 0 136.99 38.22 168.24"/><polygon class="ae" points="208.49 130 233.99 86.21 274.02 97.58 311.27 128.7 283.11 121.95 235.57 131.83 208.49 130"/><polygon class="ae" points="274.02 97.58 233.99 86.21 160.35 81.15 85.72 86.29 47.75 93.81 7.95 113.49 0 136.99 38.22 168.24 104.13 131.83 184.26 132.87 208.49 130 235.57 131.83 283.11 121.95 311.27 128.7 274.02 97.58"/><polygon class="ae" points="104.13 181.99 182.33 140.67 109.15 138.34 59.62 172.69 104.13 181.99"/><polygon class="ae" points="281.48 125.01 235.81 136.23 209.78 135.75 182.33 140.67 109.15 138.34 59.62 172.69 104.13 181.99 176.72 184.59 243.74 175.6 289.2 158.07 311.27 128.7 281.48 125.01"/><polygon class="ae" points="82.79 117.82 65.27 121.95 28.45 127.75 5.37 121.11 7.95 113.49 19.76 107.65 82.79 117.82"/><polygon class="ae" points="226.86 123.32 210.48 126.57 189.64 130.12 173.84 125.57 175.6 120.35 196.49 118.42 226.86 123.32"/><polygon class="ae" points="63.08 142.97 47.67 146.6 17.54 151.34 0 136.99 7.63 134.02 63.08 142.97"/><polygon class="ae" points="217.44 101.04 211.14 104.31 163.1 110.96 140.03 104.32 142.61 96.71 154.42 90.86 217.44 101.04"/><polygon class="ae" points="265.65 114.21 243.93 117.62 197.64 124.24 168.63 116.67 171.87 107.97 186.72 101.31 265.65 114.21"/><g><g><g><polygon class="ae" points="47.31 97.7 55.29 100.3 69.05 99 73.04 95.65 88.85 92.54 90.91 87.57 90.91 70.36 88.33 62.7 82.16 62.7 82.55 52.03 79.85 41.36 69.82 32.48 61.2 38.27 58.89 52.87 58.89 61.53 51.56 60.67 46.03 63.22 45 72.86 46.8 78.23 43.97 81.4 47.31 97.7"/><polygon class="ae" points="43.97 81.4 55.66 96.68 69.05 99 55.29 100.3 47.31 97.7 43.97 81.4"/><polygon class="ae" points="82.16 62.7 77.45 69.12 88.33 62.7 82.16 62.7"/><polygon class="ae" points="58.89 61.53 63.43 52.89 61.2 38.27 58.89 52.87 58.89 61.53"/><polygon class="ae" points="77.45 69.12 70.78 66.39 73.04 95.65 88.85 92.54 77.45 69.12"/><polygon class="ae" points="77.45 69.12 88.33 62.7 90.91 70.36 90.91 87.57 85.21 69.12 77.45 69.12"/><polygon class="ae" points="80.94 52.12 73.88 42.09 69.82 32.48 79.85 41.36 82.55 52.03 80.94 52.12"/><polygon class="ae" points="80.94 52.12 77.45 69.12 82.16 62.7 82.55 52.03 80.94 52.12"/><polygon class="ae" points="77.45 69.12 85.21 69.12 90.91 87.57 88.85 92.54 77.45 69.12"/><polygon class="ae" points="58.89 61.53 77.45 69.12 71.92 52.63 63.43 52.89 58.89 61.53"/><polygon class="ae" points="71.92 52.63 73.88 42.09 69.82 32.48 61.2 38.27 63.43 52.89 71.92 52.63"/><polygon class="ae" points="71.92 52.63 73.88 42.09 80.94 52.12 77.45 69.12 71.92 52.63"/><polygon class="ae" points="43.97 81.4 57.38 80.83 62.98 91.89 73.04 95.65 69.05 99 55.66 96.68 43.97 81.4"/><polygon class="ae" points="43.97 81.4 57.38 80.83 46.8 78.23 43.97 81.4"/><polygon class="ae" points="57.38 80.83 46.03 63.22 45 72.86 46.8 78.23 57.38 80.83"/><polygon class="ae" points="46.03 63.22 54.13 66.39 70.78 66.39 58.89 61.53 51.56 60.67 46.03 63.22"/><polygon class="ae" points="54.13 66.39 57.38 80.83 46.03 63.22 54.13 66.39"/><polygon class="ae" points="54.13 66.39 57.38 80.51 62.98 91.89 71.39 74.33 70.78 66.39 54.13 66.39"/><polygon class="ae" points="62.98 91.89 71.39 74.33 73.04 95.65 62.98 91.89"/></g><g><polygon class="ae" points="66.6 112.22 68.1 108.08 69.37 106.42 72.52 110.79 66.6 112.22"/><polygon class="ae" points="64.81 105.09 63.23 111.43 66.6 112.22 64.81 105.09"/><polygon class="ae" points="69.66 103.78 70.93 101.51 73.8 100.3 74.91 101.34 69.66 103.78"/><polygon class="ae" points="73.8 100.3 77.24 96.23 77.94 94.69 76.84 94.9 73.8 100.3"/><polygon class="ae" points="74.91 101.34 73.8 100.3 77.24 96.23 74.91 101.34"/><polygon class="ae" points="66.6 112.22 64.81 105.09 67.21 106.21 68.1 108.08 66.6 112.22"/><polygon class="ae" points="76.29 95.88 77.34 96.01 77.94 94.69 76.84 94.9 76.29 95.88"/><polygon class="ae" points="73.8 100.3 69.97 100.95 67.21 106.21 68.1 108.08 69.37 106.42 69.57 104.55 70.93 101.51 73.8 100.3"/><polygon class="ae" points="65.24 102.5 65.77 99.31 69.05 99 67.21 106.21 65.24 102.5"/><polygon class="ae" points="69.97 100.95 70.29 97.95 69.05 99 67.21 106.21 69.97 100.95"/><polygon class="ae" points="56.12 102.82 57.02 101.79 56.14 100.2 55.29 100.3 55.16 100.3 56.12 102.82"/><polygon class="ae" points="65.54 100.69 68.9 99.58 70.18 99 70.29 97.95 69.05 99 65.77 99.31 65.54 100.69"/><polygon class="ae" points="62.75 101.79 56.12 102.82 57.02 101.79 62.75 101.79"/><polygon class="ae" points="65.24 102.5 62.75 101.79 56.12 102.82 62.56 102.6 65.24 102.5"/><polygon class="ae" points="65.24 102.5 56.12 102.82 61.97 103.14 64.81 105.09 67.21 106.21 65.24 102.5"/></g></g><path class="ae" d="M88.34,62.7h-6.17l.39-10.67-2.7-10.67-10.03-8.87-8.62,5.79-2.31,14.59v8.66l-7.33-.85-5.53,2.54-1.03,9.64,1.8,5.37-2.83,3.17,3.34,16.3,7.97,2.59h-.13l.97,2.53h0l5.85,.32,2.84,1.94-1.58,6.34,3.38,.79,5.91-1.43-3.15-4.37,.21-1.87,.41-.92,4.92-2.28,2.33-5.11,.7-1.54s10.91-2.15,10.91-2.15l2.06-4.96v-17.21l-2.57-7.66Zm-25.59,39.09h-5.72l-.88-1.58,12.9-1.21-3.28,.31-.23,1.38-.3,1.81-2.49-.71Zm11.06-1.5l-3.84,.66,.21-1.95,.11-1.05,2.74-2.3,3.81-.75-3.04,5.39h0Z"/></g><g><g><polygon class="ae" points="229.75 89.4 235.97 94.36 240.36 92.53 239.8 86.15 245.57 90.37 248.44 89.17 231.5 65.38 228.62 57.47 193.43 57.06 191.43 65.36 173.84 89.34 187.43 93.14 192.26 87.28 192 94.41 218.24 101.73 230.77 96.52 229.75 89.4"/><path class="ae" d="M248.44,89.17l-16.94-23.79-1.63-4.46,6.97-1.2-2.47-4.02-12.8-20.83-.73-6.3,1.18-.47-.45-2.5,1.94,1.9,1.14-.46L209.44,.85l-.1-.17c-.04-.06-12.9,27.74-12.9,27.74l4.95,.73-.79,2.69-.52,1.76-15.53,20.23,1.77,.96,2.82-1.52-1.47,2.24,5.44,2.93-1.67,6.92-17.59,23.98,13.59,3.79,4.83-5.86-.26,7.14,26.24,7.31,12.53-5.21-1.02-7.12,6.22,4.96,4.39-1.82-.18-4.74,2.1,3.95,3.3-1.38,2.88-1.2Z"/><polygon class="ae" points="204.27 97.52 204.27 101.73 211.14 104.31 216.97 101.37 204.27 97.52"/><polygon class="ae" points="211.14 104.31 213.93 100.45 204.27 97.52 204.27 101.73 211.14 104.31"/><polygon class="ae" points="221.58 34.86 220.65 26.74 208.06 12.66 201.48 28.84 200.08 33.6 184.55 53.83 186.32 54.79 189.13 53.27 187.66 55.51 205.49 65.12 236.85 59.71 221.58 34.86"/><polygon class="ae" points="231.5 65.38 207.89 72.36 218.24 101.73 225.22 98.83 230.77 96.52 229.75 89.4 235.97 94.36 240.36 92.53 240.17 87.79 242.27 91.75 245.6 90.35 248.44 89.17 231.5 65.38"/><polygon class="ae" points="231.5 65.38 207.89 72.36 205.49 65.12 229.87 60.91 231.5 65.38"/><polygon class="ae" points="193.1 58.44 191.43 65.36 207.89 72.36 205.49 65.12 193.1 58.44"/><polygon class="ae" points="211.14 39.64 205.49 65.12 236.85 59.71 221.58 34.86 211.14 39.64"/><polygon class="ae" points="221.58 34.86 211.14 39.64 211.14 30.58 214.57 31.09 220.86 28.56 221.58 34.86"/><polygon class="ae" points="211.14 39.64 200.08 33.6 201.48 28.84 210.55 14.04 214.57 31.09 211.14 39.64"/><polygon class="ae" points="221.58 25.59 223.53 27.48 224.66 27.03 209.3 .62 196.44 28.42 214.57 31.09 222.03 28.09 221.58 25.59"/><path class="ae" d="M224.63,27.03L209.34,.68c-.04-.06,5.23,30.41,5.23,30.41,.02-.01,7.46-3.01,7.46-3.01l-.45-2.5,1.94,1.89,1.11-.45Z"/></g><path class="ae" d="M248.45,89.17l-16.94-23.79-.85-2.34-.77-2.12,6.97-1.2-15.26-24.85-.73-6.3,.33-.13,.84-.34-.45-2.5,1.94,1.9,1.13-.46L209.44,.85l-.1-.17c-.04-.06-12.9,27.74-12.9,27.74l2.49,.37,2.46,.37-.79,2.69-.52,1.76-15.53,20.23,1.77,.96,2.82-1.52-.55,.84-.92,1.4,.84,.45,4.6,2.48-1.67,6.92-17.59,23.98,13.59,3.79,4.83-5.86-.26,7.14,12.27,3.42v3.89l6.87,2.58,5.82-2.94,1.27,.35,12.53-5.21-1.02-7.12,6.22,4.96,4.39-1.82-.18-4.74,.27,.51,1.83,3.44,1.61-.67,1.68-.7,2.88-1.2h0Z"/></g><polygon class="ae" points="241.42 56.39 220.63 54.18 213.31 82.52 230.25 100.21 260.06 94.7 278.54 100.21 304.58 93.95 316.27 67.54 300.05 53.58 291.75 21.88 275.53 0 252.89 10.94 247.23 29.81 238.93 41.88 241.42 56.39"/><polygon class="ae" points="164.2 105.5 149.12 109.38 112.29 115.18 89.22 108.54 91.79 100.92 139.45 94.38 164.2 105.5"/><g><polygon class="ae" points="155.46 104.51 155.84 105.55 159.51 106.26 164.2 105.5 164.01 102.7 155.46 104.51"/><polygon class="ae" points="159.51 106.26 164.01 102.7 155.46 104.51 155.84 105.55 159.51 106.26"/><polygon class="ae" points="172.39 85.33 170.28 72.26 147.02 75.53 146.64 81.56 132.74 95.87 137.3 97.89 141.48 94.81 140.99 99.52 141.94 99.94 144.85 98.49 144.05 100.88 153.64 105.13 175.74 100.35 175.74 97.12 178.6 99.73 183.72 98.63 172.39 85.33"/><polygon class="ae" points="163.7 79.71 161.41 87.55 172.35 85.29 171.17 78.02 163.7 79.71"/><polygon class="ae" points="161.41 87.55 163.7 79.71 161.41 80.23 155.4 72.84 146.93 76.23 146.6 81.51 161.41 87.55"/><polygon class="ae" points="166.69 60.38 166.6 55.14 151.88 57.53 151.83 63.21 141.48 74.72 151.35 77.45 153.6 74.92 153.6 78.07 161.41 80.23 176.45 76.82 166.69 60.38"/><polygon class="ae" points="156.6 58.43 158.97 62.79 166.69 60.38 166.88 57.22 163.85 51.76 156.6 58.43"/><polygon class="ae" points="158.97 62.79 151.83 63.21 151.88 57.53 155.94 58.51 156.6 58.43 158.97 62.79"/><polygon class="ae" points="158.97 62.79 161.41 80.23 176.45 76.82 166.69 60.38 158.97 62.79"/><polygon class="ae" points="172.35 85.29 161.41 87.55 153.6 105.08 175.74 100.29 175.74 97.12 178.55 99.69 183.67 98.58 172.35 85.29"/><polygon class="ae" points="164.95 54.91 166.63 57.26 170.24 56.83 158.56 38.81 149.02 56.83 155.94 58.51 164.95 57.45 164.95 54.91"/><polygon class="ae" points="164.95 54.91 166.63 57.26 170.24 56.83 161.25 42.96 158.56 38.81 155.94 58.51 164.95 57.45 164.95 54.91"/><path class="ae" d="M172.39,85.33l-1.18-7.32,1.79-.41,3.44-.78-9.76-16.44,.2-3.16,3.36-.39-11.68-18.02-9.54,18.02,2.86,.7-.05,5.69-10.35,11.51,5.44,1.51-.33,5.28s-13.85,14.36-13.85,14.36l9.2,4.08,2.91-1.45-.8,2.39,9.59,4.25,1.9-.41,.3,.83,3.68,.71,4.69-.76-.18-2.62,11.72-2.53v-3.23l2.86,2.61,5.12-1.1-11.33-13.3Z"/></g><polygon class="ae" points="197.4 123.79 208.77 113.09 214.73 113.09 225.46 120.18 226.65 123.17 210.48 126.57 207.11 124.74 197.4 123.79"/><polygon class="ae" points="39.52 147.25 53.05 125.93 56.92 135.75 63.08 142.95 39.52 147.25"/><polygon class="ae" points="39.52 125.44 24.43 126.08 37.16 120.4 53.05 125.93 39.52 125.44"/><polygon class="ae" points="24.43 126.08 39.52 147.25 24.43 144.4 16.63 140.31 24.43 126.08"/><polygon class="ae" points="24.43 126.08 40.23 125.47 53.05 125.93 39.52 147.25 24.43 126.08"/><g><polygon class="ae" points="39.52 147.25 53.05 125.93 56.92 135.75 63.08 142.95 39.52 147.25"/><polygon class="ae" points="39.52 125.44 24.43 126.08 37.16 120.4 53.05 125.93 39.52 125.44"/><polygon class="ae" points="24.43 126.08 39.52 147.25 24.43 144.4 16.63 140.31 24.43 126.08"/><polygon class="ae" points="24.43 126.08 40.23 125.47 53.05 125.93 39.52 147.25 24.43 126.08"/></g><polygon class="ae" points="56.92 135.75 53.05 125.94 37.16 120.41 24.43 126.08 16.63 140.32 24.43 144.41 39.52 147.25 63.08 142.96 56.92 135.75"/><polygon class="ae" points="207.11 124.74 210.48 126.57 211.59 116.06 208.77 113.09 197.4 123.79 207.11 124.74"/><polygon class="ae" points="211.59 116.06 225.46 120.18 214.73 113.09 208.77 113.09 211.59 116.06"/><polygon class="ae" points="226.65 123.17 210.48 126.57 211.59 116.06 225.46 120.18 226.65 123.17"/><polygon class="ae" points="225.46 120.18 214.73 113.09 208.77 113.09 197.4 123.79 207.11 124.74 210.48 126.57 226.65 123.17 225.46 120.18"/><g><g><polygon class="ae" points="278.54 100.21 260.52 83.09 233.99 93.72 213.31 82.52 230.25 100.21 260.52 96.14 278.54 100.21"/><polygon class="ae" points="260.52 83.09 220.63 54.18 213.31 82.52 233.99 93.72 260.52 83.09"/><polygon class="ae" points="253.98 78.35 300.05 53.58 316.27 67.54 278.54 100.21 253.98 78.35"/><polygon class="ae" points="278.54 100.21 316.27 67.54 304.58 93.95 278.54 100.21"/><polygon class="ae" points="275.53 0 291.75 21.88 281.48 27.06 268.59 8.28 252.89 10.94 275.53 0"/><polygon class="ae" points="281.48 27.06 264.79 72.54 300.05 53.58 291.75 21.88 281.48 27.06"/><polygon class="ae" points="241.42 56.39 253.98 78.35 220.63 54.18 241.42 56.39"/><polygon class="ae" points="238.93 41.88 247.23 29.81 264.79 72.54 253.98 78.35 241.42 56.39 238.93 41.88"/><polygon class="ae" points="281.48 27.06 268.59 8.28 247.23 29.81 270.86 56 281.48 27.06"/><polygon class="ae" points="247.23 29.81 268.59 8.28 275.53 0 252.89 10.94 247.23 29.81"/><polygon class="ae" points="270.86 56 247.23 29.81 264.79 72.54 270.86 56"/><polygon class="ae" points="264.48 111.85 259.05 107.8 259.88 115.36 265.65 114.21 264.48 111.85"/><polygon class="ae" points="259.05 107.8 261.72 103.61 258.51 96.41 257.2 104.23 259.05 107.8"/><polygon class="ae" points="259.05 107.8 257.2 104.23 247.37 103.1 255.11 107.06 256.12 114.25 259.88 115.36 259.05 107.8"/><polygon class="ae" points="261.72 103.61 264.02 107.06 274.92 101.61 264.48 111.85 259.05 107.8 261.72 103.61"/><polygon class="ae" points="274.92 101.61 276.42 104.23 278.54 100.21 275.27 99.47 274.92 101.61"/><polygon class="ae" points="276.42 104.23 274.92 101.61 264.48 111.85 276.42 104.23"/><polygon class="ae" points="261.72 103.61 258.23 98.08 258.51 96.41 260.52 96.14 262.96 96.69 261.72 103.61"/><polygon class="ae" points="249.45 100.83 246.09 99.87 245.42 98.17 247.95 97.81 249.45 100.83"/><polygon class="ae" points="264.02 107.06 264.48 111.85 259.05 107.8 261.72 103.61 264.02 107.06"/><polygon class="ae" points="257.2 104.23 249.45 100.83 246.09 99.87 247.37 103.1 257.2 104.23"/></g><path class="ae" d="M300.05,53.58l-8.3-31.7L275.53,0l-22.64,10.94-5.66,18.86-8.3,12.08,2.49,14.51-20.79-2.21-7.32,28.35,16.94,17.69,15.17-2.04s.67,1.7,.67,1.7l1.28,3.22,7.73,3.96,1.01,7.19,3.76,1.11,5.77-1.15-1.17-2.35,11.94-7.62,2.12-4.02-3.28-.74-.35,2.14-10.89,5.45-2.3-3.45,1.23-6.92-2.43-.55-2.01,.27-1.32,7.81-7.75-3.4-1.48-3,12.56-1.69,18.02,4.07,26.03-6.27,11.7-26.41-16.22-13.96Z"/></g><g><polygon class="ae" points="143.89 154.24 137.28 157.85 120.61 159.35 109.47 156.14 110.71 152.47 128.89 148.97 143.89 154.24"/><g><g><g><polygon class="ae" points="123.62 155.99 130.45 154.06 124.83 156.3 123.62 155.99"/><polygon class="ae" points="123.62 155.99 130.45 154.06 124.83 156.3 123.62 155.99"/></g><polygon class="ae" points="141.95 148.97 140.79 152.55 135.96 157.02 129.01 158.32 137.28 157.85 143.89 154.24 141.95 148.97"/><g><polygon class="ae" points="122.09 151.65 134.53 152.13 130.45 154.06 123.62 155.99 120.65 155.23 122.09 151.65"/><polygon class="ae" points="122.09 151.65 134.53 152.13 130.45 154.06 123.62 155.99 120.65 155.23 122.09 151.65"/></g><g><polygon class="ae" points="129.01 158.32 130.45 154.06 134.53 152.13 140.79 152.55 135.96 157.02 129.01 158.32"/><polygon class="ae" points="129.01 158.32 130.45 154.06 134.53 152.13 140.79 152.55 135.96 157.02 129.01 158.32"/></g><g><polygon class="ae" points="134.53 152.13 141.95 148.97 140.79 152.55 134.53 152.13"/><polygon class="ae" points="134.53 152.13 141.95 148.97 140.79 152.55 134.53 152.13"/></g><g><polygon class="ae" points="141.95 148.97 134.53 152.13 122.09 151.65 128.89 148.97 141.95 148.97"/><polygon class="ae" points="141.95 148.97 134.53 152.13 122.09 151.65 128.89 148.97 141.95 148.97"/></g></g><polygon class="ae" points="141.95 148.97 128.89 148.97 122.09 151.65 120.65 155.23 123.62 155.99 124.83 156.3 130.45 154.06 129.01 158.32 137.28 157.85 143.89 154.24 141.95 148.97"/></g></g><g><polygon class="ae" points="164.32 167.38 165.9 170.56 148.97 172.73 137.82 169.53 139.07 165.84 158.64 163.76 164.32 167.38"/><g><g><g><polygon class="ae" points="151.51 164.89 154.89 167.78 156.13 169.6 165.9 170.56 164.32 167.38 168.93 166.9 171.94 165.52 164.81 164.2 158.64 163.76 151.51 164.89"/><polygon class="ae" points="151.51 164.89 154.89 167.78 156.13 169.6 165.9 170.56 164.32 167.38 168.93 166.9 171.94 165.52 164.81 164.2 158.64 163.76 151.51 164.89"/></g><g><polygon class="ae" points="151.51 164.89 164.32 167.38 156.13 169.6 154.89 167.78 151.51 164.89"/><polygon class="ae" points="151.51 164.89 164.32 167.38 156.13 169.6 154.89 167.78 151.51 164.89"/></g><polygon class="ae" points="164.32 167.38 164.81 164.2 171.94 165.52 168.93 166.9 164.32 167.38"/><g><polygon class="ae" points="164.32 167.38 151.51 164.89 158.64 163.76 164.81 164.2 164.32 167.38"/><polygon class="ae" points="164.32 167.38 151.51 164.89 158.64 163.76 164.81 164.2 164.32 167.38"/></g></g><polygon class="ae" points="171.94 165.52 164.81 164.2 158.64 163.76 151.51 164.89 154.89 167.78 156.13 169.6 165.9 170.56 164.32 167.38 168.93 166.9 171.94 165.52"/></g></g><g><polygon class="ae" points="45.68 164.92 43.74 134.56 52.83 100.59 49.69 134.28 53.12 162.63 45.68 164.92"/><polygon class="ae" points="45.47 164.89 39.71 135.92 20.97 124.99 34.36 136.55 39.06 167.37 45.47 164.89"/><polygon class="ae" points="56.27 158.32 60.03 135.95 69.13 126.31 63.4 137.16 61.87 156.87 56.27 158.32"/><polygon class="ae" points="77.06 147.08 79.56 128.7 80.61 146.23 77.06 147.08"/><polygon class="ae" points="39.61 167.45 34.53 154.06 27.97 143.79 37.21 151.52 43.39 166.7 39.61 167.45"/><polygon class="ae" points="55.95 158.8 55.19 140.87 50.07 125.82 58.61 138.26 61.79 158.81 55.95 158.8"/><polygon class="ae" points="71.32 151.65 69.95 142.67 68.32 146.78 68.39 140.65 72.06 140.23 74.5 150.02 71.32 151.65"/><polygon class="ae" points="69.95 142.67 68.39 140.65 68.32 146.78 69.95 142.67"/></g><polygon class="ae" points="235.81 136.23 235.57 131.83 208.49 130 184.26 132.87 182.33 140.67 210.62 135.75 235.81 136.23"/><polygon class="ae" points="184.26 132.87 182.33 140.67 109.15 138.34 104.13 131.83 184.26 132.87"/><polygon class="ae" points="109.15 138.34 104.13 131.83 38.22 168.24 59.62 172.69 109.15 138.34"/><polygon class="ae" points="235.57 131.83 235.81 136.23 281.48 125.01 311.27 128.7 283.11 121.95 235.57 131.83"/><polygon class="ae" points="283.11 121.95 235.39 131.82 208.49 130 184.26 132.87 104.13 131.83 38.22 168.24 59.62 172.69 109.15 138.34 182.33 140.67 210.62 135.75 235.81 136.23 281.48 125.01 311.27 128.7 283.11 121.95"/></g></g></g></g></g></svg>