<?xml version="1.0" encoding="UTF-8"?><svg xmlns="http://www.w3.org/2000/svg" xmlns:xlink="http://www.w3.org/1999/xlink" viewBox="0 0 311.27 274.62"><defs><style>.a`{fill:url(#x);}.aa{fill:url(#y);}.ab{fill:url(#t);}.ab,.ac,.ad,.ae,.af,.ag,.ah{opacity:.55;}.ab,.ac,.ad,.ae,.af,.ag,.ah,.ai,.aj,.ak,.al,.am,.an,.ao,.ap,.aq,.ar,.as,.at,.au,.av,.aw{mix-blend-mode:soft-light;}.ac{fill:url(#i);}.ad{fill:url(#h);}.ae{fill:url(#f);}.af{fill:url(#d);}.ag{fill:url(#e);}.ah{fill:url(#g);}.ai{fill:url(#v);opacity:.66;}.aj{fill:url(#u);}.aj,.ak,.al,.am,.an,.ao,.ap,.aq{opacity:.77;}.ak{fill:url(#s);}.al{fill:url(#k);}.am{fill:url(#m);}.an{fill:url(#n);}.ao{fill:url(#l);}.ap{fill:url(#p);}.aq{fill:url(#o);}.ax{mix-blend-mode:overlay;opacity:.14;}.ay{fill:#66a2a7;}.b`{fill:#e9cdb3;}.ba{fill:#edbb98;}.bb{fill:#82381a;}.bc{fill:#66310b;}.bd{fill:#80c4bd;}.be{fill:#739e9d;}.bf{fill:#997676;}.bg{fill:#935022;}.bh{fill:#ad6636;}.bi{fill:#a6d8d0;}.bj{fill:#bc7444;}.bk{fill:#bf9e97;}.bl{fill:#c6a8a1;}.bm{fill:#c69675;}.bn{fill:#dbab8a;}.bo{fill:#d6b4ae;}.bp{fill:#a88b86;}.bq{fill:#0a815b;}.br{fill:#08654b;}.bs{fill:#356c76;}.bt{fill:#35593e;}.bu{fill:#94d3cc;}.bv{fill:#538892;}.bw{fill:#5c7c60;}.bx{fill:#589369;}.by{fill:#295149;}.c`{fill:#2b433b;}.ca{fill:#2c6752;}.cb{fill:#315f70;}.cc{fill:#569668;}.cd{fill:#497556;}.ce{fill:#467587;}.cf{fill:#5ca06c;}.cg{fill:#74aa85;}.ch{fill:#5d8c9b;}.ci{fill:#4e825e;}.cj{fill:#4f8065;}.ck{fill:#265165;}.as{fill:url(#j);}.at{fill:url(#q);}.au{fill:url(#r);}.av{fill:url(#w);}.cl{isolation:isolate;}.aw{opacity:.72;}</style><linearGradient id="d" x1="311.27" y1="115.27" x2="0" y2="115.27" gradientTransform="matrix(1, 0, 0, 1, 0, 0)" gradientUnits="userSpaceOnUse"><stop offset="0" stop-color="#e1dbe5"/><stop offset="1" stop-color="#000"/></linearGradient><linearGradient id="e" x1="179.3" y1="225.2" x2="115.81" y2="225.2" xlink:href="#d"/><linearGradient id="f" x1="220.99" y1="214.27" x2="182.37" y2="214.27" xlink:href="#d"/><linearGradient id="g" x1="196.5" y1="264.96" x2="184.26" y2="264.96" xlink:href="#d"/><linearGradient id="h" x2="59.62" y2="115.27" xlink:href="#d"/><linearGradient id="i" y1="43.55" y2="43.55" xlink:href="#d"/><linearGradient id="j" y1="73.65" x2="59.62" y2="73.65" xlink:href="#d"/><linearGradient id="k" x1="11061.78" y1="36.55" x2="10984.36" y2="36.55" gradientTransform="translate(11067.15) rotate(-180) scale(1 -1)" gradientUnits="userSpaceOnUse"><stop offset="0" stop-color="#80768a"/><stop offset="1" stop-color="#000"/></linearGradient><linearGradient id="l" x1="10893.31" y1="43.12" x2="10840.29" y2="43.12" xlink:href="#k"/><linearGradient id="m" x1="11067.15" y1="61.52" x2="11004.07" y2="61.52" xlink:href="#k"/><linearGradient id="n" x1="10927.12" y1="19.76" x2="10849.71" y2="19.76" xlink:href="#k"/><linearGradient id="o" x1="10898.52" y1="31.62" x2="10801.5" y2="31.62" xlink:href="#k"/><linearGradient id="p" x1="10977.94" y1="23.63" x2="10902.95" y2="23.63" xlink:href="#k"/><linearGradient id="q" x1="63.08" y1="52.68" x2="16.63" y2="52.68" xlink:href="#d"/><linearGradient id="r" x1="226.65" y1="38.67" x2="197.4" y2="38.67" xlink:href="#d"/><linearGradient id="s" x1="10957.68" y1="73.01" x2="10923.26" y2="73.01" xlink:href="#k"/><linearGradient id="t" x1="143.89" y1="72.49" x2="120.65" y2="72.49" xlink:href="#d"/><linearGradient id="u" x1="10929.33" y1="87.09" x2="10901.25" y2="87.09" xlink:href="#k"/><linearGradient id="v" x1="171.94" y1="86" x2="151.51" y2="86" xlink:href="#d"/><linearGradient id="w" x1="311.27" y1="66.17" x2="38.22" y2="66.17" gradientTransform="matrix(1, 0, 0, 1, 0, 0)" gradientUnits="userSpaceOnUse"><stop offset="0" stop-color="#e1dbe5"/><stop offset="1" stop-color="gray"/></linearGradient><radialGradient id="x" cx="314.37" cy="197.14" fx="314.37" fy="197.14" r="72.18" gradientTransform="matrix(1, 0, 0, 1, 0, 0)" gradientUnits="userSpaceOnUse"><stop offset="0" stop-color="#fff"/><stop offset=".14" stop-color="#f6f6f6"/><stop offset=".37" stop-color="#dedede"/><stop offset=".65" stop-color="#b8b8b8"/><stop offset=".98" stop-color="#838383"/><stop offset="1" stop-color="gray"/></radialGradient><radialGradient id="y" cx="16.5" cy="212.39" fx="16.5" fy="212.39" r="152.94" gradientTransform="matrix(1, 0, 0, 1, 0, 0)" gradientUnits="userSpaceOnUse"><stop offset="0" stop-color="#fff"/><stop offset="1" stop-color="gray"/></radialGradient></defs><g class="cl"><g id="a"/><g id="b"><g id="c"><g><g><polygon class="bc" points="0 55.84 26.41 114.76 45.27 122.62 50.93 134.62 65.46 134.32 79.99 168.27 107.53 177.33 136.2 174.14 152.43 182.99 224.87 177.33 231.28 166.01 254.3 158.58 275.05 110.55 288.63 106.77 311.27 47.54 0 55.84"/><polygon class="bc" points="115.81 197.97 148.7 189.28 179.3 203.98 171.01 243.75 164.43 261.12 150.7 258.45 139.55 238.07 121.81 227.37 115.81 197.97"/><polygon class="bc" points="210.4 219.07 182.37 240.02 191.58 200.1 198.69 188.52 220.99 189.98 212.28 204.51 210.4 219.07"/><polygon class="bb" points="193.6 255.3 184.26 260.45 184.26 269.47 188.93 274.62 196.5 264.96 193.6 255.3"/><polygon class="bb" points="66.03 122.45 50.93 134.62 45.27 122.62 26.41 114.76 38.22 87.09 59.62 91.54 66.03 122.45"/><polygon class="bj" points="152.43 182.99 135.07 161.86 107.53 177.33 136.2 174.14 152.43 182.99"/><polygon class="bg" points="50.93 134.62 65.46 134.32 79.99 168.27 92.21 156.95 75.91 123.77 66.03 122.45 50.93 134.62"/><polygon class="bh" points="79.99 168.27 92.21 156.95 135.07 161.86 107.53 177.33 79.99 168.27"/><polygon class="af" points="0 55.84 26.41 114.76 45.27 122.62 50.93 134.62 65.46 134.32 79.99 168.27 107.53 177.33 136.2 174.14 152.43 182.99 224.87 177.33 231.28 166.01 254.3 158.58 275.05 110.55 288.63 106.77 311.27 47.54 0 55.84"/><polygon class="bj" points="150.7 258.45 179.3 203.98 171.01 243.75 164.43 261.12 150.7 258.45"/><polygon class="bg" points="139.55 238.07 148.7 189.28 179.3 203.98 150.7 258.45 139.55 238.07"/><polygon class="bb" points="121.81 227.37 148.7 189.28 139.55 238.07 121.81 227.37"/><polygon class="ag" points="148.7 189.28 115.81 197.97 121.81 227.37 139.55 238.07 150.7 258.45 164.43 261.12 171.01 243.75 179.3 203.98 148.7 189.28"/><polygon class="bj" points="182.37 240.02 212.28 204.51 210.4 219.07 182.37 240.02"/><polygon class="bb" points="220.99 189.98 191.58 200.1 182.37 240.02 212.28 204.51 220.99 189.98"/><polygon class="ae" points="198.69 188.52 191.58 200.1 182.37 240.02 210.4 219.07 212.28 204.51 220.99 189.98 198.69 188.52"/><polygon class="bg" points="193.6 255.3 188.93 274.62 196.5 264.96 193.6 255.3"/><polygon class="ah" points="193.6 255.3 184.26 260.45 184.26 269.47 188.93 274.61 196.5 264.96 193.6 255.3"/><polygon class="be" points="61.49 90.24 59.62 91.54 66.03 122.45 75.91 123.77 92.21 156.95 135.07 161.86 152.43 182.99 224.87 177.33 231.28 166.01 254.3 158.58 275.05 110.55 288.63 106.77 308.91 50.68 61.49 90.24"/><polygon class="bs" points="106.44 100.83 135.07 161.86 92.21 156.95 75.91 123.77 106.44 100.83"/><polygon class="ck" points="106.44 100.83 59.62 91.54 66.03 122.45 75.91 123.77 106.44 100.83"/><polygon class="ay" points="231.28 166.01 275.05 110.55 254.3 158.58 231.28 166.01"/><polygon class="bv" points="275.05 110.55 243.74 94.44 289.2 76.91 288.63 106.77 275.05 110.55"/><polygon class="ay" points="288.63 106.77 311.27 47.54 289.2 76.91 288.63 106.77"/><polygon class="ce" points="135.07 161.86 182.37 146.63 224.87 177.33 152.43 182.99 135.07 161.86"/><polygon class="cb" points="182.37 146.63 106.44 100.83 135.07 161.86 182.37 146.63"/><polygon class="bs" points="182.37 146.63 275.05 110.55 224.87 177.33 182.37 146.63"/><polygon class="ce" points="275.05 110.55 243.74 94.44 176.72 103.44 275.05 110.55"/><polygon class="ce" points="182.37 146.63 176.72 103.44 106.44 100.83 182.37 146.63"/><polygon class="ch" points="275.05 110.55 176.72 103.44 182.37 146.63 275.05 110.55"/><polygon class="ad" points="289.2 76.91 243.74 94.44 176.72 103.44 106.44 100.83 59.62 91.54 66.03 122.45 75.91 123.77 92.21 156.95 135.07 161.86 152.43 182.99 224.87 177.33 234.04 165.12 254.3 158.58 275.05 110.55 288.63 106.77 311.27 47.54 289.2 76.91"/><polygon class="bw" points="274.02 16.42 233.99 5.06 160.35 0 85.72 5.14 47.75 12.66 7.95 32.33 0 55.84 38.22 87.09 106.44 100.83 176.72 103.44 243.74 94.44 289.2 76.91 311.27 47.54 274.02 16.42"/><polygon class="bu" points="104.13 100.83 182.33 59.52 209.78 54.6 243.74 94.44 176.72 103.44 104.13 100.83"/><polygon class="bi" points="209.78 54.6 235.81 55.08 281.48 43.86 311.27 47.54 289.2 76.91 243.74 94.44 209.78 54.6"/><polygon class="ca" points="184.26 51.72 120.97 34.21 85.72 5.14 160.35 0 233.99 5.06 208.49 48.84 184.26 51.72"/><polygon class="by" points="184.26 51.72 120.97 34.21 85.72 5.14 47.75 12.66 7.95 32.33 0 55.84 104.13 50.68 184.26 51.72"/><polygon class="c`" points="38.22 87.09 104.13 50.68 0 55.84 38.22 87.09"/><polygon class="cj" points="208.49 48.84 233.99 5.06 274.02 16.42 311.27 47.54 283.11 40.8 235.57 50.68 208.49 48.84"/><polygon class="ac" points="274.02 16.42 233.99 5.06 160.35 0 85.72 5.14 47.75 12.66 7.95 32.33 0 55.84 38.22 87.09 104.13 50.68 184.26 51.72 208.49 48.84 235.57 50.68 283.11 40.8 311.27 47.54 274.02 16.42"/><polygon class="bd" points="104.13 100.83 182.33 59.52 109.15 57.19 59.62 91.54 104.13 100.83"/><polygon class="as" points="281.48 43.86 235.81 55.08 209.78 54.6 182.33 59.52 109.15 57.19 59.62 91.54 104.13 100.83 176.72 103.44 243.74 94.44 289.2 76.91 311.27 47.54 281.48 43.86"/><polygon class="al" points="82.79 36.67 65.27 40.8 28.45 46.59 5.37 39.96 7.95 32.33 19.76 26.5 82.79 36.67"/><polygon class="ao" points="226.86 42.17 210.48 45.41 189.64 48.97 173.84 44.42 175.6 39.2 196.49 37.27 226.86 42.17"/><polygon class="am" points="63.08 61.81 47.67 65.44 17.54 70.19 0 55.84 7.63 52.86 63.08 61.81"/><polygon class="an" points="217.44 19.89 211.14 23.16 163.1 29.81 140.03 23.17 142.61 15.55 154.42 9.71 217.44 19.89"/><polygon class="aq" points="265.65 33.05 243.93 36.47 197.64 43.08 168.63 35.51 171.87 26.82 186.72 20.16 265.65 33.05"/><polygon class="ap" points="164.2 24.35 149.12 28.23 112.29 34.02 89.22 27.39 91.79 19.77 139.45 13.23 164.2 24.35"/><polygon class="bl" points="197.4 42.63 208.77 31.93 214.73 31.93 225.46 39.02 226.65 42.02 210.48 45.41 207.11 43.58 197.4 42.63"/><polygon class="bo" points="39.52 66.09 53.05 44.78 56.92 54.6 63.08 61.8 39.52 66.09"/><polygon class="bk" points="39.52 44.29 24.43 44.92 37.16 39.25 53.05 44.78 39.52 44.29"/><polygon class="bf" points="24.43 44.92 39.52 66.09 24.43 63.25 16.63 59.15 24.43 44.92"/><polygon class="bp" points="24.43 44.92 40.23 44.31 53.05 44.78 39.52 66.09 24.43 44.92"/><g><polygon class="bo" points="39.52 66.09 53.05 44.78 56.92 54.6 63.08 61.8 39.52 66.09"/><polygon class="bk" points="39.52 44.29 24.43 44.92 37.16 39.25 53.05 44.78 39.52 44.29"/><polygon class="bf" points="24.43 44.92 39.52 66.09 24.43 63.25 16.63 59.15 24.43 44.92"/><polygon class="bp" points="24.43 44.92 40.23 44.31 53.05 44.78 39.52 66.09 24.43 44.92"/></g><polygon class="at" points="56.92 54.6 53.05 44.78 37.16 39.25 24.43 44.92 16.63 59.16 24.43 63.25 39.52 66.1 63.08 61.8 56.92 54.6"/><polygon class="bf" points="207.11 43.58 210.48 45.41 211.59 34.9 208.77 31.93 197.4 42.63 207.11 43.58"/><polygon class="bk" points="211.59 34.9 225.46 39.02 214.73 31.93 208.77 31.93 211.59 34.9"/><polygon class="bo" points="226.65 42.02 210.48 45.41 211.59 34.9 225.46 39.02 226.65 42.02"/><polygon class="au" points="225.46 39.02 214.73 31.93 208.77 31.93 197.4 42.63 207.11 43.58 210.48 45.41 226.65 42.02 225.46 39.02"/><g><polygon class="ak" points="143.89 73.08 137.28 76.7 120.61 78.2 109.47 74.99 110.71 71.31 128.89 67.81 143.89 73.08"/><g><g><polygon class="ci" points="123.62 74.83 130.45 72.91 124.83 75.14 123.62 74.83"/><polygon class="cg" points="141.95 67.81 140.79 71.4 135.96 75.87 129.01 77.17 137.28 76.7 143.89 73.08 141.95 67.81"/><polygon class="bt" points="122.09 70.49 134.53 70.97 130.45 72.91 123.62 74.83 120.65 74.08 122.09 70.49"/><polygon class="ci" points="129.01 77.17 130.45 72.91 134.53 70.97 140.79 71.4 135.96 75.87 129.01 77.17"/><polygon class="cc" points="134.53 70.97 141.95 67.81 140.79 71.4 134.53 70.97"/><polygon class="cd" points="141.95 67.81 134.53 70.97 122.09 70.49 128.89 67.81 141.95 67.81"/></g><polygon class="ab" points="141.95 67.81 128.89 67.81 122.09 70.49 120.65 74.08 123.62 74.83 124.83 75.14 130.45 72.91 129.01 77.17 137.28 76.7 143.89 73.08 141.95 67.81"/></g></g><g><polygon class="aj" points="164.32 86.22 165.9 89.4 148.97 91.58 137.82 88.37 139.07 84.69 158.64 82.6 164.32 86.22"/><g><g><polygon class="bx" points="151.51 83.74 154.89 86.62 156.13 88.45 165.9 89.4 164.32 86.22 168.93 85.74 171.94 84.36 164.81 83.05 158.64 82.6 151.51 83.74"/><polygon class="ci" points="151.51 83.74 164.32 86.22 156.13 88.45 154.89 86.62 151.51 83.74"/><polygon class="cg" points="164.32 86.22 164.81 83.05 171.94 84.36 168.93 85.74 164.32 86.22"/><polygon class="cf" points="164.32 86.22 151.51 83.74 158.64 82.6 164.81 83.05 164.32 86.22"/></g><polygon class="ai" points="171.94 84.36 164.81 83.05 158.64 82.6 151.51 83.74 154.89 86.62 156.13 88.45 165.9 89.4 164.32 86.22 168.93 85.74 171.94 84.36"/></g></g><g><polygon class="bq" points="45.68 83.76 43.74 53.4 52.83 19.44 49.69 53.12 53.12 81.48 45.68 83.76"/><polygon class="br" points="45.47 83.74 39.71 54.77 20.97 43.83 34.36 55.4 39.06 86.22 45.47 83.74"/><polygon class="br" points="56.27 77.17 60.03 54.79 69.13 45.15 63.4 56.01 61.87 75.71 56.27 77.17"/><polygon class="bq" points="77.06 65.93 79.56 47.54 80.61 65.07 77.06 65.93"/><polygon class="bq" points="39.61 86.29 34.53 72.91 27.97 62.63 37.21 70.37 43.39 85.54 39.61 86.29"/><polygon class="bq" points="55.95 77.64 55.19 59.71 50.07 44.67 58.61 57.11 61.79 77.65 55.95 77.64"/><polygon class="bq" points="71.32 70.49 69.95 61.51 68.32 65.62 68.39 59.49 72.06 59.08 74.5 68.86 71.32 70.49"/><polygon class="br" points="69.95 61.51 68.39 59.49 68.32 65.62 69.95 61.51"/></g><polygon class="ba" points="235.81 55.08 235.57 50.68 208.49 48.84 184.26 51.72 182.33 59.52 210.62 54.6 235.81 55.08"/><polygon class="bn" points="184.26 51.72 182.33 59.52 109.15 57.19 104.13 50.68 184.26 51.72"/><polygon class="bm" points="109.15 57.19 104.13 50.68 38.22 87.09 59.62 91.54 109.15 57.19"/><polygon class="b`" points="235.57 50.68 235.81 55.08 281.48 43.86 311.27 47.54 283.11 40.8 235.57 50.68"/><polygon class="av" points="283.11 40.8 235.39 50.67 208.49 48.84 184.26 51.72 104.13 50.68 38.22 87.09 59.62 91.54 109.15 57.19 182.33 59.52 210.62 54.6 235.81 55.08 281.48 43.86 311.27 47.54 283.11 40.8"/></g><g class="ar"><g><polygon class="a`" points="0 55.84 26.41 114.76 45.27 122.62 50.93 134.62 65.46 134.32 79.99 168.27 107.53 177.33 136.2 174.14 152.43 182.99 224.87 177.33 231.28 166.01 254.3 158.58 275.05 110.55 288.63 106.77 311.27 47.54 0 55.84"/><polygon class="a`" points="0 55.84 26.41 114.76 45.27 122.62 50.93 134.62 65.46 134.32 79.99 168.27 107.53 177.33 136.2 174.14 152.43 182.99 224.87 177.33 231.28 166.01 254.3 158.58 275.05 110.55 288.63 106.77 311.27 47.54 0 55.84"/></g><g><polygon class="a`" points="115.81 197.97 148.7 189.28 179.3 203.98 171.01 243.75 164.43 261.12 150.7 258.45 139.55 238.07 121.81 227.37 115.81 197.97"/><polygon class="a`" points="115.81 197.97 148.7 189.28 179.3 203.98 171.01 243.75 164.43 261.12 150.7 258.45 139.55 238.07 121.81 227.37 115.81 197.97"/></g><g><polygon class="a`" points="210.4 219.07 182.37 240.02 191.58 200.1 198.69 188.52 220.99 189.98 212.28 204.51 210.4 219.07"/><polygon class="a`" points="210.4 219.07 182.37 240.02 191.58 200.1 198.69 188.52 220.99 189.98 212.28 204.51 210.4 219.07"/></g><g><polygon class="a`" points="193.6 255.3 184.26 260.45 184.26 269.47 188.93 274.62 196.5 264.96 193.6 255.3"/><polygon class="a`" points="193.6 255.3 184.26 260.45 184.26 269.47 188.93 274.62 196.5 264.96 193.6 255.3"/></g><g><polygon class="a`" points="66.03 122.45 50.93 134.62 45.27 122.62 26.41 114.76 38.22 87.09 59.62 91.54 66.03 122.45"/><polygon class="a`" points="66.03 122.45 50.93 134.62 45.27 122.62 26.41 114.76 38.22 87.09 59.62 91.54 66.03 122.45"/></g><g><polygon class="a`" points="152.43 182.99 135.07 161.86 107.53 177.33 136.2 174.14 152.43 182.99"/><polygon class="a`" points="152.43 182.99 135.07 161.86 107.53 177.33 136.2 174.14 152.43 182.99"/></g><g><polygon class="a`" points="50.93 134.62 65.46 134.32 79.99 168.27 92.21 156.95 75.91 123.77 66.03 122.45 50.93 134.62"/><polygon class="a`" points="50.93 134.62 65.46 134.32 79.99 168.27 92.21 156.95 75.91 123.77 66.03 122.45 50.93 134.62"/></g><g><polygon class="a`" points="79.99 168.27 92.21 156.95 135.07 161.86 107.53 177.33 79.99 168.27"/><polygon class="a`" points="79.99 168.27 92.21 156.95 135.07 161.86 107.53 177.33 79.99 168.27"/></g><polygon class="a`" points="0 55.84 26.41 114.76 45.27 122.62 50.93 134.62 65.46 134.32 79.99 168.27 107.53 177.33 136.2 174.14 152.43 182.99 224.87 177.33 231.28 166.01 254.3 158.58 275.05 110.55 288.63 106.77 311.27 47.54 0 55.84"/><g><polygon class="a`" points="150.7 258.45 179.3 203.98 171.01 243.75 164.43 261.12 150.7 258.45"/><polygon class="a`" points="150.7 258.45 179.3 203.98 171.01 243.75 164.43 261.12 150.7 258.45"/></g><g><polygon class="a`" points="139.55 238.07 148.7 189.28 179.3 203.98 150.7 258.45 139.55 238.07"/><polygon class="a`" points="139.55 238.07 148.7 189.28 179.3 203.98 150.7 258.45 139.55 238.07"/></g><g><polygon class="a`" points="121.81 227.37 148.7 189.28 139.55 238.07 121.81 227.37"/><polygon class="a`" points="121.81 227.37 148.7 189.28 139.55 238.07 121.81 227.37"/></g><polygon class="a`" points="148.7 189.28 115.81 197.97 121.81 227.37 139.55 238.07 150.7 258.45 164.43 261.12 171.01 243.75 179.3 203.98 148.7 189.28"/><g><polygon class="a`" points="182.37 240.02 212.28 204.51 210.4 219.07 182.37 240.02"/><polygon class="a`" points="182.37 240.02 212.28 204.51 210.4 219.07 182.37 240.02"/></g><g><polygon class="a`" points="220.99 189.98 191.58 200.1 182.37 240.02 212.28 204.51 220.99 189.98"/><polygon class="a`" points="220.99 189.98 191.58 200.1 182.37 240.02 212.28 204.51 220.99 189.98"/></g><polygon class="a`" points="198.69 188.52 191.58 200.1 182.37 240.02 210.4 219.07 212.28 204.51 220.99 189.98 198.69 188.52"/><g><polygon class="a`" points="193.6 255.3 188.93 274.62 196.5 264.96 193.6 255.3"/><polygon class="a`" points="193.6 255.3 188.93 274.62 196.5 264.96 193.6 255.3"/></g><polygon class="a`" points="193.6 255.3 184.26 260.45 184.26 269.47 188.93 274.61 196.5 264.96 193.6 255.3"/><polygon class="a`" points="61.49 90.24 59.62 91.54 66.03 122.45 75.91 123.77 92.21 156.95 135.07 161.86 152.43 182.99 224.87 177.33 231.28 166.01 254.3 158.58 275.05 110.55 288.63 106.77 308.91 50.68 61.49 90.24"/><polygon class="a`" points="106.44 100.83 135.07 161.86 92.21 156.95 75.91 123.77 106.44 100.83"/><polygon class="a`" points="106.44 100.83 59.62 91.54 66.03 122.45 75.91 123.77 106.44 100.83"/><polygon class="a`" points="231.28 166.01 275.05 110.55 254.3 158.58 231.28 166.01"/><polygon class="a`" points="275.05 110.55 243.74 94.44 289.2 76.91 288.63 106.77 275.05 110.55"/><polygon class="a`" points="288.63 106.77 311.27 47.54 289.2 76.91 288.63 106.77"/><polygon class="a`" points="135.07 161.86 182.37 146.63 224.87 177.33 152.43 182.99 135.07 161.86"/><polygon class="a`" points="182.37 146.63 106.44 100.83 135.07 161.86 182.37 146.63"/><polygon class="a`" points="182.37 146.63 275.05 110.55 224.87 177.33 182.37 146.63"/><polygon class="a`" points="275.05 110.55 243.74 94.44 176.72 103.44 275.05 110.55"/><polygon class="a`" points="182.37 146.63 176.72 103.44 106.44 100.83 182.37 146.63"/><polygon class="a`" points="275.05 110.55 176.72 103.44 182.37 146.63 275.05 110.55"/><polygon class="a`" points="289.2 76.91 243.74 94.44 176.72 103.44 106.44 100.83 59.62 91.54 66.03 122.45 75.91 123.77 92.21 156.95 135.07 161.86 152.43 182.99 224.87 177.33 234.04 165.12 254.3 158.58 275.05 110.55 288.63 106.77 311.27 47.54 289.2 76.91"/><polygon class="a`" points="274.02 16.42 233.99 5.06 160.35 0 85.72 5.14 47.75 12.66 7.95 32.33 0 55.84 38.22 87.09 106.44 100.83 176.72 103.44 243.74 94.44 289.2 76.91 311.27 47.54 274.02 16.42"/><polygon class="a`" points="104.13 100.83 182.33 59.52 209.78 54.6 243.74 94.44 176.72 103.44 104.13 100.83"/><polygon class="a`" points="209.78 54.6 235.81 55.08 281.48 43.86 311.27 47.54 289.2 76.91 243.74 94.44 209.78 54.6"/><polygon class="a`" points="184.26 51.72 120.97 34.21 85.72 5.14 160.35 0 233.99 5.06 208.49 48.84 184.26 51.72"/><polygon class="a`" points="184.26 51.72 120.97 34.21 85.72 5.14 47.75 12.66 7.95 32.33 0 55.84 104.13 50.68 184.26 51.72"/><polygon class="a`" points="38.22 87.09 104.13 50.68 0 55.84 38.22 87.09"/><polygon class="a`" points="208.49 48.84 233.99 5.06 274.02 16.42 311.27 47.54 283.11 40.8 235.57 50.68 208.49 48.84"/><polygon class="a`" points="274.02 16.42 233.99 5.06 160.35 0 85.72 5.14 47.75 12.66 7.95 32.33 0 55.84 38.22 87.09 104.13 50.68 184.26 51.72 208.49 48.84 235.57 50.68 283.11 40.8 311.27 47.54 274.02 16.42"/><polygon class="a`" points="104.13 100.83 182.33 59.52 109.15 57.19 59.62 91.54 104.13 100.83"/><polygon class="a`" points="281.48 43.86 235.81 55.08 209.78 54.6 182.33 59.52 109.15 57.19 59.62 91.54 104.13 100.83 176.72 103.44 243.74 94.44 289.2 76.91 311.27 47.54 281.48 43.86"/><polygon class="a`" points="82.79 36.67 65.27 40.8 28.45 46.59 5.37 39.96 7.95 32.33 19.76 26.5 82.79 36.67"/><polygon class="a`" points="226.86 42.17 210.48 45.41 189.64 48.97 173.84 44.42 175.6 39.2 196.49 37.27 226.86 42.17"/><polygon class="a`" points="63.08 61.81 47.67 65.44 17.54 70.19 0 55.84 7.63 52.86 63.08 61.81"/><polygon class="a`" points="217.44 19.89 211.14 23.16 163.1 29.81 140.03 23.17 142.61 15.55 154.42 9.71 217.44 19.89"/><polygon class="a`" points="265.65 33.05 243.93 36.47 197.64 43.08 168.63 35.51 171.87 26.82 186.72 20.16 265.65 33.05"/><polygon class="a`" points="164.2 24.35 149.12 28.23 112.29 34.02 89.22 27.39 91.79 19.77 139.45 13.23 164.2 24.35"/><polygon class="a`" points="197.4 42.63 208.77 31.93 214.73 31.93 225.46 39.02 226.65 42.02 210.48 45.41 207.11 43.58 197.4 42.63"/><polygon class="a`" points="39.52 66.09 53.05 44.78 56.92 54.6 63.08 61.8 39.52 66.09"/><polygon class="a`" points="39.52 44.29 24.43 44.92 37.16 39.25 53.05 44.78 39.52 44.29"/><polygon class="a`" points="24.43 44.92 39.52 66.09 24.43 63.25 16.63 59.15 24.43 44.92"/><polygon class="a`" points="24.43 44.92 40.23 44.31 53.05 44.78 39.52 66.09 24.43 44.92"/><g><polygon class="a`" points="39.52 66.09 53.05 44.78 56.92 54.6 63.08 61.8 39.52 66.09"/><polygon class="a`" points="39.52 44.29 24.43 44.92 37.16 39.25 53.05 44.78 39.52 44.29"/><polygon class="a`" points="24.43 44.92 39.52 66.09 24.43 63.25 16.63 59.15 24.43 44.92"/><polygon class="a`" points="24.43 44.92 40.23 44.31 53.05 44.78 39.52 66.09 24.43 44.92"/></g><polygon class="a`" points="56.92 54.6 53.05 44.78 37.16 39.25 24.43 44.92 16.63 59.16 24.43 63.25 39.52 66.1 63.08 61.8 56.92 54.6"/><polygon class="a`" points="207.11 43.58 210.48 45.41 211.59 34.9 208.77 31.93 197.4 42.63 207.11 43.58"/><polygon class="a`" points="211.59 34.9 225.46 39.02 214.73 31.93 208.77 31.93 211.59 34.9"/><polygon class="a`" points="226.65 42.02 210.48 45.41 211.59 34.9 225.46 39.02 226.65 42.02"/><polygon class="a`" points="225.46 39.02 214.73 31.93 208.77 31.93 197.4 42.63 207.11 43.58 210.48 45.41 226.65 42.02 225.46 39.02"/><g><polygon class="a`" points="143.89 73.08 137.28 76.7 120.61 78.2 109.47 74.99 110.71 71.31 128.89 67.81 143.89 73.08"/><g><g><g><polygon class="a`" points="123.62 74.83 130.45 72.91 124.83 75.14 123.62 74.83"/><polygon class="a`" points="123.62 74.83 130.45 72.91 124.83 75.14 123.62 74.83"/></g><polygon class="a`" points="141.95 67.81 140.79 71.4 135.96 75.87 129.01 77.17 137.28 76.7 143.89 73.08 141.95 67.81"/><g><polygon class="a`" points="122.09 70.49 134.53 70.97 130.45 72.91 123.62 74.83 120.65 74.08 122.09 70.49"/><polygon class="a`" points="122.09 70.49 134.53 70.97 130.45 72.91 123.62 74.83 120.65 74.08 122.09 70.49"/></g><g><polygon class="a`" points="129.01 77.17 130.45 72.91 134.53 70.97 140.79 71.4 135.96 75.87 129.01 77.17"/><polygon class="a`" points="129.01 77.17 130.45 72.91 134.53 70.97 140.79 71.4 135.96 75.87 129.01 77.17"/></g><g><polygon class="a`" points="134.53 70.97 141.95 67.81 140.79 71.4 134.53 70.97"/><polygon class="a`" points="134.53 70.97 141.95 67.81 140.79 71.4 134.53 70.97"/></g><g><polygon class="a`" points="141.95 67.81 134.53 70.97 122.09 70.49 128.89 67.81 141.95 67.81"/><polygon class="a`" points="141.95 67.81 134.53 70.97 122.09 70.49 128.89 67.81 141.95 67.81"/></g></g><polygon class="a`" points="141.95 67.81 128.89 67.81 122.09 70.49 120.65 74.08 123.62 74.83 124.83 75.14 130.45 72.91 129.01 77.17 137.28 76.7 143.89 73.08 141.95 67.81"/></g></g><g><polygon class="a`" points="164.32 86.22 165.9 89.4 148.97 91.58 137.82 88.37 139.07 84.69 158.64 82.6 164.32 86.22"/><g><g><g><polygon class="a`" points="151.51 83.74 154.89 86.62 156.13 88.45 165.9 89.4 164.32 86.22 168.93 85.74 171.94 84.36 164.81 83.05 158.64 82.6 151.51 83.74"/><polygon class="a`" points="151.51 83.74 154.89 86.62 156.13 88.45 165.9 89.4 164.32 86.22 168.93 85.74 171.94 84.36 164.81 83.05 158.64 82.6 151.51 83.74"/></g><g><polygon class="a`" points="151.51 83.74 164.32 86.22 156.13 88.45 154.89 86.62 151.51 83.74"/><polygon class="a`" points="151.51 83.74 164.32 86.22 156.13 88.45 154.89 86.62 151.51 83.74"/></g><polygon class="a`" points="164.32 86.22 164.81 83.05 171.94 84.36 168.93 85.74 164.32 86.22"/><g><polygon class="a`" points="164.32 86.22 151.51 83.74 158.64 82.6 164.81 83.05 164.32 86.22"/><polygon class="a`" points="164.32 86.22 151.51 83.74 158.64 82.6 164.81 83.05 164.32 86.22"/></g></g><polygon class="a`" points="171.94 84.36 164.81 83.05 158.64 82.6 151.51 83.74 154.89 86.62 156.13 88.45 165.9 89.4 164.32 86.22 168.93 85.74 171.94 84.36"/></g></g><g><polygon class="a`" points="45.68 83.76 43.74 53.4 52.83 19.44 49.69 53.12 53.12 81.48 45.68 83.76"/><polygon class="a`" points="45.47 83.74 39.71 54.77 20.97 43.83 34.36 55.4 39.06 86.22 45.47 83.74"/><polygon class="a`" points="56.27 77.17 60.03 54.79 69.13 45.15 63.4 56.01 61.87 75.71 56.27 77.17"/><polygon class="a`" points="77.06 65.93 79.56 47.54 80.61 65.07 77.06 65.93"/><polygon class="a`" points="39.61 86.29 34.53 72.91 27.97 62.63 37.21 70.37 43.39 85.54 39.61 86.29"/><polygon class="a`" points="55.95 77.64 55.19 59.71 50.07 44.67 58.61 57.11 61.79 77.65 55.95 77.64"/><polygon class="a`" points="71.32 70.49 69.95 61.51 68.32 65.62 68.39 59.49 72.06 59.08 74.5 68.86 71.32 70.49"/><polygon class="a`" points="69.95 61.51 68.39 59.49 68.32 65.62 69.95 61.51"/></g><polygon class="a`" points="235.81 55.08 235.57 50.68 208.49 48.84 184.26 51.72 182.33 59.52 210.62 54.6 235.81 55.08"/><polygon class="a`" points="184.26 51.72 182.33 59.52 109.15 57.19 104.13 50.68 184.26 51.72"/><polygon class="a`" points="109.15 57.19 104.13 50.68 38.22 87.09 59.62 91.54 109.15 57.19"/><polygon class="a`" points="235.57 50.68 235.81 55.08 281.48 43.86 311.27 47.54 283.11 40.8 235.57 50.68"/><polygon class="a`" points="283.11 40.8 235.39 50.67 208.49 48.84 184.26 51.72 104.13 50.68 38.22 87.09 59.62 91.54 109.15 57.19 182.33 59.52 210.62 54.6 235.81 55.08 281.48 43.86 311.27 47.54 283.11 40.8"/></g><g class="aw"><g><polygon class="aa" points="0 55.84 26.41 114.76 45.27 122.62 50.93 134.62 65.46 134.32 79.99 168.27 107.53 177.33 136.2 174.14 152.43 182.99 224.87 177.33 231.28 166.01 254.3 158.58 275.05 110.55 288.63 106.77 311.27 47.54 0 55.84"/><polygon class="aa" points="0 55.84 26.41 114.76 45.27 122.62 50.93 134.62 65.46 134.32 79.99 168.27 107.53 177.33 136.2 174.14 152.43 182.99 224.87 177.33 231.28 166.01 254.3 158.58 275.05 110.55 288.63 106.77 311.27 47.54 0 55.84"/></g><g><polygon class="aa" points="115.81 197.97 148.7 189.28 179.3 203.98 171.01 243.75 164.43 261.12 150.7 258.45 139.55 238.07 121.81 227.37 115.81 197.97"/><polygon class="aa" points="115.81 197.97 148.7 189.28 179.3 203.98 171.01 243.75 164.43 261.12 150.7 258.45 139.55 238.07 121.81 227.37 115.81 197.97"/></g><g><polygon class="aa" points="210.4 219.07 182.37 240.02 191.58 200.1 198.69 188.52 220.99 189.98 212.28 204.51 210.4 219.07"/><polygon class="aa" points="210.4 219.07 182.37 240.02 191.58 200.1 198.69 188.52 220.99 189.98 212.28 204.51 210.4 219.07"/></g><g><polygon class="aa" points="193.6 255.3 184.26 260.45 184.26 269.47 188.93 274.62 196.5 264.96 193.6 255.3"/><polygon class="aa" points="193.6 255.3 184.26 260.45 184.26 269.47 188.93 274.62 196.5 264.96 193.6 255.3"/></g><g><polygon class="aa" points="66.03 122.45 50.93 134.62 45.27 122.62 26.41 114.76 38.22 87.09 59.62 91.54 66.03 122.45"/><polygon class="aa" points="66.03 122.45 50.93 134.62 45.27 122.62 26.41 114.76 38.22 87.09 59.62 91.54 66.03 122.45"/></g><g><polygon class="aa" points="152.43 182.99 135.07 161.86 107.53 177.33 136.2 174.14 152.43 182.99"/><polygon class="aa" points="152.43 182.99 135.07 161.86 107.53 177.33 136.2 174.14 152.43 182.99"/></g><g><polygon class="aa" points="50.93 134.62 65.46 134.32 79.99 168.27 92.21 156.95 75.91 123.77 66.03 122.45 50.93 134.62"/><polygon class="aa" points="50.93 134.62 65.46 134.32 79.99 168.27 92.21 156.95 75.91 123.77 66.03 122.45 50.93 134.62"/></g><g><polygon class="aa" points="79.99 168.27 92.21 156.95 135.07 161.86 107.53 177.33 79.99 168.27"/><polygon class="aa" points="79.99 168.27 92.21 156.95 135.07 161.86 107.53 177.33 79.99 168.27"/></g><polygon class="aa" points="0 55.84 26.41 114.76 45.27 122.62 50.93 134.62 65.46 134.32 79.99 168.27 107.53 177.33 136.2 174.14 152.43 182.99 224.87 177.33 231.28 166.01 254.3 158.58 275.05 110.55 288.63 106.77 311.27 47.54 0 55.84"/><g><polygon class="aa" points="150.7 258.45 179.3 203.98 171.01 243.75 164.43 261.12 150.7 258.45"/><polygon class="aa" points="150.7 258.45 179.3 203.98 171.01 243.75 164.43 261.12 150.7 258.45"/></g><g><polygon class="aa" points="139.55 238.07 148.7 189.28 179.3 203.98 150.7 258.45 139.55 238.07"/><polygon class="aa" points="139.55 238.07 148.7 189.28 179.3 203.98 150.7 258.45 139.55 238.07"/></g><g><polygon class="aa" points="121.81 227.37 148.7 189.28 139.55 238.07 121.81 227.37"/><polygon class="aa" points="121.81 227.37 148.7 189.28 139.55 238.07 121.81 227.37"/></g><polygon class="aa" points="148.7 189.28 115.81 197.97 121.81 227.37 139.55 238.07 150.7 258.45 164.43 261.12 171.01 243.75 179.3 203.98 148.7 189.28"/><g><polygon class="aa" points="182.37 240.02 212.28 204.51 210.4 219.07 182.37 240.02"/><polygon class="aa" points="182.37 240.02 212.28 204.51 210.4 219.07 182.37 240.02"/></g><g><polygon class="aa" points="220.99 189.98 191.58 200.1 182.37 240.02 212.28 204.51 220.99 189.98"/><polygon class="aa" points="220.99 189.98 191.58 200.1 182.37 240.02 212.28 204.51 220.99 189.98"/></g><polygon class="aa" points="198.69 188.52 191.58 200.1 182.37 240.02 210.4 219.07 212.28 204.51 220.99 189.98 198.69 188.52"/><g><polygon class="aa" points="193.6 255.3 188.93 274.62 196.5 264.96 193.6 255.3"/><polygon class="aa" points="193.6 255.3 188.93 274.62 196.5 264.96 193.6 255.3"/></g><polygon class="aa" points="193.6 255.3 184.26 260.45 184.26 269.47 188.93 274.61 196.5 264.96 193.6 255.3"/><polygon class="aa" points="61.49 90.24 59.62 91.54 66.03 122.45 75.91 123.77 92.21 156.95 135.07 161.86 152.43 182.99 224.87 177.33 231.28 166.01 254.3 158.58 275.05 110.55 288.63 106.77 308.91 50.68 61.49 90.24"/><polygon class="aa" points="106.44 100.83 135.07 161.86 92.21 156.95 75.91 123.77 106.44 100.83"/><polygon class="aa" points="106.44 100.83 59.62 91.54 66.03 122.45 75.91 123.77 106.44 100.83"/><polygon class="aa" points="231.28 166.01 275.05 110.55 254.3 158.58 231.28 166.01"/><polygon class="aa" points="275.05 110.55 243.74 94.44 289.2 76.91 288.63 106.77 275.05 110.55"/><polygon class="aa" points="288.63 106.77 311.27 47.54 289.2 76.91 288.63 106.77"/><polygon class="aa" points="135.07 161.86 182.37 146.63 224.87 177.33 152.43 182.99 135.07 161.86"/><polygon class="aa" points="182.37 146.63 106.44 100.83 135.07 161.86 182.37 146.63"/><polygon class="aa" points="182.37 146.63 275.05 110.55 224.87 177.33 182.37 146.63"/><polygon class="aa" points="275.05 110.55 243.74 94.44 176.72 103.44 275.05 110.55"/><polygon class="aa" points="182.37 146.63 176.72 103.44 106.44 100.83 182.37 146.63"/><polygon class="aa" points="275.05 110.55 176.72 103.44 182.37 146.63 275.05 110.55"/><polygon class="aa" points="289.2 76.91 243.74 94.44 176.72 103.44 106.44 100.83 59.62 91.54 66.03 122.45 75.91 123.77 92.21 156.95 135.07 161.86 152.43 182.99 224.87 177.33 234.04 165.12 254.3 158.58 275.05 110.55 288.63 106.77 311.27 47.54 289.2 76.91"/><polygon class="aa" points="274.02 16.42 233.99 5.06 160.35 0 85.72 5.14 47.75 12.66 7.95 32.33 0 55.84 38.22 87.09 106.44 100.83 176.72 103.44 243.74 94.44 289.2 76.91 311.27 47.54 274.02 16.42"/><polygon class="aa" points="104.13 100.83 182.33 59.52 209.78 54.6 243.74 94.44 176.72 103.44 104.13 100.83"/><polygon class="aa" points="209.78 54.6 235.81 55.08 281.48 43.86 311.27 47.54 289.2 76.91 243.74 94.44 209.78 54.6"/><polygon class="aa" points="184.26 51.72 120.97 34.21 85.72 5.14 160.35 0 233.99 5.06 208.49 48.84 184.26 51.72"/><polygon class="aa" points="184.26 51.72 120.97 34.21 85.72 5.14 47.75 12.66 7.95 32.33 0 55.84 104.13 50.68 184.26 51.72"/><polygon class="aa" points="38.22 87.09 104.13 50.68 0 55.84 38.22 87.09"/><polygon class="aa" points="208.49 48.84 233.99 5.06 274.02 16.42 311.27 47.54 283.11 40.8 235.57 50.68 208.49 48.84"/><polygon class="aa" points="274.02 16.42 233.99 5.06 160.35 0 85.72 5.14 47.75 12.66 7.95 32.33 0 55.84 38.22 87.09 104.13 50.68 184.26 51.72 208.49 48.84 235.57 50.68 283.11 40.8 311.27 47.54 274.02 16.42"/><polygon class="aa" points="104.13 100.83 182.33 59.52 109.15 57.19 59.62 91.54 104.13 100.83"/><polygon class="aa" points="281.48 43.86 235.81 55.08 209.78 54.6 182.33 59.52 109.15 57.19 59.62 91.54 104.13 100.83 176.72 103.44 243.74 94.44 289.2 76.91 311.27 47.54 281.48 43.86"/><polygon class="aa" points="82.79 36.67 65.27 40.8 28.45 46.59 5.37 39.96 7.95 32.33 19.76 26.5 82.79 36.67"/><polygon class="aa" points="226.86 42.17 210.48 45.41 189.64 48.97 173.84 44.42 175.6 39.2 196.49 37.27 226.86 42.17"/><polygon class="aa" points="63.08 61.81 47.67 65.44 17.54 70.19 0 55.84 7.63 52.86 63.08 61.81"/><polygon class="aa" points="217.44 19.89 211.14 23.16 163.1 29.81 140.03 23.17 142.61 15.55 154.42 9.71 217.44 19.89"/><polygon class="aa" points="265.65 33.05 243.93 36.47 197.64 43.08 168.63 35.51 171.87 26.82 186.72 20.16 265.65 33.05"/><polygon class="aa" points="164.2 24.35 149.12 28.23 112.29 34.02 89.22 27.39 91.79 19.77 139.45 13.23 164.2 24.35"/><polygon class="aa" points="197.4 42.63 208.77 31.93 214.73 31.93 225.46 39.02 226.65 42.02 210.48 45.41 207.11 43.58 197.4 42.63"/><polygon class="aa" points="39.52 66.09 53.05 44.78 56.92 54.6 63.08 61.8 39.52 66.09"/><polygon class="aa" points="39.52 44.29 24.43 44.92 37.16 39.25 53.05 44.78 39.52 44.29"/><polygon class="aa" points="24.43 44.92 39.52 66.09 24.43 63.25 16.63 59.15 24.43 44.92"/><polygon class="aa" points="24.43 44.92 40.23 44.31 53.05 44.78 39.52 66.09 24.43 44.92"/><g><polygon class="aa" points="39.52 66.09 53.05 44.78 56.92 54.6 63.08 61.8 39.52 66.09"/><polygon class="aa" points="39.52 44.29 24.43 44.92 37.16 39.25 53.05 44.78 39.52 44.29"/><polygon class="aa" points="24.43 44.92 39.52 66.09 24.43 63.25 16.63 59.15 24.43 44.92"/><polygon class="aa" points="24.43 44.92 40.23 44.31 53.05 44.78 39.52 66.09 24.43 44.92"/></g><polygon class="aa" points="56.92 54.6 53.05 44.78 37.16 39.25 24.43 44.92 16.63 59.16 24.43 63.25 39.52 66.1 63.08 61.8 56.92 54.6"/><polygon class="aa" points="207.11 43.58 210.48 45.41 211.59 34.9 208.77 31.93 197.4 42.63 207.11 43.58"/><polygon class="aa" points="211.59 34.9 225.46 39.02 214.73 31.93 208.77 31.93 211.59 34.9"/><polygon class="aa" points="226.65 42.02 210.48 45.41 211.59 34.9 225.46 39.02 226.65 42.02"/><polygon class="aa" points="225.46 39.02 214.73 31.93 208.77 31.93 197.4 42.63 207.11 43.58 210.48 45.41 226.65 42.02 225.46 39.02"/><g><polygon class="aa" points="143.89 73.08 137.28 76.7 120.61 78.2 109.47 74.99 110.71 71.31 128.89 67.81 143.89 73.08"/><g><g><g><polygon class="aa" points="123.62 74.83 130.45 72.91 124.83 75.14 123.62 74.83"/><polygon class="aa" points="123.62 74.83 130.45 72.91 124.83 75.14 123.62 74.83"/></g><polygon class="aa" points="141.95 67.81 140.79 71.4 135.96 75.87 129.01 77.17 137.28 76.7 143.89 73.08 141.95 67.81"/><g><polygon class="aa" points="122.09 70.49 134.53 70.97 130.45 72.91 123.62 74.83 120.65 74.08 122.09 70.49"/><polygon class="aa" points="122.09 70.49 134.53 70.97 130.45 72.91 123.62 74.83 120.65 74.08 122.09 70.49"/></g><g><polygon class="aa" points="129.01 77.17 130.45 72.91 134.53 70.97 140.79 71.4 135.96 75.87 129.01 77.17"/><polygon class="aa" points="129.01 77.17 130.45 72.91 134.53 70.97 140.79 71.4 135.96 75.87 129.01 77.17"/></g><g><polygon class="aa" points="134.53 70.97 141.95 67.81 140.79 71.4 134.53 70.97"/><polygon class="aa" points="134.53 70.97 141.95 67.81 140.79 71.4 134.53 70.97"/></g><g><polygon class="aa" points="141.95 67.81 134.53 70.97 122.09 70.49 128.89 67.81 141.95 67.81"/><polygon class="aa" points="141.95 67.81 134.53 70.97 122.09 70.49 128.89 67.81 141.95 67.81"/></g></g><polygon class="aa" points="141.95 67.81 128.89 67.81 122.09 70.49 120.65 74.08 123.62 74.83 124.83 75.14 130.45 72.91 129.01 77.17 137.28 76.7 143.89 73.08 141.95 67.81"/></g></g><g><polygon class="aa" points="164.32 86.22 165.9 89.4 148.97 91.58 137.82 88.37 139.07 84.69 158.64 82.6 164.32 86.22"/><g><g><g><polygon class="aa" points="151.51 83.74 154.89 86.62 156.13 88.45 165.9 89.4 164.32 86.22 168.93 85.74 171.94 84.36 164.81 83.05 158.64 82.6 151.51 83.74"/><polygon class="aa" points="151.51 83.74 154.89 86.62 156.13 88.45 165.9 89.4 164.32 86.22 168.93 85.74 171.94 84.36 164.81 83.05 158.64 82.6 151.51 83.74"/></g><g><polygon class="aa" points="151.51 83.74 164.32 86.22 156.13 88.45 154.89 86.62 151.51 83.74"/><polygon class="aa" points="151.51 83.74 164.32 86.22 156.13 88.45 154.89 86.62 151.51 83.74"/></g><polygon class="aa" points="164.32 86.22 164.81 83.05 171.94 84.36 168.93 85.74 164.32 86.22"/><g><polygon class="aa" points="164.32 86.22 151.51 83.74 158.64 82.6 164.81 83.05 164.32 86.22"/><polygon class="aa" points="164.32 86.22 151.51 83.74 158.64 82.6 164.81 83.05 164.32 86.22"/></g></g><polygon class="aa" points="171.94 84.36 164.81 83.05 158.64 82.6 151.51 83.74 154.89 86.62 156.13 88.45 165.9 89.4 164.32 86.22 168.93 85.74 171.94 84.36"/></g></g><g><polygon class="aa" points="45.68 83.76 43.74 53.4 52.83 19.44 49.69 53.12 53.12 81.48 45.68 83.76"/><polygon class="aa" points="45.47 83.74 39.71 54.77 20.97 43.83 34.36 55.4 39.06 86.22 45.47 83.74"/><polygon class="aa" points="56.27 77.17 60.03 54.79 69.13 45.15 63.4 56.01 61.87 75.71 56.27 77.17"/><polygon class="aa" points="77.06 65.93 79.56 47.54 80.61 65.07 77.06 65.93"/><polygon class="aa" points="39.61 86.29 34.53 72.91 27.97 62.63 37.21 70.37 43.39 85.54 39.61 86.29"/><polygon class="aa" points="55.95 77.64 55.19 59.71 50.07 44.67 58.61 57.11 61.79 77.65 55.95 77.64"/><polygon class="aa" points="71.32 70.49 69.95 61.51 68.32 65.62 68.39 59.49 72.06 59.08 74.5 68.86 71.32 70.49"/><polygon class="aa" points="69.95 61.51 68.39 59.49 68.32 65.62 69.95 61.51"/></g><polygon class="aa" points="235.81 55.08 235.57 50.68 208.49 48.84 184.26 51.72 182.33 59.52 210.62 54.6 235.81 55.08"/><polygon class="aa" points="184.26 51.72 182.33 59.52 109.15 57.19 104.13 50.68 184.26 51.72"/><polygon class="aa" points="109.15 57.19 104.13 50.68 38.22 87.09 59.62 91.54 109.15 57.19"/><polygon class="aa" points="235.57 50.68 235.81 55.08 281.48 43.86 311.27 47.54 283.11 40.8 235.57 50.68"/><polygon class="aa" points="283.11 40.8 235.39 50.67 208.49 48.84 184.26 51.72 104.13 50.68 38.22 87.09 59.62 91.54 109.15 57.19 182.33 59.52 210.62 54.6 235.81 55.08 281.48 43.86 311.27 47.54 283.11 40.8"/></g><g class="ax"><g><polygon class="aa" points="0 55.84 26.41 114.76 45.27 122.62 50.93 134.62 65.46 134.32 79.99 168.27 107.53 177.33 136.2 174.14 152.43 182.99 224.87 177.33 231.28 166.01 254.3 158.58 275.05 110.55 288.63 106.77 311.27 47.54 0 55.84"/><polygon class="aa" points="0 55.84 26.41 114.76 45.27 122.62 50.93 134.62 65.46 134.32 79.99 168.27 107.53 177.33 136.2 174.14 152.43 182.99 224.87 177.33 231.28 166.01 254.3 158.58 275.05 110.55 288.63 106.77 311.27 47.54 0 55.84"/></g><g><polygon class="aa" points="115.81 197.97 148.7 189.28 179.3 203.98 171.01 243.75 164.43 261.12 150.7 258.45 139.55 238.07 121.81 227.37 115.81 197.97"/><polygon class="aa" points="115.81 197.97 148.7 189.28 179.3 203.98 171.01 243.75 164.43 261.12 150.7 258.45 139.55 238.07 121.81 227.37 115.81 197.97"/></g><g><polygon class="aa" points="210.4 219.07 182.37 240.02 191.58 200.1 198.69 188.52 220.99 189.98 212.28 204.51 210.4 219.07"/><polygon class="aa" points="210.4 219.07 182.37 240.02 191.58 200.1 198.69 188.52 220.99 189.98 212.28 204.51 210.4 219.07"/></g><g><polygon class="aa" points="193.6 255.3 184.26 260.45 184.26 269.47 188.93 274.62 196.5 264.96 193.6 255.3"/><polygon class="aa" points="193.6 255.3 184.26 260.45 184.26 269.47 188.93 274.62 196.5 264.96 193.6 255.3"/></g><g><polygon class="aa" points="66.03 122.45 50.93 134.62 45.27 122.62 26.41 114.76 38.22 87.09 59.62 91.54 66.03 122.45"/><polygon class="aa" points="66.03 122.45 50.93 134.62 45.27 122.62 26.41 114.76 38.22 87.09 59.62 91.54 66.03 122.45"/></g><g><polygon class="aa" points="152.43 182.99 135.07 161.86 107.53 177.33 136.2 174.14 152.43 182.99"/><polygon class="aa" points="152.43 182.99 135.07 161.86 107.53 177.33 136.2 174.14 152.43 182.99"/></g><g><polygon class="aa" points="50.93 134.62 65.46 134.32 79.99 168.27 92.21 156.95 75.91 123.77 66.03 122.45 50.93 134.62"/><polygon class="aa" points="50.93 134.62 65.46 134.32 79.99 168.27 92.21 156.95 75.91 123.77 66.03 122.45 50.93 134.62"/></g><g><polygon class="aa" points="79.99 168.27 92.21 156.95 135.07 161.86 107.53 177.33 79.99 168.27"/><polygon class="aa" points="79.99 168.27 92.21 156.95 135.07 161.86 107.53 177.33 79.99 168.27"/></g><polygon class="aa" points="0 55.84 26.41 114.76 45.27 122.62 50.93 134.62 65.46 134.32 79.99 168.27 107.53 177.33 136.2 174.14 152.43 182.99 224.87 177.33 231.28 166.01 254.3 158.58 275.05 110.55 288.63 106.77 311.27 47.54 0 55.84"/><g><polygon class="aa" points="150.7 258.45 179.3 203.98 171.01 243.75 164.43 261.12 150.7 258.45"/><polygon class="aa" points="150.7 258.45 179.3 203.98 171.01 243.75 164.43 261.12 150.7 258.45"/></g><g><polygon class="aa" points="139.55 238.07 148.7 189.28 179.3 203.98 150.7 258.45 139.55 238.07"/><polygon class="aa" points="139.55 238.07 148.7 189.28 179.3 203.98 150.7 258.45 139.55 238.07"/></g><g><polygon class="aa" points="121.81 227.37 148.7 189.28 139.55 238.07 121.81 227.37"/><polygon class="aa" points="121.81 227.37 148.7 189.28 139.55 238.07 121.81 227.37"/></g><polygon class="aa" points="148.7 189.28 115.81 197.97 121.81 227.37 139.55 238.07 150.7 258.45 164.43 261.12 171.01 243.75 179.3 203.98 148.7 189.28"/><g><polygon class="aa" points="182.37 240.02 212.28 204.51 210.4 219.07 182.37 240.02"/><polygon class="aa" points="182.37 240.02 212.28 204.51 210.4 219.07 182.37 240.02"/></g><g><polygon class="aa" points="220.99 189.98 191.58 200.1 182.37 240.02 212.28 204.51 220.99 189.98"/><polygon class="aa" points="220.99 189.98 191.58 200.1 182.37 240.02 212.28 204.51 220.99 189.98"/></g><polygon class="aa" points="198.69 188.52 191.58 200.1 182.37 240.02 210.4 219.07 212.28 204.51 220.99 189.98 198.69 188.52"/><g><polygon class="aa" points="193.6 255.3 188.93 274.62 196.5 264.96 193.6 255.3"/><polygon class="aa" points="193.6 255.3 188.93 274.62 196.5 264.96 193.6 255.3"/></g><polygon class="aa" points="193.6 255.3 184.26 260.45 184.26 269.47 188.93 274.61 196.5 264.96 193.6 255.3"/><polygon class="aa" points="61.49 90.24 59.62 91.54 66.03 122.45 75.91 123.77 92.21 156.95 135.07 161.86 152.43 182.99 224.87 177.33 231.28 166.01 254.3 158.58 275.05 110.55 288.63 106.77 308.91 50.68 61.49 90.24"/><polygon class="aa" points="106.44 100.83 135.07 161.86 92.21 156.95 75.91 123.77 106.44 100.83"/><polygon class="aa" points="106.44 100.83 59.62 91.54 66.03 122.45 75.91 123.77 106.44 100.83"/><polygon class="aa" points="231.28 166.01 275.05 110.55 254.3 158.58 231.28 166.01"/><polygon class="aa" points="275.05 110.55 243.74 94.44 289.2 76.91 288.63 106.77 275.05 110.55"/><polygon class="aa" points="288.63 106.77 311.27 47.54 289.2 76.91 288.63 106.77"/><polygon class="aa" points="135.07 161.86 182.37 146.63 224.87 177.33 152.43 182.99 135.07 161.86"/><polygon class="aa" points="182.37 146.63 106.44 100.83 135.07 161.86 182.37 146.63"/><polygon class="aa" points="182.37 146.63 275.05 110.55 224.87 177.33 182.37 146.63"/><polygon class="aa" points="275.05 110.55 243.74 94.44 176.72 103.44 275.05 110.55"/><polygon class="aa" points="182.37 146.63 176.72 103.44 106.44 100.83 182.37 146.63"/><polygon class="aa" points="275.05 110.55 176.72 103.44 182.37 146.63 275.05 110.55"/><polygon class="aa" points="289.2 76.91 243.74 94.44 176.72 103.44 106.44 100.83 59.62 91.54 66.03 122.45 75.91 123.77 92.21 156.95 135.07 161.86 152.43 182.99 224.87 177.33 234.04 165.12 254.3 158.58 275.05 110.55 288.63 106.77 311.27 47.54 289.2 76.91"/><polygon class="aa" points="274.02 16.42 233.99 5.06 160.35 0 85.72 5.14 47.75 12.66 7.95 32.33 0 55.84 38.22 87.09 106.44 100.83 176.72 103.44 243.74 94.44 289.2 76.91 311.27 47.54 274.02 16.42"/><polygon class="aa" points="104.13 100.83 182.33 59.52 209.78 54.6 243.74 94.44 176.72 103.44 104.13 100.83"/><polygon class="aa" points="209.78 54.6 235.81 55.08 281.48 43.86 311.27 47.54 289.2 76.91 243.74 94.44 209.78 54.6"/><polygon class="aa" points="184.26 51.72 120.97 34.21 85.72 5.14 160.35 0 233.99 5.06 208.49 48.84 184.26 51.72"/><polygon class="aa" points="184.26 51.72 120.97 34.21 85.72 5.14 47.75 12.66 7.95 32.33 0 55.84 104.13 50.68 184.26 51.72"/><polygon class="aa" points="38.22 87.09 104.13 50.68 0 55.84 38.22 87.09"/><polygon class="aa" points="208.49 48.84 233.99 5.06 274.02 16.42 311.27 47.54 283.11 40.8 235.57 50.68 208.49 48.84"/><polygon class="aa" points="274.02 16.42 233.99 5.06 160.35 0 85.72 5.14 47.75 12.66 7.95 32.33 0 55.84 38.22 87.09 104.13 50.68 184.26 51.72 208.49 48.84 235.57 50.68 283.11 40.8 311.27 47.54 274.02 16.42"/><polygon class="aa" points="104.13 100.83 182.33 59.52 109.15 57.19 59.62 91.54 104.13 100.83"/><polygon class="aa" points="281.48 43.86 235.81 55.08 209.78 54.6 182.33 59.52 109.15 57.19 59.62 91.54 104.13 100.83 176.72 103.44 243.74 94.44 289.2 76.91 311.27 47.54 281.48 43.86"/><polygon class="aa" points="82.79 36.67 65.27 40.8 28.45 46.59 5.37 39.96 7.95 32.33 19.76 26.5 82.79 36.67"/><polygon class="aa" points="226.86 42.17 210.48 45.41 189.64 48.97 173.84 44.42 175.6 39.2 196.49 37.27 226.86 42.17"/><polygon class="aa" points="63.08 61.81 47.67 65.44 17.54 70.19 0 55.84 7.63 52.86 63.08 61.81"/><polygon class="aa" points="217.44 19.89 211.14 23.16 163.1 29.81 140.03 23.17 142.61 15.55 154.42 9.71 217.44 19.89"/><polygon class="aa" points="265.65 33.05 243.93 36.47 197.64 43.08 168.63 35.51 171.87 26.82 186.72 20.16 265.65 33.05"/><polygon class="aa" points="164.2 24.35 149.12 28.23 112.29 34.02 89.22 27.39 91.79 19.77 139.45 13.23 164.2 24.35"/><polygon class="aa" points="197.4 42.63 208.77 31.93 214.73 31.93 225.46 39.02 226.65 42.02 210.48 45.41 207.11 43.58 197.4 42.63"/><polygon class="aa" points="39.52 66.09 53.05 44.78 56.92 54.6 63.08 61.8 39.52 66.09"/><polygon class="aa" points="39.52 44.29 24.43 44.92 37.16 39.25 53.05 44.78 39.52 44.29"/><polygon class="aa" points="24.43 44.92 39.52 66.09 24.43 63.25 16.63 59.15 24.43 44.92"/><polygon class="aa" points="24.43 44.92 40.23 44.31 53.05 44.78 39.52 66.09 24.43 44.92"/><g><polygon class="aa" points="39.52 66.09 53.05 44.78 56.92 54.6 63.08 61.8 39.52 66.09"/><polygon class="aa" points="39.52 44.29 24.43 44.92 37.16 39.25 53.05 44.78 39.52 44.29"/><polygon class="aa" points="24.43 44.92 39.52 66.09 24.43 63.25 16.63 59.15 24.43 44.92"/><polygon class="aa" points="24.43 44.92 40.23 44.31 53.05 44.78 39.52 66.09 24.43 44.92"/></g><polygon class="aa" points="56.92 54.6 53.05 44.78 37.16 39.25 24.43 44.92 16.63 59.16 24.43 63.25 39.52 66.1 63.08 61.8 56.92 54.6"/><polygon class="aa" points="207.11 43.58 210.48 45.41 211.59 34.9 208.77 31.93 197.4 42.63 207.11 43.58"/><polygon class="aa" points="211.59 34.9 225.46 39.02 214.73 31.93 208.77 31.93 211.59 34.9"/><polygon class="aa" points="226.65 42.02 210.48 45.41 211.59 34.9 225.46 39.02 226.65 42.02"/><polygon class="aa" points="225.46 39.02 214.73 31.93 208.77 31.93 197.4 42.63 207.11 43.58 210.48 45.41 226.65 42.02 225.46 39.02"/><g><polygon class="aa" points="143.89 73.08 137.28 76.7 120.61 78.2 109.47 74.99 110.71 71.31 128.89 67.81 143.89 73.08"/><g><g><g><polygon class="aa" points="123.62 74.83 130.45 72.91 124.83 75.14 123.62 74.83"/><polygon class="aa" points="123.62 74.83 130.45 72.91 124.83 75.14 123.62 74.83"/></g><polygon class="aa" points="141.95 67.81 140.79 71.4 135.96 75.87 129.01 77.17 137.28 76.7 143.89 73.08 141.95 67.81"/><g><polygon class="aa" points="122.09 70.49 134.53 70.97 130.45 72.91 123.62 74.83 120.65 74.08 122.09 70.49"/><polygon class="aa" points="122.09 70.49 134.53 70.97 130.45 72.91 123.62 74.83 120.65 74.08 122.09 70.49"/></g><g><polygon class="aa" points="129.01 77.17 130.45 72.91 134.53 70.97 140.79 71.4 135.96 75.87 129.01 77.17"/><polygon class="aa" points="129.01 77.17 130.45 72.91 134.53 70.97 140.79 71.4 135.96 75.87 129.01 77.17"/></g><g><polygon class="aa" points="134.53 70.97 141.95 67.81 140.79 71.4 134.53 70.97"/><polygon class="aa" points="134.53 70.97 141.95 67.81 140.79 71.4 134.53 70.97"/></g><g><polygon class="aa" points="141.95 67.81 134.53 70.97 122.09 70.49 128.89 67.81 141.95 67.81"/><polygon class="aa" points="141.95 67.81 134.53 70.97 122.09 70.49 128.89 67.81 141.95 67.81"/></g></g><polygon class="aa" points="141.95 67.81 128.89 67.81 122.09 70.49 120.65 74.08 123.62 74.83 124.83 75.14 130.45 72.91 129.01 77.17 137.28 76.7 143.89 73.08 141.95 67.81"/></g></g><g><polygon class="aa" points="164.32 86.22 165.9 89.4 148.97 91.58 137.82 88.37 139.07 84.69 158.64 82.6 164.32 86.22"/><g><g><g><polygon class="aa" points="151.51 83.74 154.89 86.62 156.13 88.45 165.9 89.4 164.32 86.22 168.93 85.74 171.94 84.36 164.81 83.05 158.64 82.6 151.51 83.74"/><polygon class="aa" points="151.51 83.74 154.89 86.62 156.13 88.45 165.9 89.4 164.32 86.22 168.93 85.74 171.94 84.36 164.81 83.05 158.64 82.6 151.51 83.74"/></g><g><polygon class="aa" points="151.51 83.74 164.32 86.22 156.13 88.45 154.89 86.62 151.51 83.74"/><polygon class="aa" points="151.51 83.74 164.32 86.22 156.13 88.45 154.89 86.62 151.51 83.74"/></g><polygon class="aa" points="164.32 86.22 164.81 83.05 171.94 84.36 168.93 85.74 164.32 86.22"/><g><polygon class="aa" points="164.32 86.22 151.51 83.74 158.64 82.6 164.81 83.05 164.32 86.22"/><polygon class="aa" points="164.32 86.22 151.51 83.74 158.64 82.6 164.81 83.05 164.32 86.22"/></g></g><polygon class="aa" points="171.94 84.36 164.81 83.05 158.64 82.6 151.51 83.74 154.89 86.62 156.13 88.45 165.9 89.4 164.32 86.22 168.93 85.74 171.94 84.36"/></g></g><g><polygon class="aa" points="45.68 83.76 43.74 53.4 52.83 19.44 49.69 53.12 53.12 81.48 45.68 83.76"/><polygon class="aa" points="45.47 83.74 39.71 54.77 20.97 43.83 34.36 55.4 39.06 86.22 45.47 83.74"/><polygon class="aa" points="56.27 77.17 60.03 54.79 69.13 45.15 63.4 56.01 61.87 75.71 56.27 77.17"/><polygon class="aa" points="77.06 65.93 79.56 47.54 80.61 65.07 77.06 65.93"/><polygon class="aa" points="39.61 86.29 34.53 72.91 27.97 62.63 37.21 70.37 43.39 85.54 39.61 86.29"/><polygon class="aa" points="55.95 77.64 55.19 59.71 50.07 44.67 58.61 57.11 61.79 77.65 55.95 77.64"/><polygon class="aa" points="71.32 70.49 69.95 61.51 68.32 65.62 68.39 59.49 72.06 59.08 74.5 68.86 71.32 70.49"/><polygon class="aa" points="69.95 61.51 68.39 59.49 68.32 65.62 69.95 61.51"/></g><polygon class="aa" points="235.81 55.08 235.57 50.68 208.49 48.84 184.26 51.72 182.33 59.52 210.62 54.6 235.81 55.08"/><polygon class="aa" points="184.26 51.72 182.33 59.52 109.15 57.19 104.13 50.68 184.26 51.72"/><polygon class="aa" points="109.15 57.19 104.13 50.68 38.22 87.09 59.62 91.54 109.15 57.19"/><polygon class="aa" points="235.57 50.68 235.81 55.08 281.48 43.86 311.27 47.54 283.11 40.8 235.57 50.68"/><polygon class="aa" points="283.11 40.8 235.39 50.67 208.49 48.84 184.26 51.72 104.13 50.68 38.22 87.09 59.62 91.54 109.15 57.19 182.33 59.52 210.62 54.6 235.81 55.08 281.48 43.86 311.27 47.54 283.11 40.8"/></g></g></g></g></g></svg>